<mxfile host="Electron" modified="2024-03-06T15:35:30.858Z" agent="Mozilla/5.0 (Macintosh; Intel Mac OS X 10_15_7) AppleWebKit/537.36 (KHTML, like Gecko) draw.io/23.1.5 Chrome/120.0.6099.109 Electron/28.1.0 Safari/537.36" etag="3YHws86P2ttXLaXa5ipa" version="23.1.5" type="device" pages="2">
  <diagram name="Current State" id="aGPPK7q-BlTdJwCdCIY8">
    <mxGraphModel dx="2074" dy="1142" grid="1" gridSize="10" guides="1" tooltips="1" connect="1" arrows="1" fold="1" page="1" pageScale="1" pageWidth="1700" pageHeight="1100" background="#ffffff" math="0" shadow="0">
      <root>
        <mxCell id="0" />
        <mxCell id="1" parent="0" />
        <mxCell id="Ec_Hcg1a5heQaedzJzNE-1" value="&lt;font size=&quot;1&quot; color=&quot;#3399ff&quot;&gt;&lt;b style=&quot;font-size: 15px;&quot;&gt;Current State Architecture&lt;/b&gt;&lt;/font&gt;" style="rounded=0;whiteSpace=wrap;html=1;fillColor=none;strokeColor=#3399FF;strokeWidth=3;" parent="1" vertex="1">
          <mxGeometry x="740" y="10" width="220" height="30" as="geometry" />
        </mxCell>
        <mxCell id="1xor0xyeMIMcqkUQFffA-1" value="" style="shape=image;verticalLabelPosition=bottom;labelBackgroundColor=default;verticalAlign=top;aspect=fixed;imageAspect=0;image=data:image/png,iVBORw0KGgoAAAANSUhEUgAABLAAAAFjCAYAAAAts/LpAAAAAXNSR0IArs4c6QAAIABJREFUeF7s3Qe4NUtVJv6a/8yYGFCUoOQokjNIGHJQECQMOSo5g+ScFAElZxCVDErOOQcVkJyDZBBQAUVEnfHfP25tOPfcc87u3rtXdXXvWs/zPd8NvauqV3V3Vb3rXe/6b2l7+x8ppf+VUjpBSunsKaWLpJTOmlI6fUrp51NKp0gp/WdK6Z9SSt9KKX0hpfShlNI7UkofSyl9L6X0L/ma7UfTWliaB34qpfQz+Y9/PnF+tk6bn61TppR+KaV0ovwM/rf8PHr2/m9K6Rv52frHlNJXUkpfTSl9NqX08ZTSp1JK/5pS+kH+8+9Lc17A/Xjff3bPnPxKSuksKaUz5nk5WZ4P/l/Nl2F8N7/n/vmH+Xvwz/mb4Ltgnr6Y5+fLKaXvp5TMh2v98c//FXA/S2zy/0sp/fSed8Z8nTyldIaU0qnzH/P0Cyklf5vTE+Z5XfnDe/Gd/O6Ym2/n9+dLKaXPpZQ+k1L6Zp6bf0sp+dPenyU+Te2emgeaB5oHmgeaB5oHmgeaB5oHKvGAw/6m5sADsDpvSumSKaVfzyDCkDYdXN+dUnpzSumvUkofzgehTcfUfjd/DzhMO1SfKgNUZ0op/VoGSIBWvzjiLQKuAKrALKDqJ/O//11KCeD1/0bsa65NeZ+BUafJcwKo8t6bE3MDBBnbAN7AEWDJ51NK5sPfAMivZZALINbm5xjPr+YImAuo8u78ap4f7wzQSpBhbBOUMC+fTil9IgPDwEfzBvRqgNbYHm/tNQ80DzQPNA80DzQPNA80DzQP7LAHhoBNKzeJ7F85pXSVlNKF8sF2k3b2ut1BR1T/nR1L4Nn573Y43Z0H879ndsiFU0r+nC4fwh3IPW+lDCPIARxDC5j69gywYgPtmmFUnq8Dly+WUjpHSgkQAhgZE0Ac4tMVqAXAAmQBG/82pfQ3mbk1pK2lXHuSHDi4QGbBmR8AFjYiILi0AYQxHAFY3qH3ZaYtthY2ZLPmgeaB5oHmgeaB5oHmgeaB5oHmgeaBjT0wFHhykH1UZl0dP6UkVWVMc8iRqgLEelhOLxqz/dZWXR4AXF2pYz3dOKV0/pwC+HMBz9Umdw1Uldr69x2b5bn5mZTitvQ0NuCh+bhqZsJh7kgFrM3+I6d9SkH+YJ6jl+fUw9rGOuZ4ALqX7wC8a2ewFzvueCml/zlmJyO0JQAB0AIKSxX3Tf/LHZifva7z7pw5g4oARd8T3xCsNWmxzer3gPR1cyiYsvoOerbtU4DomKLN5uEB30pz+csZ4Pc+ehf9ESBpNswD3gdBFIaJPYTla3/lHVoFppr/h/l+iqvNtWwbWTcCZdY0wV0M7PfkYK992a6a4O5KQkOGEv84L8jm4KOvt6yBjR4Na7AsArJEnjvfb8+iQK3/t/oGHdQ4n9uHyhaQFeA8J8gqqwNppn13NpqSQ38EE5KtQ0rqPPmf986P8xrfy3p6VyaKbBzc7gNgucaDcotu033PlBKAoYRJLbxjSukD7SEr4e5ifXh+fIQw+G6TP0zFOt+iIwv1y7qP5RPzy+dF3PjF22IcY/8U8GHhlQLsHb9cSgmwOEeTVggoeV5OafPvc58jc+HgBVi8Zrfo3iAv4HOdn2d1GxF/sLKWlgbqQEcT7jfyPF3wECacg9vruhTpP8kLOK2xxjiu44m2AbPfcVD7ncxApSF3mNkE/0UHjLwgb4iBIs3q8IADpPfxivl9xFTdz0x1wHSweU3HMP7TvLYv7bt02GzY2/tm+SMwYi/gn+0HHBixrk+a/zg0rjQTAVUO6H3OD32fBIEOfwD8vo+Y1uQdVhICDp4rTczV3+3w2de7m19nv04y4nYppf+zJiOCJMwzOrD/6Xnu6GIuxTzr3hH+EDD0fgDy/AGKk2yQtXCUYaZbJwTyBD+sFUsPiPeZf98da6w/vi2eN+DHubKetsyCqIwC3xfyF4Ks781/248BvejANhmMo2fQe+F9MEe/3elKXyfPX595d40AoPfBmc07AWjsvRfuswCdu9OlukceXMl0Ljdn0bpP3iACDJrN1wMO4VLSfiuDVxaAPs9fbXfsg/aGlNJLukPO23KqVG1j7DMeC4UF4n93h+ir5TTBGplWfe5l/zU2BtD9l+a/ifXPbSGyUbIxAoJI2ZZai/W6BPMtf0sGhM0TEGDOQCPQQ3TwGl0K8k0y2NhnnizUgCygOH/sYqpyHz+VusYG2rt2y/y+DfkeirLbiD0zb4R3mYlQar6O6gfgYl27dT4E9RkTQORV+QD+1gyo9PndXK5xUARI8Y0//nlV1MPf2CP+e43rjDUDAADgAmxZM/y7MwJJASDkkgCTGp4pxXlu2jEmbjRAOgIgY16AWH+eJTlquJdNxwCUAk4pgCMDCWClSJn3ZNNAr0P6izPYRzZn10Csvbq62Dr0dIFWZ8tax0cFjDadx76/sw8VXAVokZEBbvnmYA0B1ndtro7ymzPk6vwIvFJgbVMDGJLske3kXO0bstbX6wAEkasHZjR03bWbDnzd77zsj+kqmz0uUzHXXd/+f10egJxfNKelXSqnYtQ1ws1GAyQh/G7D66XzkZuD2cReOrN5fHwcvKd6t6P95RBpEXpTPlhajHqj+9GDO6R983PxHO0EWlnca0sPHMs1Fi06ZgBh7xDdrLWL1lidj9QO8Mp7dO+U0iU2mCv3i9L+pI7h8Ogc9RtpaK2ZAR7AKDGH0qdVtd3URBHJLGAZer6blfcAtqq5lGY9NGPA+yjtBBvrj3KV7PJ3MF6PGGgO3efMRT2AVCtWled8bBmQ8Ua+viWglgi+7yftUmkp78+SAi21d73/DrvCfvAy3V7pfjkVaJP9oRR5+y5ZO/ZgczJEDWCK8wqdZ4WLAC1DUmTX3a/vjLTCx3YZKU/rvle7EPDgV/6kq+t7tNI6nkpXd90c+f/OecAUoDlQC8giXfYf+vx4odf4HgBzb5/lTGRUjWWCuAAs+2HB3SPfi6M+TBA1oBHth6kNle9BeYPftEOmno3+/fswPSQfxtHPN41Y9O+x/JWifg7ef5xpkDUzfSwc9++YL1iVIktLnI+DngBzgt4uIvjQvCiVf1LW92h+ME4dODAWd2V+fNNF0R+f2Ug1v0P7Z1FakrQAFOptDoPWuCd0ANbd1j8m7YqRPYBx8gfdQfhmWVNjm+YdTGxuHdx8b1qa0zbeHP5b302MRmzIbYB/6/oLc+rh8FFM9wvfIIwR2qK/mUErIB5WA0bhJmDEdHfTv2fvnXUEaCwFVHEXDOxXVLze97+7sleSk3hKZsVs87yYk4/mYClgv3bzfmBtWgcwgqwLNJYiDUHjwfmsvcS1wvMDqLp+PgcC1Fe6uts8W5FzcljbwBQAC9YncOXPMlg+xVim6tOZBLHJOco6c9AZhZ+894A+oJ8Ag+fc2oylpXq9zBJg5kEsdyQD18Offv+o7IyDHiALoIMUBEz0vxazOPmwPGcGLIpafDbFODxTPlBXyBHMGgDQUn54c7eBunuOBDqQ1mA2rt5jenIi0kPSYmoY/9hjEEm5V9Y8sdGdmvEjf1y0D3Dh0LHNoWtsX03R3kcyiCelrnaNCBoxUo2AV2OZlCcR2SVuZsfy0ZjteN9u1emb/OEGbJ2jxkHPh2bM68ccbGvrSA/YTGNeyRoYy2ygBU9rZUg4YAtGOSRaP/xx+G52jAfsw4BYzg3YvlJ9GzPy8KcDwEDH6rIjPUD2V7Rj6avWyIqzPz5FSunqWZPXP5c2DB9r0GsXcrZ1xsBoVpjLfgaTrbT8UKk5VGlbwMTZz/O95G+LObxuzojbm2buHfedxVwmoeBbK+Vy3dkKoOW9w3q3Zvn3/ZiUINJts2+P095BAJaUIvnL0lhqMwdOh3AverM6PYDd42N8rR6ihnXewXajghwTZ/YiS1mbStvHIoKm6wMh+jEmzXM7D03/a8CIioVP7ajyNAimmCNRcZpwhNn92SZ/fHqPjjsC33kLlwjXX000P+vuiNC3ggEqQo5ponveV+kX6zYAY/a7q215B2lXSREZ24DlWDBzYB+Mfe9TtOddpE05poYKQV8bbOtFLe8j0JVmlcAHBqiCA/Qso9kiU8zpWH1a472Hzg6CDopDtapwx/UusBYIvA2beH+rwHxtPrkiIHilyavgij2y7/+UjCAyCtfLmQJjPfOl2xGMJb6OAKOKuW/SLmQRYAzRzbJGvDGnMS8txVCQBAiNLbgXjBRoBeKRAPFnk/tGeLF23zDL23iOViZw9KL8/TgOKLb/haVXRLvBgWrMD9iYL5J8aiggalqzejwAMFEhTWVB+bG78OE6zPvYgvSxMCloaZTWXcJ6IyZtYSY4OeXCXM8TeuyROIxI/QRCYJtKMSxh5gIj7uZZMFrkvNlxPWB+iO8/P89PTdFbcyiy+LBcgWXM+fOtcAgXdSJM3CzOA/Y42AEKi0QZcAwAUgsjN+o+p26XntMrczXdMcfifaRzKSgnFWJKc3Cgs+fQjd1AZBvToVl/D1hXrPX2Z4IEKog6GDU7BhB9R642ObY/pBSpcA00nNKAvxhBzpCA31oyRMgm2BNiv83NBGN9l5BLpIUBA6OqBtbuG2vEu/Mezt5iCeu++bUfBULvrbTpnOvshLAhOLAtEWBVeOUuuQLuaq5X6fw0txBEfmz7D7ZKpT6y8ocP4gcU+L1Wtamad1k0Q1qWDzCtq2bHeADTB33ds1rqMGqTQHxWnvFSabtjPl8+wui/5qgEU+J38rsigr7r6YJ95tH8iJjfuaKghTQDLGVpFhHgMAYaAFrkqVmcB2g50MmJ3GzbcJlLoGSzOA/8bk5tGFNoeTVaUWUgJIBsCgPOORyKgPv2SN+IfGanuMcp+nQwwnhdBbGmBiin8MHePmn2qTgYYYBgFQ2xqqcywUKavPbINWrACtjVJNvTZ54wruhH0k3j01qJL33uZaxrPOu0shSVoDlML2uuZn9LDx1QBWBaGVYlUEumxJggnXUNGKq4gSrsK8PEgk3dY68j926+lQmlOzJFDvDQybXQAEteUxGte+g9LOV6VW3Qji18bVN13FkV8fvr7oN215wOFaFtw+/e2/t2FTNs5JsN94B0TwcEKWtj651gJ6pkg7Hj0NxsuAekY2F3AhunLpduA2wj7tsXZZjQ7tdGodn4HgAee5ZUyI0033+aELdsAbcwNwN0BDVpjkUZLSx/ShQRcggExNEjcujHbFc5sFmcB76WdfAwJgGWEfu0uNFv37L9o31q5JomEIX1VNK8S94j5xP6tHsZJCXH0bcvlaeJX9dsUpXtZwV9fZt2Odtm3Tw5Swhe2fsDtKbeu64b7/7/L9Bu/KSBVvbtDCRhC0Z9J1X2Bqjvz1ABpiGF/CidfwVgYWoQvrzTjESe5VuidSul22waD8hxtqlrh/L1/pcjjRnluYXOj2XYbyqn3CEL4bUIyOaetXFVOtoc0T4Zw2gl0TYARggSRDB2xhjnHNrw3jw8H1ZVLZzCbNakDz46ONqIGUCHUlS22fgeoNOB4eb9jDYbV8xLldGaje8BOlAAZSl1UfbqrE13rBSGgM4ctr330loVwmkpggFOPqJJQu8q8EkbBWrVonsW7QUHQwfGyAwK4C8gFsO4hLkXGoSCB4ChOQTYkQGwdmo1kiQkhgCCite0/Wy/mUK68X5JWSZ/tG26Xb9et7vKXlclQDjLyrCt6GA95gDBeu+bZ+IoQNP31D6eJAjs5qjvq3dXYGov88te6ipZc+zHDx+xZxuAvSjbdrce/2s3T/gLY6JZWQ/4aF0mg1c2j836ecDC7SOmBOkYKYUqN6BUeg+kGTTb3gMYL8RGH5HTC7Zp8by5oh7Nhdojf9vcZ8nfimCJCNnolUj53H9v9ACkIQCMo01ACVDWbFwPWL8E7ETkS1Rl9cx6XqSdzmHjOq63Y1uzWQYO2mhHipirjiplGLAcYRiBV86MK3uqX4zopLXZywPOFu/K+wDCzLtgqiD7Jka+Q/yI8cq3keb7bu9l/aQXN6d3CXAaqcm4qd/5EGh1nSzO3uQvhnsSWAMgV+BL2rKKqDWb9Y7Egj3vymQG0KLaH+Cne+b74UzaF8Ai/i6IeNQ+HgN579pOK04qIZD3373oGBsuevwMNVmAbi1lqvwrYBGSE9sEwof73gvoo0DTZ1MWiUiSKIjcc4h3Y10Nn4ejfiFS6Nsi7ZOO2VAzP6jVPuio+S1KNdSDR1+PtvzevJn64rhNr20N41H1Su9ftKmURWOi2bgewHIR2XO4KWWKEUhRbozxcT0uMIAxQyMq0gScVKyM0EmSAikQ5flogajIWezftsOmd5XGC33XmoqI9L+L/lfKDrhjAZaSwkIv7j+swVcCVoAsmPSnneHe+NNZv3bwjQf9wN5VUS7Md2ldY1Z4DRpy9c1iMalWSHP8S5WO1hmGpNReiQUFGDwLUgj3m0ws56UhAUHnLG0Co8gsHBTcw+oCYKnMvTIFOAStPuDhtCG3mZOGNDcDBkjL+fLcBj7j8UJYPWz+braZB2yO5PFu8gFDwSaeZ7MRIVi72R0t81dSCfl6SNrIiXOEos1P/DOhehTWAlpxqUqf1ktVVyL1dvZ6TmWoVnF33GcJIxJADfwvZTZq0lhouTUbzwMOqRgdQMlIU7FW2unYVdREt7FfsAGj2S+R/llq2/Zq78+HM9XFnDmWaH+cWaLRaXakFJ4Y4EBBXOng98kpT9H3EXALP2rS+uCbVoOt5EnoN9nXNhvXA6qhOgNKT69N6xQLEFNslcIuaIzodFiVTPsphU42McEBrC7BgoNALBlGMpdWqYTG4nz1ZAAWkS5peHvzDDcZxFS/ETmw+O9KrvpUftavVFNpEOi5zbb3ALow4XVMi3WGlim14J5Zc6yxrtZ5bJz/L2ddWdd1ILlvqRRs36KrzpDNOo63yrdCfN+mWPnvKEHJvXflwCkaqc8SJoVQKkSzcTwgQi+dTxp3afFZ1QgFC5uN5wHFfDCwoo2wMp0gh44x7Ybd4fAJLRg1pktD2sK8k7riUHcQAyGk04KNlgKwItLiAb/YQVhX0UU5oqdEUG6/cHV0n/vbt0baywJXrjtDFltpf23T3w/ymRrLSJCkVCD2qDFjUfnWYQSvgGAYkWDxYevffgDLXlyK5P77OV6uoru/f0EC6+tBDGfpq0Dva+x5Fp2db+DQZVBSmuaa5vK5rE3gxW8W5wHpgrSB5r5AxHlos5ZtjB2GjwKxHJqlSEg7jBSq3ewOlv0rEVeb1gcckT7iIy9iIfrXwN2yz4MF8oP53Xh7gQ2AuQaA2PCXMCLuF8mVsUr0t/Q+bIael0upl75XTKG2fo7rdeunEu7RJgIsSjxmpPzkueLYKaMH39ofxQMOmy/L+osCJ0uyuQJYwCvMDxXxllAkhzTClLrCwItrZX+u0zNa0vM/5b1IpbOOOWO8bcqB5L69RwCp1V4FK0oa9aOOqNC+H8AS8JdSuD97RdYQsBkwepI992ofT3ZF1stBRiqKcPwq64gG1wWBVpC2OUd45ZNipTy2golf6hCw8yDE0kwb82fcWfbiyjVW6UGlwv1mgfYhsECj9M4VaB7Xa2VbA2L5eNO0sondays9MjRrB5I2P2XnRm/eIdoRmG8lhN1FiizYJSqEWaht0B2cmm3vgTNlIdW9wqTbt9qvBRvBMx/yne/XQrtqrwcwwkVuo5l02P1Aa1HgMUX46Ybcu03prDxgrQEyYKf4eyk2RwDLey8DBwsTs2MJJlhKLH0K40/MZMwbQEHby5abBWuMvZ50chIVUxrxdgGbk+VB0JmlOeWcepjtB7AEXi9xSLEyOmqC/QgZP72nQdld0hQPMkEeLLDVmFzzOx7QN3eo3yWn9NYIfaOTcfDY9O4Rhjb7Jmz0oa9So+aaVz6HSSDya5O8VyxUTr8FRepJs2k9YONq00rAe5Wq5uOLGQfcJcTbbFoPfDQz4aKF3QlZWrBLCKw7MGO++jaMeXiedqam693GSRnoqUzfUl2abe8BQQMb/miT1mB/+YYRO7KvUpEKoNpsfh4QMPFM/PVCvstzArCcW2neSb29yvwenSNH7JkCHpQ0pAR6kPaxNVZALOmLqfsSILeuIeQM0d4da9zeLQDq0/ac97HCPJdHZbkNAbCM9fzdH7jNXm01wvbAs8NsP1b15waL6qVS1pztaxm5e23Twhp9GtH6fNiwf5rFeQBAIsIrIqvyncOxCC0Bu2Z1eOD7XUThljkFSYRKpMqBdEjljTruZLmjeFOeF6nlUQasXFU+KxGlpO9lAxF5T1G+qqldgPNHuiIkZ5xwUAT5pYR+d8IxLKFrqaDvzIy26Puxcfb+jVkxisaM/ereNIro+2jtj+uBVZrMSxYg7j4XAAvYIrXN3lgV2SUF1a0JJEKcZ0sZ/yku8qCc2tUybEp5/vB+pKkDhABZJZ8FI7JHosu8YgZjhpFcQKL4tyNcMxTAcr59zb71bx2A9QeZTLMaxvtsvqXHEG2bszn8y48UXZVS2GwcD/iwEbGWGtUs3gP/kVN6vcgWaGW7o9Mj4u9qWT1g94j6i5wTd1fGvVk9HvAOqZRiAY4sfY6Nhx1ZIhUNs9gGQuXSZpt7ANMcwFkCdDxslIRN6T+8bvPbaL/M2q3ec2W2I833xN6STMWYRSKkIWNaRI8/0jet7WMOmM4dKnPPuULhXAAsWryYV84mcz+37n9/BMUESEua75CzBuCsgVclPX90X5hYqhPaZ45d+faongXmyaWsUvmsef59HdN5CIDlTKu6+0P27Z8fn+/3sPHRZpOptLLv2MgtpXqf8qMim6URy3oe+XFHIjJok32ucZttra3xAEE/DCz6Om1Bqe9x8b38Xt48lQAv6vNA/SPClHPglHrnABphWDyo1VIZos0z94eZ7XdUFCx6HHNv/1ldpZ/rT3wTNoQAEbqGS9l7lXapDbAUCwzY6ACPNA6VAl858k3uF6UdufnWXCEPeIcdMOkIv2jG6YRzALBo3jnA/uoC98YqWxK3LqHhuXo1fNd8R1t2TaGPxcBuVnp711mTvjew2SMvF1BRKZmeLLPfxM6z/zzK+gJYAv5SFAX/6VrtDSYqKHhUkBZorRDOyv5rSQCWm4JWQvGabecBwuHQUSjp0qIc23mm/bp5oHlgDh74+6yPQfgxyl7eiUhfKarxfe3SWrHAR7LKCt3KJN0AGoku18AmjkhJm8SpE3V6+pxi4cAXbR/PVcGA4mMaRuWj91RVGrPt1lZ5D1hv/k8+YM0RmK4ZwBLIpZkjG4RW09JM0BoLiiC9f4425zvfHwzyVVW36D7HaN97heXoj8CkYBBdUEDP6o9+Vmml/vbsOMPu/TMlA3uoH9wz7UVn8c8WCHoBsDCDMfOYdU8BMdq/R9l+AGvIfbrH1f72KB1z1YZVa/yxLQ3Agl5Luxp7szFkMuZ+rReekB8gsJV3nvtstvE3D+yuB96XI0lfCXLBFQOYGYcNVSSMHt7bg+5l6c2KNlvTaii2gLFBU6mlEQ5/6uxZgcYqNe0VgB3eUr9fiD7fv9+lg666Zj4UNPbDILdVfTF5gevtYwlUPeA9g6sVwHIeOW+W1sDAWFpWAiAGc0+RrDE19g577mQNYK5iAJdgj2/z/AOnvpFSUkTD39ZNezl/Azqk49MNA2hJuSMf5PlYVYf2bVXxzjrhz0lzFTt/yzASzOKD2nXU+AEzyZwBsSJtP4DFp57NdcSgTQEs4JV7wsgi6n5UoaIDASylG5e0iNKXIDrWbDMPeNHl819mYq2QzUbfftU80DzQPPATD4gm3WqNAOWm/rI5Isp92k0bGPg7RR5uM/A37fJjNrF0U1DXazgA2aQ9oNN/ePjMdXOmeLawB1RxvEeB/Qk2xJmD0jcEWm3Yaxdxd8BwiMH8lE4pfd6ZgcyB/+5ZdpBcGSaEQ+VKL8yB+Xj5f3oPAcj+OGQS4ldp+ZfzQXOK52nsPlWWvFmuMDl225Ht1QpgWVulNGFbRqcLR/r3sLadVa0FqlqWMN9NQIh3r0bz3VBo5d35HSINBLzy/fGd8X3Zxqz/7n0FaAGxyOQAR3yTrS81mu8s0XPaVNieUQYLwrYSYGHWQOLp6yo3bwpgYaNjHr61xx5d0QY+WNkPRbM+lFJSFnwp9jcppYsGap8sxU+H3QckVL5r7aj00ueh3V/zQPPA9h5wmJJaTv8owmw+IxgaB43VBk7EcM5iwRFzsK5Nwr82WNJQajH6aVfvns1/qGVAMxkHwMcmVhWjaAMwYXtFpIQBc4AdvxZ9EwPa9638cD4TOFCLjH8+g1YOUKt0nb1pO5rfGzXnK4fMlc8cGFegsfPG6t+BEf7YZ6rie7LsC2cRB0lVGudYIMW9vzQHGhy852I1Aljekbfk73YNgYcx5xJjCDBAg0rVuRJGp02f/FqbqegJzPPHPwPHgSfbAlbr7tM3SeU9PgFsSQOmOXW2CgFTvgD4XC3wmRFsACgJ+q6+7YJ/d1jjyE0ALEy6C2aGXZ95to/3vqzsCybvuXnC1k30XP6/KNENcnRrLmOuZZzEEd8/s7zoWnzXxtE80DxQpwek3UnZchgb25T0lpe/YhmM3f7+9myu9lZiie5v7u3b41y7Sxd4WsE56uMzIOQFMljQ5/p2zTEeEJwE/kUfaG2oRaGl90SZyk50aEpqsnjusKfIbEjH8e3yx75PClyfg0SUP/a2C9QC7l28O7RdLKVEwBtrC6jl/9Vs0sJoGmFYzqXoRm0AllSmp+fDes1zPWRs3j3sRVqMgCS6PyXeN++LohGAiVo0rzCt+AKDXbEdwYJSQN66OaOXhZEl1fISKaVfqoiZxW/eC2sHNuzY5t4x9DyfK3txSunGa+ZnP4BlLbn1ngCdNGDB3v1p/y/LbXsW1pmqw6QgVvYqCydkjZjkUkw0iD4CtBnK3ayfB3zYpNuICjdrHmgeaB5YigesAxZP69zY7CWHKinXv1nIWaqhXWUx0gzoAAAgAElEQVTG1a4KuenH3UhhAhKI3tVmmM73qm1QlY8HELkq8R051E91enOXCq5q7WAEXFfCPtKAVcB7jCoHRsyvD2TNnRIH6G3vzTnFwQfrTqVxYBaGxKkLAJmbjp1Gj6CJg/kcrCYASxoT3R1nuFpTutbNKeASY9rBHMtW2pd3D/iusEypsymGo/0C8Oo06wZd4P/73vgOval7j1+SGXardOMC3Q/uwrcZK0v6GhCmBvAcU9beQTXjsQFy31oyTDCU1bsnqw2A9YkjvLeuCqGAk+yuB+57p43fvtwezX0dZvAJgO/etfIBBmtSRGCWVG0ODdriYaFu1s8DotRP6h4mkY9mzQPNA80DS/KATROQaWwRTBtE4Ihoe4m0669lfcKjNhNLmrdt74W+jkMDdnFtRrTXuEpUnqrt3jcZj73J5wrptzwu62xJZYk0BXMEDoFZY5qDom+ElBP7e4Dc32UdqzH7Kd2WMwvdLOwsqYYO59gSNRws9/uC/6/QHf7o+NRutQBY1lBC+NbT2vXhVnPqXQNYmm+FxOwxsBu/nQ/lQCz/H2MmIh35qGeL8D0wgpbf1EbHCnuIILkz+lyKrcFGVL4V0KCjiTk9tQFEVSZ8YcBA6M0BpNwzA8Bi8Km6fZitA7D8TpomZhfS1F4Gtefi3p2WLIYV9upBhgnnXlfrJKLSJSwGFPmVaZQKsRTjBOg9auJRqvZLud9t78Mm30fOYluSzr7tuNvvmweaB5oH+njAxlEufwQTR4qLBfx0fQay5TUO1Bb7JbGmt3TJkT9XDhoFPjrlbJN78EyqZLlXmHSTdnblN9IHbHKjTSQYy0v6YPSBk/7KHbsbwhAdg22CYYqliakmLVC6oCh39H1Ez8lB7QM7CMJjZBGnvnShIMKQe6WHJauhdqZbLQAWhsVrZ1ABXdABQUIlWWwiwDpWlffPnxpYRafIDCdAxJTnOr76y24NVtFV0GauARuafcBzawN8Yeygw5DvimvJJdl7fnToD9dcT2dVUOVy+Tprh+8DrdfDmIN9ACzNAaWtTVfeNwaAr3sRZNlvnt2H5XVyRbQi9H85/wPFHh3Nxn7Kh3zkOfhR5OlaGQUfu+0ltWdjT+sB2LekapRLmqN2L80DzQPbe8DGUurJZ7Zv6lgt2MiILFqUS6yhf9EJnd4kH05HvpVFNWcu6IWtKurUeHPSTwEztR9wp/adw8PrcxQ8eixSfDD4sSlKGBCGpgnNkKHVwRwuaMcQPga4+Q45JO6i0Ue7T2ZI2MvWAFpj3WBKeM9rfsdrALDMGTJFTcU2vEdIEIBgTCrMIWCMb1FkNbht319AgcCNlNupDIiHjSZtzLfpMHbNVOPbpl/PqLRMf8NQpjJF+LB4AUBj2kNyyt8KMJKCftkjdGRVCrVmrszaeclcQXL/uDDYEGbsxfful1XYVml7v+0vwmPNE8C9jx/7c9WMig1dPMd02NhtQQpNLCCr2eEeQMsX1dyPiDafNQ80DzQPLM0Dz87gz9haWDQ7xmJRrPO5iJvNwvvWXbjj/19lMxspAEGtZuOJsj+HNKMpfag6nUOjjIFIc1h9So6wj/2NOGrc2FdkHADTZD3WVQoDhnhm6IJggWCtSMVYItNqyHxjtDnPSEPDyFrnxyFtb3Kt+ZDCjLWBpVOrTQ1gKYJCBwfYV4thLn48M63ekc+SYwMFEffqHG8vQoR8qtRaUgc0rh4ZVDwnwm9D2wS43jLrQ5ECmAIwBwoKWmDl01wby6Rlmz/ZWSvzftLsPGiN0f99c0VH1wOirWcHjUkwyv97xJ713FpLe2t/0RTPr5RD7L0VQ1l1V9/TV6/QL2KIKGAQsyUZhXs58s0O94AUBhH9KVHkNj/NA80DzQMlPCBqKqXjXSN3Jo3FQTL6gG3YNtY2+tbsmqP6I7t4cHP7yy4PbqDAD0T2bdBEMJsd7gEMpf0CsBH+wrIAImEvTGFnzPtwen10P/ZrkmJbAa7f2GnhvTNXsTxK/HaKe5i6T+ca6VN8qKLWGSYekLRvzDAp7CVB0SG3PSWAZb6wULEqatDg9Q0AltP8wbjCPpmLXtOq4qAqmFOkuAE3PphTvmhdRWsIDnnGI66VxiwAJYWZRlYJHdT990GjikC64OxYqauYV4gtql6vTMqi4ABAfr/53vrWqhqLAfz4DPgeNh5glLZoawFcvW8YbfsBL+wradirb7jny78DZ7+1ArAgh3fOG4SpIxZjPmTQSZVLxs4RHXOMU7dlEzQlzXTq+2/9Nw80D+yOByyoFlcL/pj6iKJKWBCXKeRKmwsATS2lpwvddu9ubMDenYWee/9oggttyJ6ZN2Rz1QaJdptDrSjz1aI7yikv9oxTvle+JQKK/tCvoUnCbO4JRQOwHaiXlJITMbX8eKp8MBLI9u9T2afz4Q57oEabEsBySPV+Sy0qkYJ/mP+Bi7R/FLPClhNcmBujkS+BAdjHU9hbusqtN89aRmPur6a4l759wk9oY3mHbtD3RyNf53nFOP3iiO2eNlfO3IsJAXRpZX/1gH6sV661Llmf1s2/77Hqgv4GdO6vqOi/vzXjE6vvgmDNKsD0X3s/FgRoidHVUGpzxDn4Ua4ltK5Fqo/r1cvnQ9eY/m5tNQ80DzQP1OwBZYGl4EkPGNNoLj6v0CbcBkLgYcwNy5i+mLot1ZcwsG0sa7cP5OeRnkWz43rAc45tiJ0UbdIk7hndSWu/qAek+mAH3GoDjbExByqtSypMjaDIVAAWJgZxaCn4U4BXDtlY2QppqJB2kIj0mM9AZFsnyMzMKTTEAP503rCJa2UZRvp+1TampeDoFHrSMqkwGccMhPluei9WWljel+fme5SyHmWeZSmGUgVX5rvpHqUa/gjP2f/BIOaOCrckk7NMfKyUIOdcfAcpleMKxGrWPNA80DywKx4QWSUYiXI9ZmDDpgUoVir6qaQz9k6zY3tARJRWg80kTZzazeZfkI3gfI2H2yn9JwrLN48qoOdi43/uzHKa8p5b3+N7wAHMwQdQcubxm+/VIgYdfbMa9e6mArCkHBFFP3EvD453ke8ssApwJegkqDVnRuOqGNvtx3NR75boXUn/xGw/rEpd78ZmfqH9huCoIMgpC4Oy9rJY+QqyjbWvlYZK3oCe+ErjyxxjKgLkI0AsuluAM0VN9lbmVfUTk1bBkh/ZfgDr5Dl/dQ5Ry77POVrag3OlxbY5/InX0A1fMFGedN+5a9c1DzQPNA9EeOBZGcQaO1XIRk4UsoRhTJdKWSxxP2P1YQMkJYUGzhRR/U3uw+bf4XrpmiFDfVMyfdD7JNjZ9olDZ2k+1wNMVNjC0JzCHpPLwU/R91F9TgFgCaITey4tYaIy5Au79Fx7gPeMzFiZYl6tccBZa0hpDTEABn1C4tsCg82OSf1WFM1esIQm6l6fA2UJpANkxzCg1QWzfp/gzsqAWK/Mwu2fGqOj3AbQD15DLmBv8R3VLOllKabwYztoc4cuJnq5JPORlDf5Y+RuSTe3wb0QmvNyqaAwpS7ABkNvP2keaB5oHtjaAzZetG4OyuXfpnGLvMpgK8r1Nm2t+y09L5oX9FWa/cQDDqlSzmg4zMVoWBCD/fpcBlxonCQtRF5PWKA/h0BsjGbL9YAzz7lyuXaVtkqbjBDB49q+2VMAWHfMaUIlq7cRZNcvsNohfAlg9Zm6ogWkcgCBJQM2gi0YMXSvxhIPL/0+RvXnjK0oHsHxkgXSMK+w8jGxxgIUYQR0r+iu7l2H9QUwwzaTzbXtM3C5DJRZ8/eK4X873w+m5rF0tQ562G36VGhaCUdGTXDJdqn03yw/TEv4YG3rOyWpUQD3Iqrbttl+3zzQPNA8MCcPoHr7Do5pKNcW2lIVfdG4VWdrdowHbHxs3lS0mVtwBk3/VW0ij+WBO+VS7NFuoSWHlSMdptnyPYBV4Nv/a4VvVUYIHayHjZjmM8YtlAawFCcg0Kx6WbQ586mgJuPEYXtJVTulWN03s3dLrncCLfZPKi83O9wD18gpfSrtlTKabsgpNEDHxDtU735iTvfdix35ptm3PDxX7PR+9UnH9byS3VBhkKQHDdn9kg/uRUVNaZHHAcgOArBWubQ2gSXR3OjJfWpK6fdmVA41yh8eGsJojyyMDEfdT2u3eaB5oHlgEw+o1jO2BqAy1kQ8HVJKbCgJf1+sW9ukRTQ7JkIoNeSKM3SGtBYb3mbHeMD781eFKkk+JVfiVj2p2W54AGOFvsuvFr5dGSHSYbCxarGSAJYqf4TbnceiNQodeqVTSd3EhlmawPhFc8BM2nwpk8lEK1ugrg9QUWpcNfbj+VaV8X6FC8q8otPau3GuXDumX7BHBUxVDN2fZYCR9+aU0tuz5rjvG90/TDDvneDi8bIfEKR8d7HOL3GAlBHgzd4W0E+4/UBNr4MAKv8NlQslsQQ6PqZzj2oLYmyjL5dyl80GX7UI+iDNmgeaB5oHdtUDDqsiwaI8Y5pF3sFICfdos0GQ+tQiocd4+iyZQV5aC2SMeabHZvw1HWzHuK9N28CSeee+dIJN2zrqdyLGKtRhaIwlfhsxztbm+B6wDxbcLnnWkb4OwKqJbVkSwHLAleItEyTSvMuYG09IKdHpOVb6UWTHhdqmIUaEXsp8KbNGYbFhLzawv5/X7UUAfrRR94qS9/v1ZldhRSl+MnaRH+m+9igITioeHnQ/3jNZb9/IbEfPCaATgOWZhUGcJOuDHZQ+DAh7cQad33fU7R/GsCopnLnZ9Gz2KygogbBdNnn/qLvRkY9d9nG79+aB5oF5eCBC90Y01Ab9Nwq4QIRZhTZCqs1SunemnM/VF6pIPW6ugx953Pxw25HbPKi59+ZotQqizXbLA1gEGBIi/dgBJQy7QMV3ZxEHzRqsFIBlncKslBYUyVDGSKZ1pbLrUivjTaEh5pk1d0tjskW/gyfIjDXkoFImLR7YNHZhGLgRIEqg9hEdIeaMI96Q4B2AFFsS8HVkCuRRKYLXy/mOHL8UE2lHW9vVdAvzLb3C3C7NbATkuYumrkp7Qnnl2Mo/boDd+hkXsfKx8+HwN3aHjyD24sqvruFTf1Qrlb/swC712AbwfwVvTNbfxbKvAFig5K7myLNujkQ7/Pdv5XLzohwCEai6RBG9A+bI/Ph7Senh28z4s1NKN9imgUN+S5vKQiylMNremPUodp25I8L3ga7C1NkCHe77Fyk6rCqWiPqup2ZYWxRDOF3gXGrafAKblexuh7JgZ1faPN1CKWaqd0WCKntv33cK+2ts9u+mLi4FYDnwum8H6wjzPhPIv2tmJy2NdbXymX038fRSzEH7TimDAn7NNvPAiXMVPaL7pUy6HzmLKGYxBhY2qXRFazW8aEgBI++ns6W0VAVUsCV7i88fdYhx4EFPlOu4JBPR46RdNIKV71+Y9hWEVgUn9H95v/JmV1EtLxeheuK4tEWkC0UePub4TK0ELj/aieh9IvtPJPozGRRZ9+HzDfHRgsKriHbOrqTu2fMhUgnZBpRs/1TYPAAnPpb/eMb9s4o6KN3rzMEemGuOzI8qTObKPImk7LLZ7PpGjB2lulAW0bRpiTYAs03Ea6M7qrx9mjZSzqLMM/LJXL0yqg8AtBLctJ922azXT8uBkkg/2DxLtbB/aLa7HlCRFltnTDbBUd60pl82Z0PU4PVSABbgLrJ4lO8/UXNpiuv2rjX4fZMxCEACJaRxlQiQ8aMg2Y3ymWCTMbffHOOBS+VqfqWAR1UCZQJEVz2FF9Fjs+8F0Lk/Zw5BdOQRZ3EBImdza659joIpzpnvzu+r/zZIdH7d4fL6mbGzpIdPSWbUt+8s6aZ63gvgTqRxSSa3XQUDlTMPo2N7eaROPrQDZelqNDvGA1/tQIwXdeV3iYo6mH1phCg0gNDHy0fMx/qaBaLoS55PgLONNTbCClTc9n5tgLCyAFhXzRHRJTFth/hHBByt+8NDftTjWt8cASACldEmiiU93iFkl1kkT89AXpS/AYSE1umDRtkPc4qGNI1dNRteabFSu6IZMYJfNt02z8121wPOQg7o2Hil7LFZF6dUf0f1UwrAckBdd+7c1B90c4BXS08F9r3ynJZi8ghsOzcuGRTc9Jkb+jtrm8q6nlP78Gizn5AeLfXzOFX8Ajr3bgOzZOVgth4/g6zuG6vceATdZUvZe1t3Nwaa131IUMFE+ktFJQL8eZwmoX82RpTtd8kcWH2ATrmgm3Zwg/o63K9Dbj3rKI58cLIF+WCTWwHeOoShzX87UIfBR8tHTElX0aI5Citv4t8xfiNicq+uSsebMqU2YvHxTlhEAVmoxoD96APjGL4Zsw3p5NaDCAbGzbJA8JjjPawt6QRYK8Qzd9GwPa0Dpw68+atlBrOI4ckD+8EkvskOgyoOZg5oDmrR9uh8oIjup7VfvwcwlV+SGfslRivtX4p/DVYKwIq4V3t/6UeqGtaSkhlxn9rEmMe+cq8lskmwju/TgRLA1qWmY0bN1WHt2js4f5XQSDUGVTgx9GE5i7J1AJablduIyu3jvgRbfezQxnvnWs78xs2zDx4UdkkpQ4/Mpa+HTA/GCUZLCertkHGVuNbzTmPFgkS4dh3oN9aYPH+Ybw/JTLglPYNj+WjVjnQwVUJtKEtuxnzffyeDZhh0S/ner5sfESGCugC8sY1OHFZjCXYb5pV37INj38RM2ovW7KQzd+G8Z3hisI6k1GDvomDLrpm1whptg0/HL9IEBc6X0+Yj+2ltz8cDKuMpchT97K08IgAre2BqmyuA5R3Gir1zTkma2o/R/dNw9nyWAj5f3kmLXCswyB3tr1rbv2IO0pSQmJCZpAIihvqiQMg+ABYqmHKvcsSXYtLObBAd5nfBMI48vKUQ3xI+lT8rRc1cDjGMIGKElxzyo5lfC6jC6HlK/jO23k9f9zjIo8+KBpyq74925Dr0WgdWIqevn3ChsYHH/LLAEnxfunk3sD2wsCIWdyXaMbFKGIBYFb5dM0xPFet8V6IYhL6dDkk2g/YOItJRQLxDmb4AZRHMy5qfDz6VPingFm2YdHTTmjUPrDygEI2ABlmKEgyXWr7ZcwWwsFVVbv3CjjzC1h3ZDCXss1legY5Ss3E9IEBsr+/ZLWE0zACRCnMtxvoAWNIIHTptKoaoy9fsJIdFmiEYPLugGULEHIBFVG0pRs9LSd6hYAzmlepgqoTtgskvBtRimEgzmvpA5LB5lex/RQWaHfMMPyOzrrAvpjRrAsDbwmqjFHVIn/Ie9/ctyohpLC9/bLtYFkAtsXZiCUm/wirbJVPRCggZVXAGc/VWXQXj52a9hvPn/hRCiDKpTAC5XdPqlAoKwAekRxv/ltQ8ir6f1v72HrD+EVeXdVIiyCbtGYgaETwZ4o05AlivzPuUXQFYSPnInMDsjjZ7UoGaXZPaifbr3vaRg7DpSmiZ/aCr0PzbWe+45D2G9tUHwDIANGsLfWR56tAbPaBxHwIsg6WLd9K4EVFyGO0736XnYmh/2Fc3zVW3NkmDu2G3OfnTwGj90PuJvF51waunlERTNhbLG3mAWBIO9nQLHFh22YANj88BgpoOq0TIgbx334HJwXwDYEVshAUNAGQlikf4FgpWvHoH5mzvLfq+2Z8QDI0whV88Hx/Jjevnzzvhf5pYUUar87y5wm5UHzW2q6CC4gfR7BcFTKSESvFt1jyw1wOY4gK+/6eAW+xl7YUUE5jS5gZgqdKKUbJL7++Tc8XUEs/JM/OZkUZoszgP+MbQX41e79yBfSgQazHWF9DAWiH4LBUiiqI/hVNt9qVHLtlO26XLvW1B4u0OaS/NKT8EyDcxHw0HniWnSPHTh3JJ9i9v4qQCv7lM/nirWrGLhv3pOcR2qpUJqnKn/HmA1lLNewKgiNCPwjiU1udPiU0K/TQAfS1gdfQzgyEoDeeOQR35jj47HxxEMVcmIOTdiKwkJI0QS3yXDBPV8xttAli+a7uigxrtz6W1j53nzBO9RxS00hfG5ZQ2FwBrJYch5X+XNAKxdLB1sHaiDZMb+0rGRrNYDzj72LNdvgDBBMsTa3yo7E6sB7ZovS+ApQvlwNEJS4iObXFLg37qBUUXnpq+O2jQAy++a7fJfvjA39R8uRKcDvwi4Jva0gEsi/z7c1no2ksKO6w4pNEm2yXzzfEMO3jXfIgSjTY/1++YnMCYJRp2og3bO4NujvYgoLLE5hNYffEgNlmQe7ZqlpitSp1n3qqVw3982HojbZGuRKSYrm845t6S9yd7PY+t+JkCRQ++nzWOnrVDQG/Q67HYZqXRC/yeIfgOMbAVV/qD4H7WNT8XAIuGjz0T9v7UchjrfDrW/0caIXsiCBYdSCSv86Ssg+o72SzWA+YWk5C2WYkzkGyPUhpqsZ4biPh5cXw06NcsxbysACwL1RJN9OjDnb4OFtZSDEsCc2ebcvFLB7BEUCzyBC5rP/xgUNCjo7O3VIDkoHfvtZlFWCs7bjVmQQ5aZTRBlip4LI0DgEV7J8JoqQCwFJ2INmCod18KzC4YcNB3Lqpq5ldyqtn+91R/L8oM1yg/O6B555TB3gW7ZT48Rd/rB/L7jnnZrHngMA88OrP0Ij0k2Ih1iFHkPDKVzQXAAuIIqCmmsSt26ix5UmL/ILWatE77NpZ7ugTBMIJLFFkTrEVGMs+ztyEMLDdLk+F9s7/rY98A6m6klsWU7kJNVo566DxPOeZ1fdvkqgi1jS0ZwJKKproF/aJa09L2z93p8gGfFsQuGK0lG1bMkU003Er7SOrbNTsGEQ2GEgKipe+PeDsA62VBHfOfNDeV1aLF3Fcpb56vXdjkPz9HMIOm7keHS8/GQe+pyKn+I21REdMjHOUdURUwWivOPNJ3ucUOFjuIfE6X2Pa5Os0YYGe0CZxIYf96dEdHtD8HAEsG0A1mtK8dazqvnPfHJaQ26CXfpzFTx5q6Xu04nysSI1NKFdRIwyhXYRX7ePa2CbBBYLMEUljKud/M91NioSp1T/rxIsgRP0/JToP7cvDHBtkWmFkygIVxRwj374PnYuzmga0inlFCzGOPd9P2RFndp0jilBHXoePHOCE2uUSwH2sJSPHCoU4ZcL3oqQ14CZo4lqoD0dKjqCfMkcSoSpl0xOx13nDIPOsXQyvyYEHcWRGdmgo8DHjse1/qHumRRldKXtQGvrd324WbeoBezK9u+uOev5Mq7Hut4M5UVjOABXS2r71SSql2xvrY87cqwkU2JdqchaXiS9NsVtYDpJlIWER/a7xLwCsBztlXq94EwLIRF6mOFjcs9fgAQ/6o6wxjZUk51aoN0Nj5hVKODO7HYQJyjAWyrS0VwPIsXzentmzro9K/B1wR5y9Bky59b3v7o/GieMSnpxzEhn3b3LyrE7cFHCzJSpSMthElwnr+Ao5zSMdUlfI/B4bfpi7BohljPTisf4fXc6wJmDwupXTbTW+gx+9UIwTuv7jHtXO9xD70XjnyH63xAhCkEbeIFIq5TviMxo2Rco/g8ZJ8AGBZH6aymgEswVhp8X85A0mMsefvlFlrsQSwcbfuXO85aDaNB/j/YQW6fm8O2H6sQF+hXWwCYAFE0OrRGpdikE+bRIfLJRj2lQoqFsWlVI0UgZGbLeK9rS0VwHp1x7q46ggMtW39u+nvMcdet+mPZ/I7YpwWqbkCC9JTpcItyYDjvpXRtGp+478SJs1aFbulCrFKxXxzt7m/aKAz799VjnzQmvZpVCkGE5UaSsPQXDrAzYmxOWRaRJ9ptgH2N9mTDukL4HnrGX9/h9xru3Z7D/zvDCxFVpAtwQBe54laASzfPPpAd+90UoH5u2bXyfuS6HOcYA228Rd2zcEV3a918JPBjG63+73uHH3TnHEw13PIj6Ztk82C36hIZVMVRd0v/UxZQG6WU2RmPaHZcRfIOdMqJS3BzMl9M1Nu2/RB/lgigOUQLrIcVUmtxHNkkX5HB2JdqERnE/Sh8ABBb4yfuZpI4F8viNm5mgcphNtUNu0zn5hr3+j0sH6qz8VbXvP5DO5Mqauy5S0c+XNMtlcGppzZE0hrW1dy2qYTIz3ym+Wb6PnEHlqiWbcUOShRbMZzszQd1yU+E7Xc08m7Evfv6QBWTJgos7/FmFUoZarzR60AloD1JbszJ/HpXTQ6qSWyElTBVA1z9mllM39IShSO4CLvu+JZP5izvzYBsNyv0rIiZksSXX5uFlKDTs7ZaNUokyktMhq1L+UnhwgbeBuJMWyJABa9s6t36SzfHsNBE7Zhnn1bNv02TTj0tV3bIFg05mxE3BWG8A4tyUoAWPxFR4wgfgnDklahb2m2SjkT1IiqXKpK6PV66IHon54d4duob9a3csTUXE51wI16huxRMKIeVWC/Qhvu3FE30tpdpAcEHTBzsf8jjYSJdMUxArSbjLNGAAv7yrfBfmMXDWhK9zf6HEdXzP4HWNZsWg+cMxczITkRaSobYzzbW8zWNt1weaGkwti4RWsWlHIudsSlFyB8e6Ksl4H6vASTQoFCfKcR02GWBmBhX9kASU2bagM01rOmZLBqVCcbq8FK2sHo8E46RM3ZAOSixVLhSjCJSvmqFIDlIKTybVTK2V5/vbyrokULcWlmjbMmEPWNMFqYdG8e2zNtz5waT6QA+UM7gOyBC6wsCSAgSRE1l3ufD4fhJ0U8MK3NxXpAlsnvF0ib91zedcQ97tAJqRHAAtgrGrMkbeIh82INAmpGmoAIBrEMpLkHvyP9VKptBWFol5JTiTRZIFjjpHlma5sCWG74jBmxjaTWlnYs+h6gZM5mM/2iwMh0ad+oiCESLiI+li0NwCJyScONBtbcjcYeBtbSqt29LTPkAOVzt0vkdDtg41KsFID1KykllXxF2qLNJuVMI+kGRo91SPuAYClnpx/yowHX0gGhiead7WNS34xHKlyULSJieoBzVBXGrI4uNiOV1nOz1DTMqOdu19ulfaVYxBMCGZZ8rAIuXZqpdJ5qA7C8r4IvBJFMEIkAACAASURBVKd30QS4pI5fMPjm7RGQURQjWRq7N9h1Ic2bdxUnkRGimXd3KajJGuKsbQAsv5WmRih2KaZ6k83onA+ZRLCj0duS862E+RVGjsIsDcCiSeQA/omSExPUlw+4D+tDgtqfqtlF5Jxn550mH9gBWUuxUgAWxjJhcNH2EnaHzCQq0VeJPmzqVKOVchYlrPyq/D3tS683DsEvDJ+oTScm8oW7tRCQtSQrwTLgr2fn52buEhFLmvu53IvCOABq6fNRNnWAqzYAy9mS3MK/RTm88nbPmwPSkaxeLmjAfn0Pgn217419dqSpekpfbra2DYDlpqX5fDz4w17auXQ1UIbnaOfqohYfmOPADxkz6jBG2etHvqelAVgYdxhYS9mcXyN/wFXTXIJJ60TRpqWxhCgX3R8suesGR6VLzn0pAMs90aayQUEXj7a/zVTxuacWr/yEqcN3VwlyHD8Bz6XrDTF6Es/sqv9KiYuyp2Y2SFT7pduVjiyl+qzBHTsE3yrPj3T7Zs0DQzxQ4kDpPbh8B4J/c8jARry2JgDr0zmAQEpiV+22mYUTrYXk7LA0PdO5PzOy2uxxSBpFmr0OgHQq1ufW97YtgGUAj1xA2t1eR2KxqPqgWtScTOTXQ3+DOQ16zViVJ79MF4kZe9O5JAALyEerZUlMyJJVqUq8Ll/LG7KxgdgSYz+sD1VrsIhKaDmVuM+SAJbUN9/qEjqFdC0wCOZcnXTv/KusK7UiCvzDugJGDWU6Aa7e1Yn0nznwYbUnUQUUU3wJdtE8l9H3QufD+w3MbdY8MNQD0r1VqBUgjjJi3RfJjJioPo5qtxYAy34WUG9vMedqzdvMIZY2TbQbBrKMV+OjPaiab7N6POAs//CcSijIE2nSdGmlztLGALBEzxzMliK6TGyZDtbcKl9YXH2IlP1dginnKso+pvbVyi9LArBWOexArKXY2fMBH416CfaRfIB6/xJuJt/DzXPwYiksuZIAFtDPBkWUNXqD4ju6EgBfAvsPUO+wFWWAPkGTTcqJ8/PdowaW271WSukvgvso1Tzhe+9dpAl+rSpM29s1ax4Y6oHTZQArMuAAOD/PhHqFtQBY/ICh/FdDJ2lB158h738B/JH2layRuatAYaRvt23bOg/IPcG2Da35/WNSSncM7iOs+TEALAcYHz+VqZZgNvmqRBFU/KcZ3dD9uwp091pQZTAlXa8dVBljSQAW+qdnlQjoUow4OIbKrPOz90wGZoaD2meWMkGZ1eMAGi2+XMplJQEs9yQ1WkppZMrZyndE46UYz41VfNDcA4PPFvhQSDV78obtY0d9asPf9v0ZTcglaFyeNKVEuzG6EATQygZdynOz5oFNPKDwhv2IFL8ok+aq4MaXojpY024tAJaKpNaqsbMuJnLrRt1KHfO8RRdIW1pK+kbOrvRH5h6IG00MwkqeLVFgDADL/P9GfuF+udKHYeiw0Hlv0lUVksI2ByP2huIcWQWppB9+0Anp3y7fE/HasW1JAJaCA9dMKb15bCdN2J68bM/zb044hjG7xiIEkCwBQFj5RXQQ0H+iMR01YVulAaz/lTco0fo/XKqqnvsj2jlnU5EpMjIvEg1Q2aacuPFFVo7yDaHJEw2URT8n18+V3aIjzACBi3XP/xejb6i1v1gP+FYDFKK1ghSQ8q2ewmoAsIB4vp1SfnfVFAQB4EkhjGRnAwgF0SIyXHZ17sa+b4UdrF2RRsRf6jLMY3Y2FoB14pTSU3LK11htTulMLzeNF382SSUoOXYfPKLXTwzUBSl5P/qKrqq3JAAL5Voes1LkS7Hj5w3j1RdyQ3LMbzwzRuc6158vpaRaW3SVnHXjGOv/lwawjBtr9gFj3cAR7dAVkdqmVPZ/FOgvqovH50pyUe0/J6UEWNnGFGsQ2Y6y7+e5fEJUBwXa/dn8LPomRlVtXN0GliMtmWbNA5t6QMq3gJqiJZGGgUXAfAqrAcCSGi11apeNaLsiIqoHRxpg/0IpJfqszer0wL0LFJT7x/xde12dLjh6VGOBTdq5URaTdvhcghFzp4VR+wvO3/SP+H+s+Zxy/gCGSugqNR912FoSgPX3+Tn96JSTNnLfpSKeIw/70OakdwJIlqTB8muZoboU1u0UAJaIu3VGVcdoe3UGZ+aUFr/XJ9J4RCTPGOQoTF8R6W03cgT6icwbb4SROHDQu8WMqwdhHQIEgODRhikqhbtZ88A2HsDAArhG2q/n4G1kH4e1PTWAhX0lNdq3c5ftl/L3XSGxSFN9UJbRbCvQRTqnkrZ9D6KJCVjngLJHV3LPg4YxJuDx890HSNlTVYKWYDaKQCERvJrNhvm9hbRUSvgBIHPZlBKtkyhbEoAlpYRW1CejnDVBuw3AmsDpA7tsANZAhx1wufX3FRk42b61o1vA3FHo47PRHQW1L00as8k+I8KkrdC42TbNV0qc9I9ItoZgBcD1fRGOKNAmZi0Ay3c+0uwhPPO7rKcT6d9daluGA9BYxkOUEYmfqlrs1AAWzVvsK5IYu2yKcPmuRwcG6SWb8yiSwC7P4Vj3jp0s4BhJCrI2+raR7JmdjQlguXkCqKjtY7c7lWNVDbtwJ47+71MNoEe/JSof9RjGaJcQhhYZiLQGYEV6d/u2G4C1vQ+jW2gA1jge9i16foFUKqMVaZOeMDf7qS5Ao1qO9LyIlDPBKu3zz7YVmVYaJvZBxh1h2AoO04Jrc6ssKUVGBc7bRDhmX5t3Da5YWeAWinXhvfqZzAbFCF398Qwr1IFRqOCElHEHKms0MHkFQnruSYnsfz9JHOw9JGPYrzTm/O3fsUD8AV6s/lnas323367+uHb130o/9yUAnl0FsMz13XJasX/eZbtAARbeP+cACBZWs7o9gBEeXbSFlq2A2OzYeGMDTRYz6LFc7qXYb2Wtlxrvx4ZB5DgarS917z6saJMfD+6wAVjBDt6y+QZgbenAAj9vANY4TlZlRrEQFeyi7WMppXPPMOrqWZPCY22IMFFOQZOXjgQIGafxGneUqdYlamrNnJNhGKikeObgQQNOpA9OpSkUfHtbNU/Tyd5RJUjAlH8GTJ0i/zf/3b/7A7yKFJM+6EaAGJ5r76U/30kp0Wr5Zgd8mldAl3/3//zz6r/5TRSw1QCsrR65I3/8uZyeORX7LO7Ohrfsm04SJtJkawAsIguiRI5/l9p+YMcgvl/wDUvblR79+eB+Rm9+bADLAKNFTEd3wpoG35hSukKlm/47LyzCqNS15ydqE7Ka6gZglX6LhvXXAKxh/pri6gZgjeN1jJSHdayE247T3JGtoIuL8kv1n5NdJaWEmYsBEmE28jZwY1X2w0z5ky4NXqpcxB6LD76cqwf5e0521azxEg2K0B286RyjygGTydenyumUZ8syH4Kev5j/AKl8h6Ke1bFviV6dlGiA1Yqx5W9AlmqTQMvVn7E0/xqANfYs/qS9l+XKe0DJXbdnppRuEOwEFcutd3NbO4LdUmXzCnQJrEXabCUJIhYsER2lOc8R6fGCbaM5AzwIyNZktDZoX5WI3Je47+/lqhjR7Cv30gCsEjO6eR8NwNrcd6V+2QCs8TxN3wl4H60JZMS0h0Rf52Iq1qkGfMegAzZQj7YWANHBeCy7Ux638UeYIM91OibTCyIaD2yTAL2qyZGGwUPOAui5q/pXUgAx0ARfaYqeunseMa+AWf5E7P0j57RP294J77D5X/1RHl5Va6A9psEX+jR0wDUNwNrQcWt+Jh1awSZSKNGB65g7GLdVun1A5kh7bt4D1CyNE3n/c2q7RKEfhersCV8/J8cYa8QiJmee9oDy4NFRthL+thDSs3BPNQneKQ2trHikwFsJ/+rDwiXyUCologFYpWZ2s34agLWZ30r+qgFY43mbLwFLFxyvyUNbUj77/Dkdp0B3W3eBKfKazB7ZurEDGsDcoCc1NhDkEGJDGFWN0K0QPgZOzOXgJzXN8xelDbaaXkEwG/K/iXhgKmzTPhuLCqNKZUeMRYVdTlThWKce0tdzZS/VvTAv/fuKyUVj6zBrAFbMzEkLvdIOvatHeRHArFJ15PfRGVaVd3qPzer3gP3D21NKZwgcKt1P66Xg0qwsAsDigBIaECUdTcwd5RLVrgaToqDSkaodkVVRSt0rlptDBDG5EpvxBmCVmtnN+mkA1mZ+K/mrBmCN521siUellG4eJFK+d6SYrr61hOPnYARMXxUYDJNqhKki/WhMI2b9yu6Q/BtjNrqvLRF0WlJz0a7AovOcR5r9AzDyljuQPmgfeM4MSF8kFxwCEjbr5wHsPCmH9vW0ZKUQ02PyPvke7GVkNgCrn0+HXoUdd/Es5j/0t0u7/qwFzpgAMt9hjO9m9XvglzKwdKngoWIsY6LPirEcBWDJp390zmuOqBoUPJfHaR5CefscJR8zzWDT+7hYFok93aYNVPY7Kae/m6NhJYbWAKwSXt68jwZgbe67Ur9sANa4nqaXZFPpUBppNihSq6TMHcU4iBzDkLajNUGwmKNKSF+vi5w+e8jNbnDtPXP6zQY/LfoTqZSKFUSzDGkjYcsL8C3R7NmlA2JZXSYXTFqlBy7xfkveEyYWRpaUGmAWBt+7UkqfzTqFdwgE0t3nLlYhvH9OISw5z7X2dbWUUnRlQEUPSBbQwWpWvwdkWD0upXSj4KESi1ehelZppVEAFl9bXEXC0JqXYK/ID9FYopCb+gS9VMlZeeOR87fp+Ib+DjhoE+4lLcG+Mr4GYA2dpbLXNwCrrL836a0BWJt47fDfSAFSwff04zZ7YGtSZ1DGVSOq2QTCpJgcL3CQqjJ+MKj9n8kHYnMbZSpLnncGYCSGEDHa6LQ2AARG3VxYaUOei1OmlO6eiwPYV0s5WsIecIgPSl0L6HeYA/IDsLBkzxKc8bCLAJZUa9+wZscA7w8PdsSSv4/BrpukeXsIIO89gnt/YsYVBIBmY5GLn7x81H8pAEswYoMWGIeMKU3Z9Vdn6viU4xirbykclyjIvjLuBmCNNXsx7TQAK8avY7baAKwxvXlMW7Qp7jJ+s8dpURBGtdcXFwwabHJbUiqfsskPe/5G2pAUrEhDy+frKFO5S0SdHlatRuZgtQmP1Hdx/4Km167VERuMCyNTahHA+fod286BptkyPbBrAJZ0zUhtn7k9JVijUp8jTRED3xPEgWb1e0AG2226CsyPCR4qYX9phCQmZmORABYnyNskwBq9aSnl8GdkLaxS/R3UD92r5xTQSil1j5BlZeRLWgOwSnp7eF8NwBrus9K/aADW+B4/eydoS28RsyLaaBERcv1BdEcbts8HUssjtR+kUSrQEmnS/Ym5Y3BEGJaIqD2AqFb9CkL8ihRcPsIB+9rUx+yqKR3gF6w9TDKpgkSuT1LAd62LaT2wawCWb69vcLNjPICY8JvBzpAWG53GHXwLO9c8KQLrZ2RRPHst/QiIzcaiASwOJ2RaYuNSwuly5M+TKcUl+tvfh0im6ikXmKLzgD6/kqtLycsuaQ3AKunt4X01AGu4z0r/ogFY43vc9502BVHbaMM+wo7+++iONmzfOmtDHyVKLTXRgREDONJOnJnoKj9GGcCGhuRXozrYsl0g5J912mun2rKddT+XEislFFt+ribifuEcDcdMj6xiOVcfLXXcuwZg/XZ3nnr5Uidzg/tSTAA7KtJe2KVsXiOyg9b26B7wngCwIqUI4Ar6GbuYzejO2NtgNIClL5txm/IlVMtzP6h8qjhMYUpmQ0qX4ssp2FfmrQFYUzy9/ftsAFZ/X011ZQOwYjx/g5QS4fJow9a5QkrpddEdbdg+rZ8HBKZMKRktRfG7G46v78+kfN0v6zz2/c3Q6wBXqiS/cegPC1wviEn8Wnps9H7zXh3T7Q8L3FNUFzTfHpxTTum+LWWfF+WvpbW7SwAWpgew+UtLm8QN70eRCwB8NMiPsTsrnaMN/bmkn2GjWw8i10/P3iW7FNZvzMlxkQ5Z+eGEKSX5lZHlpEv6/Mvdpv9CE0Q7PcQ0S36r5M0G9iUX24KNhVXaGoBV2uPD+msA1jB/TXF1A7BivE7jEM3/5DHNH6tVQFl0dZtNbsOeAWNHRDDC/iODKvSpSlQVtmaLoCqJHWGKnwD8pIX+Z0QHW7RJbNz+L5qFT7sDyy2aUbeFKw796QlyqiwphV+N6KC1OQsP7BKA9Y6Ukqp7357FzMQPUpo1feUS63783bQe5uYBRU+krBP5n42VALBQoglQ2lw5mM7diN+J9D22sAAu0OxlnWaHlIS5m0ODiKzSnVPQ/RuAVfcT1ACsuufH6BqAFTNHnn0sXylh0UbM3YG5tkOEinUAnyiB309lxpJqjCVMZUn3Y4MYZW/I4uW1aVicK6XksBq997M3wkL7TpSDg9qVMkQ89zoLqtgd5KrFN7tLANYsq54FPoFL208Fuqo1HeABMj7W6ikIJRvfTgkAy+BskkVU5fbP3UQ7VVeUflAKrUTDf2gnsHb7QgK/0XME7b1JV33wrdEdHdJ+A7AmcnzPbhuA1dNRE162tA2XIAuQYWqTNkRM0wY/+tDvXq1jT5v6pvf0L+B1ixzwiij+Yv1+SbdRu2nHwgLglTDsaQEb1YSihFj/JaUE+KNtVpMRl5cKGmkYdXdKKT25EKNujHvxntOiuVtKSfGGEoUbxhh3ayPOA7sCYPkGO8uouleCARs3Y+O1TNeYXvQSCArjeaW1VMoDDcA6wtMWa2wbi3XEprTUJK/6IXzrwKPCYgk7cwYAl1A9wuL1/HxwsumewhqANYXX+/fZAKz+vprqygZgxXn+HPl7T8g82t6ZU7mj++nb/s+nlJ6eUrp63x8MvE7VRdUXH12YQX3VTt/kT4OFWGlt0VCqyWjcnDJ4QPQ77MdKMeq2vR1aV/Q/aYNJH2zWPMADuwJgCRx4X7Emmx3jAexcgZUTNYc0D0zgAefy03UsZtI+s7FSDCwOQZUG+ERvZko5/5Gd3sR9CpQhB/5dP0fkCbnN3VD8pcf4WE9lDcCayvP9+m0AVj8/TXlVA7DivE/QVXSaoHu0kLNqfPSJPhh3O4Naljb414HpVERKlSovfb8qCLmvSI0jqZHAT0K9NdhlOlaY1MZIs/GmDXqzgoy6be7H/veeeQ/009s01H67OA/sCoBFpw6A9e7FzeDmN0Qj+jmB697mI2u/3BUPnLYBWIdPNbDsCTnffwkPhDQ4VQH9HWki0iK3BA+XYCL+ql/984Q30wCsCZ3fo+sGYPVw0sSXNAArdgJWQYvjx3bzIw1CaV5S3IABU9vtsr5k1DhU8SWqPkXqCh/fJerGcruX6io/vyW4jz7N2+89uxNVv26fi7e4ZqVJSjeudjtvftc8fyWDx7X7pY3vGA/sCoD1rgxgfaZN/I89cJXMuhboaNY8MIUHGoC1xusoah9YCG1aGXK6C8TcI01lHeWxl0I1lxoiYjqlNQBrSu+v77sBWOt9NPUVDcCKnQFVid7T6XKdJrabH4FW2LAYLDUIgNsfEBONMsCgSPcU5r7eH8yqo+OG3TC1eW5pXJ46eCAYdcp/SyOs2S7Wadr9ca6UWPM429im88CuAFivyAUXalhvppvtY/fcAKxaZmJ3x9EArB5zj4V16x7XzeES+g5AuchoLmFSorZLMGkb5wv2Vx8/NQCrj5emu6YBWNP5vm/PDcDq66nNrsPQIOR+y81+PuhXtaR0nDuXEo9Km5S+Dhj84SDvjHex+5I2E6llaU9CEJhO55SmSAudsehCBC/N7PQa2IMH+dt7TN/mKbly69yZV/wMePCc/V1O2wQiEgH2XqloihV3mClicLL8P7FLT5hSogn2S1nAWqD2VDmVatdSLHcBwPL8yCgRMKn1nZ3iu9kArCm83vpcecDeiPzAl+fkkikWUwcfmzgL1xKMTgmqfISdvCuvTNdiCdpXKgXdMAu4R/hqSJsNwBrirfLXNgCrvM+H9tgArKEeG379hVJK7+iEuVXmi7T/zILSDtmRwZij7sFe5FF5HFH36v5KAIJHjV/w7vGBKWRS81U7fFaUE3u0+zMdSPHUrN0Zucd0AP7tlBJGR612zi7I+cx8OKh1jHvHBXz6XpZ4cKgBbn8kM9ykfH0xpfT9QjdC0FpVtpNmUMt+GKOPjhggGvBFL3Dvn6gqnyVueRcALPp8KqpLW2/2Ew80AKs9DVN64BMpJfIDghGzscjNxWFOcDglgK6M9RT9jz05wDgiuBEV9Xzo7z72gCdqj59sNkXoprYGYE09A0f33wCsuufH6BqAFT9HGDt/0x3QaedE21/kyrDfje7okPYdVmmjRImcY4cQFafBOKWdsUt5e1vHyPmVoEGQNsBwoCVG32wKA9r8WVdlDKMu0uiPnn0N4yey/3VtSxkFmmLE1Wqel6/nQOlnU0oOMoKmK7BK4LFGw87yzfAeYXSdIv+zf/cH6OW/n6RAAGAs/+wCgAX8pAMos6TZTzzQAKz2NEzpgefl4J7gxWxsCgBJn1fOC7tFZu6mJCxdjVePfCOiTG/q9DpseOduoi53yyL+ov1TWwOwpp6Bo/tvAFbd82N0DcAqM0e37dJrHlegq2+llDC+Plegr4O6uGoGXqJEbOmJCaC4zylNURbspGsGDgLoSQfr44F9HNa0/d118j1GM8cfnFK63wT32KdL38c/6aowXqTPxRNcI5AISH19fk6+2gHYX5swvXYsF2Bj/WKXvuo74m+piWfJVdCBnQDyWlMTdwHAwuq7cQduv2ysCV9IOw3AWshEzvA2nM/vmNfsqRj4G7ltCgDLQNGCReiuuNGo6/qRCBbh1FuNXL5aqsHDF5I+SPvKhrp06fLDnpQGYNX1Du0fTQOw6p6fBmCVmx8pM+/Na2Z0r1g70ttKmxRJ/d48UOD8QSmlh1RwQMeqo/9CCzQqNRQb3Hr7wtITmTWvpIJi2EfaDzIzEWOoNgOcmF8gZZSe26b3jFllfgAItKwcXuxhl2zSCr1r/gZwARUvnquIn62iG98FAEsAAYHhryryew1DaQBWDbOwm2OQIg5U/tu53f5UABY/ESZ/xEIAmo/mB0CFoTEMNfrp+UM/RntTtoFx5XCCgVULHb0BWFM+Eev7bgDWeh9NfUVjYJWZAaLG0pCuXaA7LCWHqNJRuDPkIFAUW8WhyQZtbJb0plPy6zmA5x2KMgLq954gvU4qF2aP4jaR9pouze16WUQ8sp+hbWP33DmldJ8Mlgz9/djXe5fpmni37SnfMMH7PfY9jdkehtYlstA+BqqUQ+wt390ogPmw8e8CgCVdVVED6b/NfuKBBmC1p2EKD5BW+KMu0CLAV8v5vLcfpgSwiDC+bkbilkc5VRTrrrlq1BgpcjS1bDaIVs7dvtkxr3ycbaBqsQZg1TITB4+jAVh1z4/RNQCrzBw5RAFfpBFiD0SatYtezwciO9nXtj2I1D7pVg6TEfbWzEj6QkTjG7SJofO0lJK0yag9mKjq5SYQZb1GSukFgffF3TbatEG9E2PstzaYwkN/8hsZjJ1aHoPAPU0re+wXZcbLVJpoY/o3sq2fSimdKaVEw026oTXOv2PBKkwQbbsAYKlydtZcJCDan3Nq37eaDpG1oVnzQCkPCARhvn+lVIdj9hO1eeo7RikLj+17ceXXvSWlZPOmnPA25pDywBzFq41+vsl9PTcfwGpCdxuAtclMlvtNA7DK+XrTnhqAtannhv/ufJmxUyLdRYEVDJJS5mBovRMAitiPWHfsMe5REdjhPu/UpTT9fiAo6b4BgzaoJe1VXeGBKwR3SKdNiqQKnTUZ3VKaUpHMuj73KzVQZWwH4g9PwMLrM8bar5FuKBNCEPm0XSXGq2fAOVI/axcALKAqUHDpaatDn2+stJfkZ27ob9v1zQObeEBBG+uod3KWFrFhHOIIm1dlei38czcfZFWOAFnbmAoqqjFZNJdgKvF8qLIbaQBWZROybzgNwKp7foyuAVjl5khQAyNXGmH0mm0zo3pcRFXdgzxGD1NqH5AuwhRZkWpWGshZdy/nyGBHJFPnObnAzLqxjPX/Hfa/WCD1in6Tjbe5rcUEGzGdsM2ntI+llOinYrzXFDSc0ifb9u2be7XMEo0qMmGMuwBgqUYelSq+7TxP+XuVhq2DUlibNQ9Ee8B+6Ca5Am10X2HtR2+G+wyc+j0trCWwjV6eozTbRBdogy2lxOxfBldb6vN8HXRNA7A29VyZ3zUAq4yft+mlAVjbeG/4b9G8rZPejUhTJQo48NLITva0TUz5zYHrvwP9hVNKtZWHtt95Y6cXdclAP7tn6U/mtITR3MIqizRpcPfPBW4i+xnStrkELj8paycN+e0Y10oXJNWAdcU33x+j0dbGsTxQQqNoFwAs4PPUIG+Nj7bqmLQDSes0ax6I8AC9qy91wefnp5QeM0K2WMQYB7VZA4BF9BPt+syDRl7nxTZXhCA3rbYn0q4EdolUkWgP/nNOJUBTrM0agFXbjBx7PA3Aqnt+jK4BWGXniCg2du+pgrulKaSCmpS+EgyOp+aqfFG39eAuXeV+UY1v2e4NOrHzZ27ZxrqfAz7pbUXb8TMQGcWkW42fIDmNUKlxtRi2PB9fqgBDcv89E2lXPEjF6leMXAm7Fv/WMI4GYI0zC8/IkiLjtLacVgBX7yuge0yvuWnhLee5OepOrA3O4d9OKf1d1jZ9ZV47BT1mbzUAWHLK79lVRrlvYBS25ERt84G+VtYtqGFetvUZOj2K4ne3bSjg9w3ACnDqiE02AGtEZwY11QCsIMce0iyWx7O6lPvrFuiWthAWFq2hSDth1l+IEq4FwJ2lYo0H6Ug2lpFpSaL6pA2ixc4vncXbo4T4V8+h1AfaXiXA1T7PPq0kIKFKTj/X5wcjX0Ok3f6ZaH/0HI889Fk11wCscaZLdVT6f82O7QEFBMjpYMxGmiDYQyI7aG1X4wGZYD/I7HMMXfrc22SHVXNjq4HUApSg+P9ZSgmNcu6mTOxlO0F3Ut9mbgAAIABJREFUqQtD7H92Eby3p5SU2J670U+5Wd7Q1oj0NgCr7iesAVh1z4/RNQCr/Bwp976txmKfUdvoqHwoWhdpN+y0HgV8okxqIvCmxjVodc/kAsgGRNnfdxXoVMbblBXed1x/mMX/7WMi7ZpdFTPSBLUYDTOpoFOw5qUM3rKlDBZ5FBqANY6bpcHfZZymFteK6r80gyNNRd7ItPXIsbe2mweO5YFaAKzj5ZLIN1oACws9U9rCQweinUAvualR0ehSj77Dgo8k9pXoco3WAKwaZ+UnY2oAVt3zY3QNwCo/R/+90xT8eKFAz4NypJZuQoQBOmhGAlciTKTxd4MBsjHG7TBBQgGTJ8LsR1R5fFggkKcIjwAkFlakSR+UrldTCsxt89418r73t+3+7RXvUKG2W0k/lOyrAVjjeBv7Cgur2XE9UKKC62eyXI/0smbNA7P2QC0AFicqvSyiJK1g7vamvHkmmNbHaF/9caaiR21k+4xjjGtQFm2YUeprpSs2AGuMmY5rowFYcb4dq+UGYI3lyWHt3COlhO0SbX/daetcKaX0raCOzpmBm6iqS9Zeosh91+Cg21zbrPt/ba78uPbiDS4QUCKcLKD0jxv8vs9PLtdps/1pAf0We4q79RlQoWvsVWmWnqFQf7qROgm8us8Mnu2CbgnvqgFY47i4AViH+/Hx3Xp7m3HcfGgrX80VfwUDmjUPzNoDNQFY9ANstFD+527KO980pfSSnlFPZctFMG3q524ODFJdamVf8W8DsOp+yhqAVff8GF0DsKaZI8VO3lUg0IN5ZS2OKsLxe7lineBNhFlPb9+lq0hnr9l+JleOA0xG2aeyptl7Ajqg3ULwX9AKQzDKVNa7WErpb6M62KDdW3Vl75+4we+2+Ql2O326L2zTSPvtYA80AGuwyw78QQOwDvcj3zxyHDcf2oqA1G9l4D24q9Z880CsB2oCsNypdAIinUuwP8lihes20MR56UU9LqUUrR9Rwq/KaKv6VLPuSAOwSjwJm/fRAKzNfVfqlw3AKuXpY/dD8PvPs5B19AiUWr5jQCfuAWPnqgFtaxL4Zk3F6K55HVrdvsMxf0Sxz6WL3C6l9JQAVjTRdppU0boqWO2K3NBnq8EEXFUNK1k9m56ZYCed1WZlPdAArHH83QCsw/145UziGMfTB7eiqJaiE38R2Ulru3mghAdqA7DcMyFz1P+5m82GiKHKEkcZzavn5tLQc79nKQrETGvfYDUAq+4nrQFYdc+P0TUAa5o5wnKxAQUuRQc8gAWqImG/jGkKlQDhzjRmo3va+nBmqdTE1jnqVqWgYYxdNMgfmnVg8dyMXRX4PJkRiEkWZQA4lfZo59RSfVB6rQIEUaDjfl9i9V87p91G+bm1e7gHGoA1ztPRAKzD/Wg9/OQ4bj60Ffp5D8iaiMFdteabB2I9UCOABYV+QSeCHrkhivXqT1r3oUCtP8pELon3RaVSlLpX/SjPeu+SHW7YVwOwNnRcoZ81AKuQo7fopgFYWzhvy59eKANAJar2Yr2MGa0FwGFHASN+eks/HPRzuovPy9XZ1rGfA7rfqElpeFJHVJSLSsOjeQIg+9xGIzz8R8Tho3WpyBKoilmiAmcf95gvely3DhTf3zsOjEIM/ft3vv7XPgNs14zugQZgjePSBmAd7kdnXiSAyLOg9VF2kG9XE3If55lurUzkgRoBLJR0IpVL0MLCREIxPyrq+cKU0tUnmv8xu/1KnjN6G7VbA7DqnqEGYNU9P0bXAKzp5ujn8ybUuhG9hr8ipeTwNlZBDmN/aldN8ZpB7sMWo6+ljznZ1XIaIf9EmFRKFfPG1GwCQH62exZPETHgPW2+OgNYUQUFhg7/jJkxd5GhP9zwekLxKmp+bMPft59t74EGYG3vQy00AOtoP76/q86L1Rppr8wM5W9HdtLabh6I9kD05neT8dOEslg/oWP0iHTN3WiISPc4yGyEPhEYdS3pOxFCQrRziBA2AKvkkzG8rwZgDfdZ6V80AKu0x4/dn3UF4zUyWqtHQZhL53VqjDsGdnywY5QIVEWY8QIWai4ictB9A6745TQRTsltqiwpfXMsk0b38rEaO6QdKS8PzpU3a9Ezo9UqBfakwfeueVWdaYo+YiZ6bgVcMkkXDcAax+0NwDraj1LJsU0jjXafQhAfjeyktd08EO2BGgEs93zWHI28QLQDCrRPj4MW1n4WFqBO2VSVbOZuX8sfxNfP5EYagFX3RDUAq+75MboGYE07R5i9b0gpnTx4GAISd89r1RhdSZN70hgNHdLGi2fMaBYEwpKKNM/NGDorUh2llmKORRotUVWzHLpqsP+RWSQPLzQYAc5Ldemlrex9IYcf0k0DsMbxfwOwjvbjbUZcaw/rSZAHgPW6caa0tdI8MI0HagWwiNPSj7rLAlhYgKtbZF2vvbNMv0RlnWj6ffSTJbXkJVm/Yy6U1AZgRT8V27XfAKzt/Ffi1w3AKuHlw/sAIABraEZGGtYLTUpr2Pe27EjQ5t1dpeELbtnOUT+/YkpJytkcTYW59wYzsmk3jaFZdfqu8uDbCgCob+x8Yk7/vZIJXaXv2kOUsDuklB5boqPWx5EeaADWOA9IA7CO9iOG7LtSStbKKKN9dftclbbpYEV5ubUb7oFaASw3fvYcYS5B0450NIBHlUHI+t4DgE0kgfe5i9W7J/emZPlcrAFYdc9UA7Dqnh+jawDW9HNUIoXLXdLekdawLQvmXCklej5R1RM/n6vgSruaowElpfmdN3DwGD0XTil9Z8s+MMeBYcfbsp11P79RSumZ6y4q+P9/pUupfUdKCYAXbV/Nz/O2cxU9zl1ovwFY48xyA7CO9iNCgzXgZOO4+9BWnpa1IudS6CTYHa35OXqgZgDL2FRLoIc1dyN0irL5znwj0j7kOl927jeWDzeqYv3zjO6lAVh1T1YDsOqeH6NrANb0cyRKK307OsiD/XLzDCRso0P0x906cedAt82lCu5RLlAdiv5nlP1TV4nwBrny8aZ9/FyWeFChMtKM9ZcrYl+5VyDs3xYonqAvaYrSd5tN74EGYI0zBw3AOtqPv5gZz9FFzD6QUqLl981xprW10jxQ3gM1A1i8caaUkqoM0VG+aM9jYd0rl8r+z5TSb+cqSSeO7ji4fYcZJdGfHtzP2M03AGtsj47bXgOwxvVnRGsNwIrw6vA2CVzfZ/jPBv/iGSml220RqJB6JT1O4ZIIU33wf3drq435nO102U8OMhFm/0FrCwPcP29iGGICcFjykQbIi9YEGzr+Eho1xvTDzJQDljWb3gO03uxzfyFwKL5fqyB3YDcHNi24IF2VxlukNQDraO8qymJNjwz0GIGglHTFua+Xkc9qa7tyD9QOYHEfquNNK/djn+FJnaBXgrKJer8E8XapJfRMHB7mZA3Aqnu2GoBV9/wYXQOw6pgjjJC3d1XKjh88nC9ngOiLG/YjaKNyW9QBkJ4kRtA/bDi+Wn4G6HNQvnrggGhXSQn9wgZ9YP3dMLPEMLGiTPEADHWaaTWZZ1haY7RJI5Ii/K3ojlr7vTyAtQhQjfzONgCr11Qs+iLfV98XhU5+OvhO750rGQd305pvHojxwBwALMKmNqcnjHFBsVb/I6V03Uw/d+CIrh5V4sakd4rEzs0agFX3jDUAq+75MboGYNUxR5g6z8npAJEjwrYFXGyidUjb6ZFduoL0uIgI/16Gs3V2zsZX0jUfE6gVprIfSYPXbOAoB3ii4tGl3ulMYb3UVhgGYwFoHG3mH2sfkNdseg+U0HxrANb081zDCC6Rz1WnCR7MR7pCMOcI7qM13zwQ5oE5AFilNkxhTt7TsOoSNo2/X6Kz4D4+lA9Ncyzv3ACs4Idjy+YbgLWlAwv8vAFYBZzcowuAkIpCUkCi13OBl4v3GNP+S06bN+Sb/LZPd9hhABmBriXYRbO/zhB0M8BIaSo0w6SqDTGBN2L+tKkiDXjjma4NkFQgILrwjspgqn7+aUppG825yPnZtbY9j/cNnvsGYO3aU3Xw/UojRwy4WLA7fFvOl0kVwV215psHxvdA9IZ3jBEb41VzKmGULsQY4+zbBmHSubPJaGfcr6NTP6IygdW+c9AArL6emua6BmBN4/chvTYAa4i3Yq8FDNnwAooizcEaqDIk9cz6LRVKWtyJggb3upTSTTo9RlXblmD2OQrYEI6O2qNJzZPWOZThdP2uAt+zgp38lQxIvjG4n6HNn6ob16YptEP6wpDDcHvtkB+1a0M9gHWIQYohGWUNwIry7LzaVaX3yfkbGPX9X3nkUVlvqwHl83pG2mgDN0djO1dJUVpYvzmjMY/tg5raU4rbBouu1xytAVh1z1oDsOqeH6NrAFY9c6QYCIAIUBRtAhfYO32NjgeReXobEZtxYrSqtd2/C6pIJVyKEVl/YCDjA5NIqsrQNfytG7LwhswL4IY8wdeH/KjAtfz1lgL9SO3BKFTAqNn0HsC4o30WXXWzAVjTz3UtI8DARBCILmD2qfw9B5o3ax6YlQciNpQRDiBsJwf9YQVe6IjxL6lNUXjRYdVEbILnaA3AqnvWGoBV9/wYXQOw6pkj6zjA4wGBgMfqbh2uL5yLkfTxAHDtlSmlC/S5eINrMIgInktvXJLR/gTknCTwpkTff29A+ypImv9IcWEpjQ9NKT2oQkDyOiml5w7w16aX0v8CYH1u0wba70b1gLRZANZlRm31uI01ACvYwTNq/mwpJQzUkwaP+Xv5bF3iuxZ8K635XfPAXAAs84JWLyIVLWy3a8/A0PtV5ekahSKRQ8fW9/oGYPX11DTXNQBrGr8P6bUBWEO8FX/tebK+YiTg4S7+MTMR+qZ3qVL7niD2lfF8MKV0/o7lJa19SWZvplqgQ22UAf9oWQlK9bE/yMLifa7d9BpjUq3ZM1Ob3aGrovnoAoN6dWa4twqEBZzdows6QVK0gQqR1gCsSO/Oq23f/3fmYFHkyKUOAq9uNmNCQqR/WtsVe2BOABY33j1H5yp26eKHJiosVWXOB4YGYNX9mDYAq+75MboGYNU1R1jKb+iYSJcKHhZRbakN0gL7AB+PTyndJnBMd81i34FdTNY0XS9s50izlmPIrTPf5L9KKZ113YVb/n/AFfHiGvcXUjql0EbbX2YG1vejO2rt9/LAFTOAhU0aaQ3AivTu/NouBZiThJGy7fverHlgNh6YG4BlAaHZ0FhY0zxiDi+Xnzn7iucagDXN89O31wZg9fXUdNc1AGs63x/W83VTSs8pMCzV/qQ4qf53lP18SunTgWlwDvieQ6LfS7RfSinRKPF3lL0wM+rW6YfRH/VsRReguWVK6SlRN7tlu6oi3nnLNvr8/NmZgdUHIO7TXrtmcw+o8nrbDNoLEkRaA7AivTu/tk+RUvpkAdkc5zoaknMtyjW/mW0jHsUDcwOw3PRduhf6j0a5+9bIUA8sgX3lnhuANXTmy17fAKyy/t6ktwZgbeK12N+cIKX0mUDAaDV61f4AWBhfRxnR4+cH3jLwRTr7ku0ZKaUbBt4g8A9rz3NzmDm4E8rHCHCgjzIVmk/f9ePvGq0UgEVvyfvVbHoP+KY+IaWk+ma0NQAr2sPzax8b03kl2qTiIyd8M7qj1n7zwFgemCOARVCRyGV0yfCxfLyUdkRoUfvftYAbagBW3ZPYAKy658foGoBV5xwR5r5j8NDoZkghFEgSvT3M3tzpOF0ycCx9098ChxDe9MW7aoEq/0XZv2Qhd1WeDzN7LRpAxhJpxnDzyA62bPt5HSPi2lu20efnDcDq46Uy16iA/u7u+T91ge4agFXAyTPrAvOVJl60WdPpYKlm3Kx5YBYemCOApaStzfM9unLe/30WXl7GILGvpKjUGh0d4uUGYA3xVvlrG4BV3udDe2wA1lCPlbmeaDrAwzoZaW/J7CdFPQ6yM3cBDwAWkfAIk1p3iZTSNyIar6hNovyvSymdK2hMDi5SA5Vt/9dD+rhCPthEzaVu/z0zACLBum1diE2IVRhtDcCK9nD/9q+SUnpJ/8u3urIBWFu5b5E/VoUQ0/nsBe7uCykl1W+/U6Cv1kXzwNYemCOA5aYxgSzyjYW19SPQqwFRWlF9Pl+CLkMDsHpN+2QXNQBrMtf37rgBWL1dVfRCekkvzmtkZMfWBOvwBw7p5PYppT/sUs9+LmgQ0nrudgToEtRt8WZ/NqX0oKy9FLVf+1BOWTtoLn86pXTPbt2/bzeOSA0gAsKqD9ZceQ87gdhxtKkKJoUQqNdsWg+8PBctKjGKBmCV8PK8+hCIUjgCYSPq+7/XI9aaB3SaWAIbzZoHqvZAiRciwgHHz3np1wveVEWMfY5tShu0oTpKJ2NO99UArLpnqwFYdc+P0TUAq845+qmUksp8Dy6w4QVQ3esAN/xCSkk62NWDxiBCjDFEH2TpG217NCwQ/owScyeGz5+Ak/3+PFFKySH+QsGPu4PTQzqw7IfB/WzTPJHj39umgZ6/fWkWcf9uz+vbZTEesMa9PxCE3z/qBmDFzOOcW/X9v2yuRnvKAjfyxZTSVY8ITBUYQuuieaCfB+YKYLk7mzq6DDbLzeI8IApI60QEdimHhQZgxT0vY7TcAKwxvBjbRgOwYv27TeuXzmtj9Ib3ax2wQpNyv50/93/WbW7iiN++NwdUPhbUfm3Nnin7MxJEenIukAPM2mtSUt8ZLN4uDVSAjExBzVZKxF3KEH8oltBsOg88vmME3qZg9w3AKujsGXUlcCH75bcKjFmGzVNzxk1jgBZweOticw/MGcBCrbTQX3Tz22+/7OGBL6WUrthVwvhoj2vnckkDsOqeqQZg1T0/RtcArHrniPDwn2ZNoehRqlz0+j2dSDOTZuXwJ/1sbFNMxL0pbV8zW2fM+8aqe3QWOI/S/fy7LNL+5X0Df2xK6XZj3swBbb0xPzP7+w7udnDz0niwDqMNQHvjlNLHoztq7R/qAdUw6bGdoqCPGoBV0Nkz6wqQ+rCOTHC8AuPGwrpV1l603jZrHqjSA3MGsDiUZgKBxUhthionruCgaI3YwC6FfcV1DcAq+ABt0FUDsDZwWuGfNACrsMMHdGc9vH/WzQB+RBpha8U9VuuDsvNP7NLNpfdH2PcyK+LZEY1X3OY1chrhzweN0fxZF+mnrUxfWG4HsezGGsaK4U3npfbDkipd2AnR9vnMwHp7dEet/QM98D/yt/PeBYph7B1AA7DaA3mYBwCpAkWKo0SbtUAa801TSv8Y3Vlrv3lgUw/MHcAS4VXp6MKbOqD97kgPqEp0tpSS6OySrAFYdc9mA7Dqnh+jawBW3XN0kbwJpWEUaaK1F+8O3P5mp8ll538lqFOVkn69ixD/fVD7tTarGuG7U0qYIVHm0EL/ZGUq7gEoI00VS1ppb4vsZKS2fyOl9JqR2jqqGWmcGFgvLNBX6+K4HrDnJdh/gcLOaQBWYYfPqDtn9bsXYoByy7/l4h2Yv82aB6r0wNwBLE69UhYZrdLBMx+UNJDo9IEpXNQArCm83r/PBmD199VUVzYAayrP9+vX2v6e7sBNwyjS/rmL0qo4SKODidoSHI8yB0t97KJFp/NhQGFb0aRiwBqgTaR9MKVEM+0/IzsZqW2abqWkFDDSpAw1HZqRJq9nM/8z6/9IFY1K1z1sKA3A6jlJO3qZir4CRdFBqZV7peifO6X0iR31d7vtyj2wBADLy4z27uPfbDwPiIxeouCGbbyRr2+pAVjrfTTlFQ3AmtL7/fpuAFY/P015FR0L6XyRJt3gOVmfyYb3TXndiOgTwHKxriqTqri7aJhnBNUjD9Z3Tik9MqV0ljyXvxzsaODn44L7GKt5uqtSWIEc0faKjvl+o5TSP0V31No/lgeAlHx/2gn80gCsCZw+sy4RCh4VvAbsdQk9PqzcVlCirgeFNIT1SBaafdcPUkr/UdcQ40ezBABLvvotc6U8E9psew84lPxJLhn9L9s3V10LDcCqbkqONaAGYNU9P0bXAKz650jaGSFoVYwiTal5VdOsG/45SneLHtO5ZsLWifC3vY4DBR9EGdaeKpY37+bxISklUf8o+24GylSznIt9ugNsz1hgsFJkFSj6bIG+WhfHeMD54Zmd7hu9uSmsAVhTeH1efUrNB7Cet9CwgSOCYA9uYHohjx/dDQkBgSxaaCfuirv8Qp6Xb6WUPpdS+kDe8+0EmLUEAMt0y1mXwlDqpa7iSQ4cxDdTSrfo6KMvW5h4+8plDcAKfHhGaLoBWCM4MbiJBmAFO3ik5lXsAy5FmiAHwOMcWfw4qq+7pJQeEdX4TNq9U2ZIRQ332ymlm3Sb4RtkbarIPSLm3vWjbiSo3Rd0B4RrBrW9t1lgsMpjTyrQV+viGA/8XgdiPbQQw+4gnzcAqz2J6zwgiOFs9vDg4MLecVgT6G8Bd+eQ6r3Oh3P8/zLNMOp/u5uH03UsPAVW9havs16Qc/hSF4B6R0rpMV1xHcGWJRVfO868RW5OSj4kJtILfYeUkhe82XYeeFU+9EB1l2gNwKp7VhuAVff8GF0DsOqfIyMk5i7tLNqAEVLOoyrWAckwj0QZd9lsXv82b2Aj/EBzSRroqVJK0qkijfj/3CrtATlKgaifLFR1LHKO59I2VoMiBiedcMANwJrQ+TPq2hqAsFFSNgcjlB4izcJmZT2AoPOUrGfaRz4AaIXVrBDIG8sOtWxvSwGweE3FEAtQVPWjsjMzXW8q4Ih0P3m6IYT33ACscBdv1UEDsLZyX5EfNwCriJu37gTN/NUppfNt3dLRDQA+aANF7SmwgW3IvhN8H7U3L2UAq25vtcCxx7yKskcGA4Fwv5lSwvaek6l4DXTrc5AY475E3F8+RkOtjUM9cOq837184Perj/sbgNXHS+0aHsDG+aPuz/EKugOgrmIsUfdFM3sK+vSorhBzaH4+IafaDx2WSpKY8X+Zq0oO/X3110dtNqe4cRsKG7sbTtH5gvr8SFe9ykL+9QXd0/5baQBW3ZPbAKy658foGoBV/xwZIZHPe3fU//tMfDjbxlv0HARVaHHsegoDUOnW+fASpTW2zVz1+a3Dj1StB81wYy1AqohAKZHvt3Ssh6tk8fg+vm3XDPPA8busjd/PB72pNXQbgDVs7nb56l/MwMSlCjtBeprUZufEZnEesG+7Vv42nXKLbqR/kh14/hL3TksCsMwxyjsRsxJVYrZ4pqr+qYf90VWPcPvBNQBrex9GttAArEjvjtN2A7DG8WOJVq6QgztTpsdsc5+ErLGvdrX64H7fSQv9s0Ji4tvM22G/xbq6accKfOUMI/m0R56emQgRvtnfJl2T22b9mRL97VoftH0A/ICsqa0BWFPPwLz6v2DH0HlzQS0s3hFAel2nt6Ra7afm5a7ZjNb5B0goXV0hnm1sVVjnZktM/1wagGWi5QYrP9xsuAdoXtEwWXoFgwZgDX82Sv6iAVglvb1ZXw3A2sxvU/xKigzA45JTdD5Cn6ouEaL/hxHaWkITqkqazyvN9GawisznF2c4fgy42xfUweIimmT89eUZ+qvmIQPFgZF7xZCnHG8DsKb0/vz6dn6/b8esfmDhoQNFgFjX676F/1i476V397NdUOf+nVTCHTN7foz7NV/3yzrhpB4WY0sEsM6fhctOsJhZKnMj/y+naTyqTHeT9tIArEndv7bzBmCtddHkFzQAa/Ip6D0AB7Q/zFTyubGT6TjYoEs5a/YTD9wrH16mTnsaOici+Cok3a3bVNtzzNFILAAQS+mt/iCzhB6/A8HFEs+D9Bx7QNoyGHW1WAOwapmJ+YwDq/rFHaB0oQkkAhT7whRS+a5pYm33zNijnSanDEodHBtUJ75Pc/Ib2w2zrl8vEcACXCk9fN26XF39aAj0qTIxx6joUOc2AGuox8pe3wCssv7epLcGYG3itel+c5muotkLUkq0M+Zk0s2kQL5/ToMuMNbzZnH+bVMMCgz1WF2I2F+7q475htIdj9jfFIxG1Tdv0OmTvmfE+9jFpujGef4wV85QmQMagFXZhMxgOLSfFXp4XErpZBOMFzuUvubfzDggMYHbjtWlIJT9mVRm1VAjTOAIA79EReqI8R/Y5hIBLMglgAKINbfNerGJ39eRSOiDc5T+h1MNomC/DcAq6OwNumoA1gZOK/yTBmAVdviW3f1cSokA63m2bKf0z5WBvmJKaVHU9xGc6CD++pTSxUdoq2QTH+rGrZLfv5bsdOS+pBES/qZRUpLR+N4M5hLmbbaZB26R02mmOOyvG3EDsNZ5qP3/gzxAv+0hXeEtz3bJ75Gx/N+sO33PrMc1V1btVE+WlEEsNn8ERiIxGYVwHjHVjUb0G+msiPH2bfMUmeIN1Wy23gOiezQWHHB2wRqAVfcsNwCr7vkxugZg1T9H+0d416yDMKeRE/umU9PsuB7gm6fNzDFSB5V/n7tdIqX0wo75QI+spNGewbjYhUDjmH4V2JaKLPV27PScscbZAKyxPLl77UhnftuEhT0wa2lPK8zRrJ8HZIs9JwclSnyTpO7T1lqMLRXAMkGq6f1BSgnC2exwD0DMn50r3ah4swvWAKy6Z7kBWHXPj9E1AKv+Odo/wl/u0pAEK7Cx5mDfSSmdttt0+bvZcT0APPlCSsn3cg6GdfWrKaWvzmGwa8aIhSUNEpBV0gBXtJswwP6pZMcz7csZRxl61QZvMqIwcoQ7GoAV4dXdafPSKaW/mDDzCBvrQSmlP+nYYF9vuliHPni/0KWC01H0DS+ZxtwArBl9C9DxRKvONKMxTzFUm6Ab7hhy3gCsKZ60/n02AKu/r6a6sgFYU3l+u36xRq6+XRPFfq2iMGZws8M98KyU0vVn4qAXZXmHmQx37TAxoQgol4ie7x0MQBeIpbDBv6wd5W5fcNGUEuapAyPx9pqtAVg1z848xnaHTNw43kTDVcH+1V1xBMXA3tXpY9FeavYTD5wvpYQ57Qxamr2rkA8G6mJsyQws90ZcDiLc7HCDGOkDAAAgAElEQVQPKGmtHPf3d8hJDcCqe7IbgFX3/BhdA7Dqn6ODRqgSDZp/6UP3UG/Z+Ioov33oD3fsejIJAnW1zyem92+llF6zoPkhvsv3F5vgnr6X00dpzzg0Nju2B4BVt8zaMqefwfth9A3Aak/xth5QVROwfbNO15jA+xSGiYUZjIn16JSSSsK7bvS4b51Sul5mXWHwljZ9P7d0p5H9LRnA4jfpg8pGyjVtdrAHHGheu2POaQBW3RPeAKy658foGoBV/xwdNEJphFKfzlb58D+Qq+KqQtjscA/MZT4/2kXkL7u0Mt65spNCA1MAiErXY7WJ6H+3vSQ/9gANXDprmKalRa23mYYGYG3jvfbblQekpf1ZSgn7cEoTtPhg/j5Zz3fRrAsCHNL37LmmWCf4HVP3nF221eeXNAlLB7DMlXK5xBt34V6HPptKn6oIBDHfJWsAVt2z3QCsuufH6BqAVf8cHTRCQR3aCzQia10THcwf3g3+AS16u/Yhm8t8SinBiP/B2jua1wX0TBwWpRNO8T7Zu2G1eVccFndtL7d6Wvj+JBlQtOc/y4iPEZ/6AwyLnOMGYI04aTve1KUyQ/N0FfjhWymlJ3d7xud3DKTP7ABj1DfCukDv8bY5XRBbdyqzn+J7jFTM3cVY5Me4FidBo9G8a3iRa/GJcRADvU6Hyr6kpkEVGksDsAo5esNuGoC1oeMK/qwBWAWdPWJX1vyr5M1taQ2GvrfxD1lw+eVNCHaty8wnpolqhDbNNZr5lNLy0gXOp4i61EgHNJXApjBMhw9lXawX7KAulrQpB3YpMuZiTK0rh78PZ5/+enBaVgOwpnh7ltmndeGaKaXHd39OVMEtrt4jGpwkDDByl6iPJduL9IHv0JUr8b0stFullOynrBWLsV0AsCCfolPKN+/C/fZ9ON+aP3DQ8V2zBmDVPeMNwKp7foyuAVj1z9FhIxTUIZB+kUpv4R1ZvF3FxGbrPeBdxAJywK7Rlj6fABQMM8VwptKdMe8K8kgPVn0b6LIL5ht2u5TSxVNKJw3Y40vNvEXOVKBhE6ld0wCsXXhiy92jb9F1M7B9/HLdHtnTv3dj+nRmjQq6YGQtwWhcXTWD6GfObNCp0gX3+pM+Ii2yeyyNfeUmdwXQuWTe4KlM2CwlHxHUxqcvDZHtObkNwOrpqIkuawDWRI4f0O2SAKx/zYCJEtS7YDZWxFUdyKY8cB/kaxFCbBaH0kVFCwMfLHPIZ787ocbGYbcn9UrFPCmrS55P+ia0sIAoUxqmA904acIOiJj2SzT+VqAJy8H3LOosI/D9x1lTS4W3BmBt9zT5Dlh7mpXxwE/ltRSoPSYzcdvR+045h0pt835hZM3RAFe3ySA3Bm4NoNVeP743V2AV3FicRX30a3MUWh8qJYpxbQ/YFL56Z07RgITvokHKMRCWIO7/9Rx9XEokw/Pou4RRcKOFPJzPywDJkg4TKjthVkyVNjPmo/HPeX4IIu+KqTz7jE5c9ISV3fB38lxIN2vW3wPX7t7Fp1S4ptk4YyZJG1m63T5rt9VyUHR4UTr9fd0Byz5hzik7DuIKFgic2BdI0Yncv9Fqe2pK6Y75oXXIbgDW9m9wA7C29+HQFqzxdOFoINFMrM28a/aSz+60BIm9+1bZB9Sm5wc7AFjZ8xJEp3uoCNrxanNoBgexcbFHv1rh+EYZ0q4AWJx1+VxC0gO4y+ZjQdTeglzbB6LUvFwuAyQnK9VhYD9fSSmdu2PUfTuwjymaflJK6eYLAJxFmlB43cuSjN6ONJVTLuCmvDu/syOH7NV02dS+ratidvbK5u8TuZw83aRm/T2A+SMwJT20JqPNdIl8IKlpXBFjIfINRLxxICNo6LgFTRwOX91Vw3pzp5f2kZkx4aRnnjdXVJMmeKECh3A+c5i+a07L5PMGYA198g6+vgFY4/hxaCv0LknpYF3XTOL4bEoJ8A7Isr/8eAZgpmLv+qbTzwacSw08V/4enSaYjTl0fvdeL6NAMFba4Ne2aaj23+4SgEUL67k5T7X2eYkcnw8CMA/wsatGawDDB4tk7qYs6plmHl09aA4enHXrRF7nbHLQH5kXkznfx/6xS1v6ZIUH5k18/HcZwALo7JJJwRGZrclUH7x7TQOayVjs5TBGblrZeD1j969sTJHDOW3eWwBbarLvdymmX0opvb87iBF6963DPK3RrPnnyAwHJehJf2A9/P/tnQnYft1c739Xp+GkkUhyUOZZyRBKhohoEhGhMkRlqCQREoqjkQyVVMhcyDw2mTK+kiHJnEicoqQ0nP3pXbt293vfz95r7bWn+/ms63qu533/zx7W+qy9117ru37DHHMBNnV/twnafrfGS+F9naQDClh1nhQFrDocS66C8Qbfe8LHTOkKW1K33XMQkXGF/lCzIfDuNG4hbOFqyL9NVeBC9kDGHwwD+I2hAxlOCYa/dm6sN7CsR6xEvGID/WjLaRKw6MRLbdjXttZDyASX2FenuWB1gAvh5Y8AAruqZL04tsJH9sGNS8bZNt4wLB7vlYL8brwpZ6n+S1L2p623i50+LLBev/WGZNYf6zkWtWsqxLZ585oqtKG6XKlxafiTldX3vMe+C7yHN99jNsjWap2KNQOLQzZ0H9dkJT1jBc8MGyJXTKIVWTXZXGR9MvcaBYvBb9zzzCpg1XlIFLDqcCy9Ci6EP55+1i7GdNuIEMMPAjPGF7hF866yiUr4FEQuBPmhgg2WnQhTWFddJFmiM/fgB2MXyhLjT2m/tuexiUX8UOKLHX2Z++OwBqDtLuVpbDsv/VWbBTUq7Wku/ydNML/+CCA8IgURPIKm/I8mEJyVnYS1poYfyhtffoIrP33oCRs6juDMmKRvvSAC4/bDjvtpK89PFrlraPfLk6vQGuqy1TpgYY2rwxoKbms3WENFZq4DYgzjItZna/9+IWax+MMiC1dDnp+PNUH3yb7HghB3lBqhJlgsszAkGxpJWviN2yvugQiviFdTZBEc2vXEB3tFytq2L2aMAtZQkicfp4BVh+OYqxA+4J4pJhbv4rGUTyZXdcYtLE53C2MxAh6x89YYC2xMP3w4xfkmWH+N8XpMXWY79zSKOEzuntMsjjH1Pk2FScl3plgIp6nd+9rKRIq4RKSY3fo7cKwWdVhLYuGzdFanse8K5s7XSbFHxl5rbeffJr1Ha6tXTn3YscOlhrawWDtt5abJEmMNcTGIE0fmNEs5AeL24Ia5dEEYIdvvMQr3Q9hiOUwGOxaKxFHZSmHhh0s1ohYuKB9M8TU/2hG2sCpud/jZoGHsoL2IVMynCGrMD4tEFo0smInBgwsOFnlYPrCJeK6VxOPBXel5yW3wLw90lAJWnSdYAasOx7FXQcRBZGeMWlsil7FtO03nM38lbhjffKxpjylRVG8/bn3x3tvAPQeQIYaX9j4b8Gctad+hc3CZI4sKQpblTB9hTGnniKswJW/8tY8pA2HLivcU1y7at+VCUGpcVdkdOrZCYEvat+XCQuxBpyxOT7e/cHN68QreM6weiHdDTD9LOQHeyVeuwPIH1w4snI82A9KALsK6gQX7T2x4nsECiUUR4j6/Ea+wVmozGvJdYx2BSIeQxX8zp+KHf2OzECGL/1/jeoN2EPMKoZGx55ALkgLWgAd+wCEKWAMgzXQIc2wy6fFsr9XdeSYUm73N25PL4B8d6RrjxI5Z4wdljicJP1diFFxhjput4B7vSTFefn8FdVlLFW6Sdvvxhd5qYXHATuaxlsdGxC033jjGGVwIj7UQj4Bd9a2WY3bxHNInWEqwe7e0K+gTk0uDGyxDeu3wMeymM27ecNxlRp/9sJS44jRaNXbhYZmEW8edV2JtNLpjj+wCWAjeqrG++oeedilg1el4Baw6HGtdBQ2AjSMsn4kFZdkOAeJdIkBOGdR+1TROq4BFu+/aWGA94AiCRPc9YMS7emSaTLJ7ZjmTAJltSDu+ZQHol5P6fqx9isj4lI03jg/M7228DSdVH1dc3O+2Wghi/jWnNP4Vfca38DuSK+hS8TCw7EBAw0p4qXTZW31+d+uNGxcsf25BC3PiJzEmkMrbcmYGK6ywYLL1pCTH0p8fSeMNVvhDYsIqYNXpeQWsOhxrX4VYdGxkkaF9Sy7PtTls4Xr/r8k8z4YfyaHYgD215bQKWHQ4/vhkYSE+zTEXTPnJ6kJwTst/E+DZR1hYeqe6tE9wfbpuCr5aeo21n0f8DNwjeVe3WP46uWb17e5usW1tncnY9KwNWxewyEYoHZq9Zst9dajul0wWyQRTXqLwbSIL5KuXuPkR3vPrUn8uFefzVak/mXtYziRADCgW7/woYi33VDDO4yr4Cykb91DXfgWsOn2mgFWH4xRXwZL+h5PXA/HpLOsjQIw+Nqee1IQEQsg61eU0C1h0/OUa80kyUJ3jiJ8CdtefdsoXaIe6lyCzT91o378miW+kwz7m8usbdsHDjQbXkWMuBOR9QUo/vMV2Xj8iyMR3mgvxaXhWsRAhg9qchQUlVpa3S1nP5rz3sd4LwR/X5SU2Z8iA9CtJqDkVqbwzHiLcdUma8OANb8pkNHeVh745eV+Q8TTHI0EBq053KmDV4TjVVbDCJgM4MaIvNtVNvG4RAeapWPK+qZNEo+hCx3LSaRew6MdjyKR16HkkKwH+/Zb9BHC3IIbPFjPd3TcFnz72RQLptQlKPPfCeuw7g1sCMfYIRH/MhQC9pIu/2wYbiXXf1pME1MK+VExAYiThxvPQWg3xOv9JAPeCe0cEgXrnLLg0YE33jDlvuqF7Eegcq1XCOmw5fMGGkP9XVVkAMs6VWEQrYNXpcQWsOhynvsqFU1a7r576Rl6/lwBzJMYfNj5Oe0zJ/wFLASuCIN6PSimfETSOpbw+KemnOQvQkL7EZPYhG3OBwgSeRQKZJ469YB2Jq+83bKyhZDZCHD8NPuq4smLxgTXWVgrZp36gqfOvbqXCE9cTlwFiAs4t6PF9unZE/PnE7Tttl2fh8cw4M/7SnAW3wavq3tCL/GpNZr6fbqw/6aetZ0LubeyCBxBT731pnP/FEQvAYxewmAMTF3jqNdDNU/yeBR8Jbz2QABlE2ZhkHkuWwq1tIg9s5moPIzboGclQ4TkDY/WttjFTVEwB68wgtgSwQ8Qi3f0xMGFRcJe0C4pJv+UwgfNHBIMDmSm3UOjP30q+6gTLPfbCR5NMhEw+t5Ix8qMR8YMR8eRTEpSa+C4kFMBdGQuDLRRccAmwT5wyy5kEfj65fs3J49nNJO1bG2shv1N1qSOKvDgF5a175ZOv9qBkUTfnPbd6L+YeBNzHSv48W23EiuuNeIXVFd8mMnAPjXe1r0lzCFhYbL9uIZ64jN1zBovNr2/GpJcs1EZvm08AQROxHRf/GzVWQFjcW6Yl0Mbpe3zKKIzBgmUPgWMQa2p0LC8pLyexGwgcveXCR5psEvz845YbMlPdmeiz83T/jeyE/m1EfFuylpgJ0eK3YaL/mGSpsXhleirAx4fkALdvFifHHp+si4K4CQirWxg/McNmZ5HU0VhiWc4kQMwL4ivMmYWImEBbzzS61ucHC0MW73MV3KYvnoJkz3XPrd+HgO4kEiK2CRuoW9kAWDv3DyTLBVxZCRMxNknHA5v59I9OODZibXGJiHjXQmBvneIgft7E9/+SiPjQxPfw8nUJoBNgoX2N5Ja+lc3+uhTmuRohYZ6e3sXXNptBjAuWAwQUsP4nGBY1mNJuuRBQmR3tMbtNW25/Sd1ZuJHCfQv+3mSg2GK8oZJ+6Z4z1wRrbD3JDHKLiHje2Att8HySRZDxdO0Fy5TvbnYVda8+a0/N2YcfTm6niojTvDEEDUdEnyvrHW7E3ztNU47+qrjKY72GpYOlnABWV3+Q3MNrZsHEopoYNFO9S8RjJHvoUhbBX5GSsUzpcvxnEXGZ8q71zBUQ4JuC2M7myNRi5wqaO2sVENpJ+oToPlZwn7XiS91MAeus5HFVYhIx1Ydqqr7mw00MEyzJPjLVTY74usSUIrXymt3U/iTt1n78iPvhUNPwx8cK6ztX3HbcoMjm9iOnxHVwtyuIgUVctgutuI/Y/WV8f9aK67hk1XBjeWFEnH3iSvC9uscRbBhNjGn05R+QXIOmnusx57hek/mQXWNLOQGssX4sJQD5/CMJaVFOY/iZBGZ/e/KiIHlRTobBIXfB+gRxH3f5KQpWqFhtLxUWAi8UXPuuPkXj0oIcF0VEWsu2CfAtIbkS81ziHTLv03K0rE+xuEJo/520dmAD3DKQwNSTmoHVWNVhCBgE18TiA7V5C4XFAD7+xFPgI27JJ4Bgycf1TvmnznIG/coz+apZ7rbOm+BKyCSSj+caC66D9NFpCNx+iD+uhARGX2NmT1yciPVBPBOtfvb3IGm0cT9nMTVl0NY3piQj713ji3xEdUJMJsbjlCnReZfIIknWQ7MkjXt4mJPjZsU4erMmjtnXzBBYe1yNlz2bZ4+4USwAEYHeM1F1WBewOXPZCa6PmxBiACFMlvwuEZqC+dUUYgT9QrIX1ycTPEALXZIMt9dKsUTJrEpWVTWFYZ3BXJQM5cQAZex6i3FAh4HrHuXDtp8ZEwgWOmRfWHuGGEwNsbwiaDuLAsQsSxkBdtcenVwwy64wzVlYjRB/4YkLT3CmaV3eVXHzfGxEXCTvtMmPfnkTa+O2aTdl8put+AZMahiLWMwihqylMC5iYXlfYwOe2CVtUhPGwctN1HnEZrx7EjqXXLBN1LxVXZZ4ZmzKYIk1VQBeBATmSkzIdX2o0/2Ix2zYEECZ/sMycgphoU5tl7nKW5PVAi7hCCRYM0xZfigluqh9DzKN4dLO/H3JgpU72ZOvX7kSWKb/TBM/jDhihjapDHfhyzFfwFL0Uil8BC7kW4iDuhQ25qF8JxGrcXX+S7MLlneFAtZhdkwgiDfEYmzNhY/eDVOgyjXXcyt1O2dSxKcypc7lwO4cFoF8/M3UdeYknuxxZA2dMl5DTj+xe4IL6qtzTjriY1koE0vw+1ZkPYD4e4cme+fHjph7zaYhxiL41RYhEThYJGHhRbZOy/QE2JD79bQwrT3nw52deCi4bVmmIcB4ijXWTyUrh2nuso2rMn4gVjEnYiNrziDHuNm9IyIuUBEVlhhYBBNXaA2bzxdNlmY1LagJfcH8CMHRctwEMALAmpDv+1TutlslyPNPsjCsHHnvLSMJ1J7MjKzOKk9ncsYLyUdrTTtg+MqTIhi3QRcCdR8dAlqyACfuAZOWpQoZB3HNIHjo1LuLS7Wx5L6Iy6Qe/8m0S11yjVrnICATVJ9dYMt/E2DywiLjuxaOJ8iO71OTRe277aDBBBj3eL8IKlozWCsiL+IY2Q4t8xHA7RqrupouUIhXLL6x7lrD4ns+msvcCQuZ70g/BMMm9syS85O5KDD3+WCybn5yytK1VKwYYpSR3r7W5tkfJnGS9q2h8DwRZxQ3coTvseV9yYLwmWMv5PmbIsDYdONklfXlKaTE2r2ZagPm+8jz//o0ZrxU4aouYgWsfp6Y4F8zTeTx4Z4zxfi+2rEDRcaSRzaiGll/lgr62E9u20dgEkswVXY+5+5z+piMLVgAsrPt4uCszxITLfzuf7zJ+HflBXzv2UF5bhJptLza/64TQxAL1jsuZDlALLJHNCmgH97sCJJW3ZJHgHEPt5kfrhDTjDENk3k2g96QVw2PrkSALGe48lylwvXI4PlLjbsISW/cTa4ANOMSuOwgSH5tcjG8fLPRRRbDYyvMbV/TJK7BPf+PI+KVK4ixhojIpjEJKM41EjjiFRsEuBStqfDdJpMy7vYIEaWF4NT3iwhER12LSylu+zzGKubnuEIT/oOxaux7s2YihETA0opxi3XBK9L/Gyphgl5TwBoGFcur80bETVLsjprmtcNqcOZRuJBhTYBrBx89/clz6OUfy0BLn99r5Ic8584MdATdZaFBbBEHvpPpXTItsG8+YYyX3Rp8OMXeICsiCznLYQJM+Nm1JqYgk5e5rFiJK8IEnMxKxFyylBGg/74pseRdK5kzkBHsCWlX3yC+Zf1Q6yz6kI0ZLHno29zCQvTN6XlAwHcOkkuw3vFs4iAwfFnKHodrPbGytlzaoOxkiSVoOu6CWCetyQKdRTkW4LgDlcT7YUOSOR4iGOEH1lgYG66UEhvlCt4I2mSyxeWVhbzi1Rp7eN46YX2F1eL50gbKDVIGw5Jv0Lw1778b63Jci5lrvqixYPzztGFKuAqf/X5+xUeUTEaLb3YkJyJqkK0OM9upgqLuQ8WuNTvh7GJb5iPAO3KJ5MqHJd6UC3AGPCyKCPBnvKvhfYylCEIjwm4t0/5Dd+c9xKKIuA6W4QTI4oRL2l2Hn1J0JAsdLFMRr0h+YKlDgNiAxGnBpT7HbYksg7jYPkNLnTodUeEqLCawLMb9L3c3HDdEngPfrQodMcElCPx+y2bX/6ZNVj7EyikzidaqfpuRC0sdNmi34uqNOy7uhLhzDi3E7MJyEff6LXhPIDCQoIF5KZv4fYXNPY5lw4KNC4sEDhFACP725GpIzOHa8TanJM/6DCMSMo8T05NNHddsUxLfc20FrDLgiBhfmQITYhpJ+tCzV54sYDWA2ws71nwk2bHBp9ayDAGyq5HammCUTAzPUylDJfHLyERB/+IW+jfLNO8o7spuKMEj+Sjid08cprGCIzvCvIeYBTMpIxi4LjPljwvx5RBBrposB85Wfqn/OpOxklgDmGw/rElq8doK1/QS+wnwXhHbAvclFjT0H4II7xnvBQs0hHh2IRnT+NFKZ51PE33HN+16zdhG8GYWFPRl6zJPX9J3iFVYwyAwsNNs2QYB4rYyzuK6Q0gExEq+kWwmsFicU9xibGD+ytiAazfzHKxksdDBNZBv7BatFZgXMh6ygXahtA5gY7uddzB/oM0IO69KgeeJibO1wvrm2mncv3h6ftr1I99fxnti/BCX9xNba5z1XZwAYxJzQ8Yq1tYI8bhFE3+T7xLfqrFz+ZxGIkbxHLdjFmIz3hbEvOX9ZY7Jd3GLY1YOh1Ufq4A1vnuY0GNqy8t36fQRw0wyV03mA89HHTED33HUXV4SPvJzZloZT+S4r8DkBJNqBtq2zxlsiRswpGA+/tdJmCSQcesnjam8sa6GEDz5GMY0FtZM3IkTQh9dLAmOQy1HWLS9K03KeAfpI362sGM6nuD0V2CRjFXj1yS3QsbNC6fJ/5BvEu8Ji6B3pmDgTCheluLG6XI7ff9xB0QOgvximdUuhtlxZ7HGxI7+cTybpy/G3oWFAcIGmzL0ZWtZTl8y5iEuaE0xlvKy59OnfBdxN2S+wn8TCoM+5x3mB5GChWTppgLvO88LPwRZ/0hEkIiG8YA5DwvA9ye3QJ6pY5rXImSxFrhgWni34iBziXYjmvn9MSx4mUe1ggLtYaHvpt6y7/cx3b39HjFW4SLNWMU4hXcFYxYb04hbCFt8t3gWc+MUM09sBap/SPMVxiwMChizEJwZt3h3+WGDlPHsGN7fo3lWhiwWjqaxEzeEDxgvFpMAXipELF5Adr2YHPBvbRYG1F0+8kwQ+aghXvDDC8QPLxAvlS/LxJ024vJ8xOlrBlX6nb5mB46Blr5uM3cxqaOPGfwwjWcHm4GRgZJ/d2EwohN6TsX8ve0fPnxYGWAtyX9330d2ENuJNqII/cT/02d8yDQNnq6PWDAxRjIhYcy8SJq08G/8jW9UuzCiT5hM8A4xoeAdon8YSx0rp+sjrywBCRwXARaJiFoIliwA+W++l/zw/3wfmdfw/ywOGYvbDaB2PEaA4r8ZhxmDsVZgPtNa7vHfLBL5viLkOEYf1zNkayQwFwHGK8YlDAUYq/hhzc341AqqjFEIx4xpXYOCdr1NeAnGK9bYjFGIrvwbP4xPjFf8Zsxqx7a52ud9CggoYBVA8xQJSEACEpCABCQgAQlIQAISkIAEJCCB+QgoYM3H2jtJQAISkIAEJCABCUhAAhKQgAQkIAEJFBBQwCqA5ikSkIAEJCABCUhAAhKQgAQkIAEJSEAC8xFQwJqPtXeSgAQkIAEJSEACEpCABCQgAQlIQAISKCCggFUAzVMkIAEJSEACEpCABCQgAQlIQAISkIAE5iOggDUfa+8kAQlIQAISkIAEJCABCUhAAhKQgAQkUEBAAasAmqdIQAISkIAEJCABCUhAAhKQgAQkIAEJzEdAAWs+1t5JAhKQgAQkIAEJSEACEpCABCQgAQlIoICAAlYBNE+RgAQkIAEJSEACEpCABCQgAQlIQAISmI+AAtZ8rL2TBCQgAQlIQAISkIAEJCABCUhAAhKQQAEBBawCaJ4iAQlIQAISkIAEJCABCUhAAhKQgAQkMB8BBaz5WHsnCUhAAhKQgAQkIAEJSEACEpCABCQggQICClgF0DxFAhKQgAQkIAEJSEACEpCABCQgAQlIYD4CCljzsfZOEpCABCQgAQlIQAISkIAEJCABCUhAAgUEFLAKoHmKBCQgAQlIQAISkIAEJCABCUhAAhKQwHwEFLDmY+2dJCABCUhAAhKQgAQkIAEJSEACEpCABAoIKGAVQPMUCUhAAhKQgAQkIAEJSEACEpCABCQggfkIKGDNx9o7SUACEpCABCQgAQlIQAISkIAEJCABCRQQUMAqgOYpEpCABCQgAQlIQAISkIAEJCABCUhAAvMRUMCaj7V3koAEJCABCUhAAhKQgAQkIAEJSEACEiggoIBVAM1TJCABCUhAAhKQgAQkIAEJSEACEpCABOYjoIA1H2vvJAEJSEACEpCABCQgAQlIQAISkIAEJFBAQAGrAJqnSEACEpCABCQgAQlIQAISkIAEJCABCcxHQAFrPtbeSQISkIAEJCABCUhAAhKQgAQkIAEJSKCAgAJWATRPkYAEJCABCUhAAhKQgAQkIAEJSEACEpiPgALWfKy9kwQkIAEJSEACEpCABCQgAQlIQAISkEABAQWsAmieIhEmnAQAACAASURBVAEJSEACEpCABCQgAQlIQAISkIAEJDAfAQWs+Vh7JwlIQAISkIAEJCABCUhAAhKQgAQkIIECAgpYBdA8RQISkIAEJCABCUhAAhKQgAQkIAEJSGA+AgpY87H2ThKQgAQkIAEJSEACEpCABCQgAQlIQAIFBBSwCqB5igQkIAEJSEACEpCABCQgAQlIQAISkMB8BBSw5mPtnSQgAQlIQAISkIAEJCABCUhAAhKQgAQKCChgFUDzFAlIQAISkIAEJCABCUhAAhKQgAQkIIH5CChgzcfaO0lAAhKQgAQkIAEJSEACEpCABCQgAQkUEFDAKoDmKRKQgAQkIAEJSEACEpCABCQgAQlIQALzEVDAmo+1d5KABCQgAQlIQAISkIAEJCABCUhAAhIoIKCAVQDNUyQgAQlIQAISkIAEJCABCUhAAhKQgATmI6CANR9r7yQBCUhAAhKQgAQkIAEJSEACEpCABCRQQEABqwCap0hAAhKQgAQkIAEJSEACEpCABCQgAQnMR0ABaz7W3kkCEpCABCQgAQlIQAISkIAEJCABCUiggIACVgE0T5GABCQgAQlIQAISkIAEJCABCUhAAhKYj4AC1nysvZMEJCABCUhAAhKQgAQkIAEJSEACEpBAAQEFrAJoniIBCUhAAhKQgAQkIAEJSEACEpCABCQwHwEFrPlYeycJSEACEpCABCQgAQlIQAISkIAEJCCBAgIKWAXQPEUCEpCABCQgAQlIQAISkIAEJCABCUhgPgIKWPOx9k4SkIAEJCABCUhAAhKQgAQkIAEJSEACBQQUsAqgeYoEJCABCUhAAhKQgAQkIAEJSEACEpDAfAQUsOZj7Z0kIAEJSEACEpCABCQgAQlIQAISkIAECggoYBVA8xQJSEACEpCABCQgAQlIQAISkIAEJCCB+QgoYM3H2jtJQAISkIAEJCABCUhAAhKQgAQkIAEJFBBQwCqA5ikSkIAEJCABCUhAAhKQgAQkIAEJSEAC8xFQwJqPtXeSgAQkIAEJSEACEpCABCQgAQlIQAISKCCggFUAzVMkIAEJSEACEpCABCQgAQlIQAISkIAE5iOggDUfa+8kAQlIQAISkIAEJCABCUhAAhKQgAQkUEBAAasAmqdIQAISkIAEJCABCUhAAhKQgAQkIAEJzEdAAWs+1t5JAhKQgAQkIAEJSEACEpCABCQgAQlIoICAAlYBNE+RgAQkIAEJSEACEpCABCQgAQlIQAISmI+AAtZ8rL2TBCQgAQlIQAISkIAEJCABCUhAAhKQQAEBBawCaJ4iAQlIQAISkIAEJCABCUhAAhKQgAQkMB8BBaz5WHsnCUhAAhKQgAQkIAEJSEACEpCABCQggQICClgF0DxFAhKQgAQkIAEJSEACEpCABCQgAQlIYD4CCljzsfZOEpCABCQgAQlIQAISkIAEJCABCUhAAgUEFLAKoHmKBCQgAQlIQAISkIAEJCABCUhAAhKQwHwEFLDmY+2dJCABCUhAAhKQgAQkIAEJSEACEpCABAoIKGAVQPMUCUhAAhKQgAQkIAEJSEACEpCABCQggfkIKGDNx9o7SUACEpCABCQgAQlIQAISkIAEJCABCRQQUMAqgOYpEpCABCQgAQlIQAISkIAEJCABCUhAAvMRUMCaj7V3koAEJCABCUhAAhKQgAQkIAEJSEACEiggoIBVAM1TJCABCUhAAhKQgAQkIAEJSEACEpCABOYjoIA1H2vvJAEJSEACEpCABCQgAQlIQAISkIAEJFBAQAGrAJqnSEACEpCABCQgAQlIQAISkIAEJCABCcxHQAFrPtbeSQISkIAEJCABCUhAAhKQgAQkIAEJSKCAgAJWATRPkYAEJCABCUhAAhKQgAQkIAEJSEACEpiPgALWfKy9kwQkIAEJSEACEpCABCQgAQlIQAISkEABAQWsAmieIgEJSEACEpCABCQgAQlIQAISkIAEJDAfAQWs+Vh7JwlIQAISkIAEJCABCUhAAhKQgAQkIIECAgpYBdA8RQISkIAETiUBvpmfHhHdb+d/RMS/RcS/n0oiNloCEpCABE4jgU9L38OctvOd/NecEzxWAhKQwC4BBSyfCQlIQAISkMAwAl8YEXePiM/pHP7xiPjtiHjrsEt4lAQkIAEJSGDzBC4fEbfObMWr0/cy8zQPl4AEJPDfBBSwfBokIAEJSEACwwj8n4g4IyK+qHP4ByPieyLi+cMu4VESkIAEJCCBzRO4WUQ8MbMVv5m+l5mnebgEJCABBSyfAQlIQAISkEAuAQWsXGIeLwEJSEACx0hAAesYe9U2SWADBLTA2kAnWUUJSEACElgFAQWsVXTDqa7EeSLiWhHxBSuh8M8R8ZGIeG9jWfGeiPiXFBOOODefighixFkkIIHjI6CAdXx9aosksAkCClib6CYrKQEJSEACKyCggLWCTjjlVfiaiPiNiLjwCjkQoPn9EfH2iHhjcrf9iyRufchEByvsMaskgXICCljl7DxTAhIYQUABawQ8T5WABCQggVNFQAHrVHX3Khu7ZgFrFxjZObHKenNEvDIiXpCELf7dIgEJbJuAAta2+8/aS2CzBBSwNtt1VlwCEpCABGYmoIA1M3BvdxYCWxKwupX/ZER8ICJeFBE/GxHvsG8lIIFNE1DA2nT3WXkJbJeAAtZ2+86aS0ACEpDAvAQUsObl7d3OSmCrAla3JR+OiLtFxFMiAmHLIgEJbI+AAtb2+swaS+AoCChgHUU32ggJSEACEpiBgALWDJC9xYkEjkHAahv42xHxoIh4awr8btdLQALbIaCAtZ2+sqYSOCoCClhH1Z02RgISkIAEJiSggDUhXC89iMAxCVjEwnpFY4V1j4h4lUHeB/W/B0lgLQQUsNbSE9ZDAqeMgALWKetwmysBCUhAAsUEFLCK0XliJQLHJGCBBBGLjIW3iIi3VWLkZSQggekJKGBNz9g7SEACewgoYPlYSEACEpCABIYRUMAaxsmjpiNwbAJWS+otEXHViPj76dB5ZQlIoCIBBayKML2UBCQwnIAC1nBWHikBCUhAAqebgALW6e7/NbT+WAUs2BIT644R8fE1gLYOEpDAiQQUsHxAJCCBRQgoYC2C3ZtKQAISkMAGCShgbbDTjqzKxyxgIVzdJSJ+MyL+48j6zeZI4NgIKGAdW4/aHglshIAC1kY6ympKQAISkMDiBBSwFu+CU1+BYxawEK1eFBG3i4j3nvqeFoAE1k1AAWvd/WPtJHC0BBSwjrZrbZgEJCABCVQmoIBVGaiXyyZQImC9sHHL+5GI+Fj23faf8NkR8UURcYGIuFREfF1EXDIizhYRnxURY+aW1PG2EfE0rbAq9ZaXkcA0BBSwpuHqVSUggR4CYyYZwpWABCQgAQmcJgIKWKept9fZ1hIB65kR8d0R8XcTNulLI+J6EfGtEXGVJHCVzjEfGRE/2vz844T19dISkMA4AgpY4/h5tgQkUEigdHJReDtPk4AEJCABCWyWgALWZrvuaCq+VgGrBXzOJGTdPSIuU0j9zyLi65uA7h8qPN/TJCCB6QkoYE3P2DtIQAJ7CChg+VhIQAISkIAEhhFQwBrGyaOmI7B2AYuW/6+IuGhEPC4ivqoAxb9GxFdExJsLzvUUCUhgHgIKWPNw9i4SkMAOAQUsHwkJSEACEpDAMAIKWMM4edR0BLYgYLWtv3BEvDQizleAg8XxkwvO85TDBD6t86d/F9SpI8Car1331ej/YxWwupxILHHsGVEdF04eCtb2PNhfIwNtnrqR3wZLQAISkMCpJqCAdaq7fxWN35KA9RkRcZeIeEAK7p4D8Cci4oE5Jyx4LAsKgtqfKyLOERGfmwLas/B5T0S8dsa6cU+C6X9xRJw9Ir4gIj4nIj4z1e3TI+JTEfH3EfEvKc4Y/83P36RA/8ewYMcKkHbz87/TT7sQ5bmEAe3E2u8T6ecfEpMZu2uyW31+RHxJei7575YFv+l3kiX8U5Pc4eMR8ZHkrsvvnL7fuoDFO8E7i9sz7wnvLQkqPi89L7BoOX0yIng+iCP40Yj4cHqGJuvACS7M2ERbvzC1l7a27WVc+Oc0DvCb+IPdtvKsnIbCGMG4SUxHxnTeHZ4LflMYJ3kOeC54Dj6YftcQhHf5Upfue8wzytjOv5EshXv+baff/l9E/HXqtynqs6r+1wJrVd1hZSQgAQlIYMUEFLBW3DmnpGpbErDokis22Qp/I2UrzOmin0+ZE3PO2T2WhQdB5XPKByLilWlx33cewgj98bVN1sRLJ0uzc6fFIYsM5ti/2YhY39N3oQp/535fHRFfGREXSxkiqQsLVv5GXXfn/AgZLMgQLlgIvTci/qJhdkZEvCIJWhWqNsslEGsuEhFfntrO/7NQp+0s+hBuaD9iI8IFi3QECoSs7oL0ryLiHcl99W0bE7ToY54BkiiQFfSCScRCuGDxu9v/CHftope+p70vT88//95XtihgwYh39copRt/5I+I8SchqRazddv9bR9DhPUEkeF9EEKvvT9JvBK61FfqbOcuV0riAWzfCDKId4gxCHe9Ct/BOIFYxLiDSEYeQtvJsIMS/YeJkIH0MEeZ5vqn70ILY9KKeMZ1xAXd3Yi/ivn6h9FzACbGoW+jrVvR9d0S8KSL+oDn3ZUkQH1qvQ8chKjKO822hLmT75RllLOeb1n2P6S/eY+rDBsS7IuItEfFHaQxf43M5ls9/nq+AVQWjF5GABCQggVNAYCoBi0kJE5VLpUUHkyYmLFgRsBPKRJKFFYtLJpB/WWmidAq67OiauDUBi8UzAtY3Z/bELzULpbtmnrN7OItTxJic8pLmffuBHvGGxQ4LHTIlshimjbsLwfaeUwpYzOFZaCGQ3SAiWvFsn1g1lEFrnYN1we9HxGMi4nURwSJ+beUSzaL6hhFxzTRusqhFrGIBSH+UrHFa6xMskxAzyeD5lCaLJwvVHOukOVnx/fjO9Bx8WbIg4RnILVij0e/vbITA30p9z/NwqGxJwOKZuGlE3DwiLp4YtaJmLieO51ng24zQ9/ZGNH5icnlGDF26MD5drRGkvzcirprEKsQ5rKxKC6IWFlnvb4SeZzVi/a+n96P0eqXnIdA+PAnVQ6/BvOmbThjTEYvukYQxRCKelZzCmMF786eNwPSzadwsGS/pn2skq2Xmg8wDc+tCvdv60O5faATM525MiB/EvmRwH3RhD5KABCQgAQkcGYFaAhaLKxZaLIJvmSYtrYn6EGTslj87Ih6fdn+ZXLL4mKq0wtrunIHd2VeveGEHDyaFTAbZed4t7JqyO7ulsjUBC7aPToupnDnnLzZWAD80smNYzLMjnVOen4QAXEN2CwtDdsN/Ki2GcUXrK1MIWFgEIM6x6EK4KFnk9NW7/TsCxosbMeh+ydKAHf0lhByeHdqJZRVi6G0LrPqGtnn3OMbX30n9ztjLAnENBcHuOqleWFzlvF9D6s8CmHeQ/t/X5rULWLyvWOFhhcnzy/d7yoLgibs0sfsQtuZ+T5hTYEVEW6+eNsCmai/PAyIW4zRu0icJnTXrUPL9+/M0x9od05lzIf7fO4lFNeqJNdSvNFZbP5M2HodckzkKzyZWx9+SrESHnDfkGPrlqY312Y8ly8GjcS2sPdgNgekxEpCABCQggS0SGCtgMcFktw+rAXaCWYSOKezyYZGFhQDWEpiyT7G4ulHajWcXt1twLUCEYwd6rQUrDSyAcBnpFqwMsJ7ZWmyPkgk8ViTfvaDrB7vSxMLKsQD4ybQQG/Nc1RSwsIbEyuk+EXH5DLGgpoAFv8umsQMBZ/d9HMOq71xc7bAy4V16TbI+6Tunxt8R63CFQ4RGiGC8weJtiYLYzaId6yTcx0qsLGrUG+sqXHN5pxDzhgippfelzbT3EcmNrHudNQtYWNIg7mFNydifM/aUsuI8NpJwQX5oEv6wWpq6IGTyPDAmIIAwz5irINphpckchHdiatGu5Pu3K2ChfVymmSv9eOMqfJOJhL4/Ttd/1QnjBPXAnfM70rH7Ntlq9SMuoGx4vKD5fRRuhQpYtR4NryMBCUhAAsdOYIyAxcLzdhFxvWT+zoK4VmFXjQkKk5PHJlP2mjttTJCxQGBB0C1MhH46/Sy1mDuJITvwt0guB7sxM344mdfX6oO5rlMygV9awGLx+32ZO8u3Ts/yGK61BCwsf26fdrFx7c0ptQQsFqUwvFUSXudakHfbyuIUV7onNS5YuHhigTllaUXDe0bE5VIcrynvN+TaCHlvTJYnCHo1x9kh90eYwTXsDpluVEOufegYxnZEGayLXtgRKdYoYPHMEPPpTsltDPfKJQoxpJ7WxC365fS8TCHstC7EPAtsiOWOTbW4tBtpCFm/PbFVc8n3rytg8XxcuxGt7p+ek1oM9l2HjT2SkfzuARHrvMl68ttn2owgdhsbQ4/b4MbdWfgqYE356HptCUhAAhI4JgIlAhYWBCw675YsCaZceLL7SwBizPpZONe0xiJQNYFBdwv/dpt037X1NS4Cj0yT+27diOOBi0Wue9ka2lcygV9SwEL8wWqH+DM5BSsnrAvHlBoCFu8rsbgQUchOlVtqCFjEucK9hIUXcXuWLgjXxHth4Ty2j05qC2sURJJfW0m7u3Ul5g0iHqLOXCIW49nPJSZLCDO4it0rIp6QRKy1CVi8q4gBLNIJWM4GxpIFYQexk7EDN8zamzwIdVh6YZ24G2h8iXZjrff0ZKWKq+0UpeT71xWwiDFFDC3ioE39fCBa4oZ7x2Qh3xUxz5csWrGcOxQ/sTY/7s+mA5t3WMzVfh5r1/fE6ylgzYrbm0lAAhKQwIYJ5ApYLHiJPYCrx6GguohOLAiJVcACgQwyCCsEEWaCxY47C3Hc3QjSzGSHyWqfBRe7bNwXF4Zau7+4KTIB7Bbq/v3JzWSuhdzQR4isZMToIg5KW2DBrjjm9MSr2FopmcAvKWAhviDiUO+hheefIMTsGI8pYwUs3j/c1rAg490rKWMELOboV0j35/faChnZcFt6zoQx+LC8QgDF9XpthfGDeENsGEwdAwh3USy+rr8wBNzGfzDFYMT1iTrllDHvw0n34buImzR9MWVMuJy2tscidlK351V6T2grQcmxtp7TXXBo24ktyaYW43ituUd775LvXytgIf5jFYfgN2chUyXCKol4GNPJlPqM5MY4Zz3ae20h9EMvFwWsXkQeIAEJSEACEvhPAjkCFuLJfVOQ5d2dvnYn7K2NSyExErBiIq4MqZBPKizIycLzdSlYK4F7T7LIeEUSargHri9jCxYg7LDuuuOxgCUY/ZDU62PrkHM+O/H0QbeQ0ZFFN5mUak+uc+pWemzJBH4pAYvnnpgsj2pEGNKfDy24qOEuNzbA/lgBC9GYRAmIKKWldMHO/ByX3f878v6l9R56HtaMxAXDdWgKEYcFOgIi48vUFhND29w9jtT1WCURJ6rGGLuvDiQOgME3llRwgnPIgssYSkD9NQhYbBQhqjHer/EZoQvITkjMJcaDMZkKscJDHKKtOYlfJngMTrwklplY+jC3qbmxVfL9Q8Ai2cWDIuK6c4NI9+P9xZIXyyusKBEg+zYhp6wqSYBgMuZZnLJ+vddWwOpF5AESkIAEJCCB/yQwVMDCWoIsNAQc3i0IKOy+Ifq8Nu3K5eLFVQKBjBTZuGbh3rfPwouJI64+WBvVcGHACoCMcjfeqTCWCN+W4qPktmWq47G6Iqj9buYpYrgQQ4bd0C2Wkgn8UgIWCywyMvGMDp1vYtHHRJ/nbKyLwxgBC8tFFudYYI0ppQIWwblJgU4A87UXdvSxRCLA+RQFsQQWS7jNDWkPgg6LQTYhahcs/8h6iQXPXK5GQ9pAwG6+YVgY55TS9+HQPQjoT6ZEftbgXnsSC8aUByZBv0Q44BuPtfPdR1iE5vTV2GMRjhjLic1Za7Oo5PvH+MRcYEkBmHAOZDxkrsbvQxb5Y5kPPZ+5IQkO2FzaZBk6odhk46y0BCQgAQlIoCKBIQLWxZqUzA9L8Wp2d4PJTINF0OuSi+DYSR3Xx7IF83QWkF+0p61MVFhgfVdypxuDgzkDYgSTnt0MaC9NbR5z/ZrnYsGzOzkj4yA712TFq7krXLPefdcqmcAvJWCxA0+MoByXHkRdJvgskMeWMQIW7xTuSGNj1pUs2BG+Ef62IF61fYT1JS7LuC7XLoy7uOFMmaVrbJ2xdiWu3ljRtVsPBCssixCw1ijOYCGZawVU8j4c6hv4EF8IPrn1GNvfJefzzWEsJnYclnu5hcQWxF2bM/tobh27xzO/wRKLbzHjeo1S8v0jTANzlyUtnmg7FvZ8C9fi9onAeM0Krvo1+jX7GgpY2cg8QQISkIAETimBPgELAQnxit34tjCJY7cV0YTd15oLnG43IJwRXJdsh/sW3aS7ZvfvnSP7DgZYx2CKvzuHYDJE/IulCzHCWFASCLxbsLrCDZKJ21ZLyQR+TgGLZ4LdZTJustjKKbig4TKHS9pYcZf7lgpYiMEEucXdY2zJWbDDDrdgLJmuPPbGSaRl558FHD9dpojfjBOIAJ+RYSF3UrWIiYXwh1Bfo/+698JFkUxrQwv3p82IBvzs1qdtP4vaWmshxCYCRNcqxOp5SROoGyujsYX28yzwjsGF7xACFAtqxkueBZ6DIfEVx9Ql533ou8+1kkt7DfEK90/Y8Lu7ucGz0bLhXRnjokimYCwrCeydU6gD3242iWqIMPR/29bd+QjX744LOfU8dCyxv7AgLBHtdq9Z8v0b2gb6vR0zOKcdI8b0+dB77ztuX33onxrPAPfDch63VuastcfrMe0edG6tQXvQzTxIAhKQgAQksGECJwlYCDdY9/xoZ5LLBIQ4V+wQEztqqhgpLVKssRAAWETuc7dB1LlFM5l898g+YNf7IXusAp4bETdZQXB0Ah2z4N3NGkcwaNwHt1xKJvBzCVgIVyy6YUzMolw3CQLuY+E39vls+7dEwGKRSPBhLBZrZPbKWbBjWUG2QSwtShcpLETY6SeFOwkhYMrCGTeaf+w8+IjtWHhdJgm9CGe4JY9pM/cm0QMWF2RDrVmu16S9Z3w5tG5hbP1gyrKFkEa2LUR7/psfXFPbglDD2IBAyTNy/hRYuTRQf3tdxnqs57jv2IILNK7mxDscUxAqsMDFhYp4RGckAQUmrVDDcwcHngXGl69KQuoUliI578NJ7SbLIM8DSSJKC+0nhhvWnlgIvT49t7w/CDs8a3xHeT4ukRIqwIh751pBcW1cYUuydrIphaDOJtWYwhjAM0pYAazAEdJ4T9psxYw550lM2fwhcQL35D0ZY4kKZ+I+/USFOHkl37+TmDFukDGR8Ypxn29P697JO0j8OcZFfs47Bv7Ac9v68M6S1IcNRxL6ULDC5D0lCDz14fcYcY3x+nfTc4l766aKAtamusvKSkACEpDAggQOCVgs2JlQECS06y6Fpc+d0qKOnb05Cm42TBSp0+5ilMXMryYLlzEB1wneSywpJvPdQrYlrCSIebFUoc1MlllEdyfdtJ2U1Uzet1xKJvBTClgwZoHXJhfAUoB3IXfBg/hws8al4Q8rdk6JgMWigcLCpUbJWbDjWoSlZqm7GDvq9DU/CFcsxobsrDNmXSrF1MN6lBh+uf3XsmIxjOslon3NLJ/UkXf3wp1OQWRAnCNJBQtyFn0s0sle+fcD2854wQIdAQ8LUmKe8dyUFARCNjAeWXLyzjn3TBa7Yy7Fgpznj/H4jTsi3qHrYmWEKIQ7JJsdjDc114o578OhOiIeETSfBBGlBQEPi2WCWfPs8D3se1cQeBjbrpQ2iYipNOQ9QRzDOg832NxyrjQm8F0dcq991+edQKhA8EPAJA5nX1u5DgIOQtY3JKvyMRapuO/zTR7rYlzy/TvEHC48j1g5IvAyf9kt9DnzHeY6N0wbLGSGnqJQH55r4pUiqu5L6sO7iEUm4zUWiGx2lI5XtIFNDqzjpojfNwWj/7pmzUFp0op6cQlIQAISkMDCBA4JWKSzZoLZDRjOZITFEAuHqdwGD+HAugI3v30BqJm4M5HEImzIJPbQPW6f4vR0/85OKxNCRLuai9ecbidzHHXAiqBbsGbAMm2rsa/atpRM4BEzHrpjgZPDdPdYXHaY1LMDDG92plnssLAs2RFGbMBii6DQNfunRMBq75/bDqxuWKCyEOLdx7KD955/f/MA2Fh1vDwiShdH7NQTyPplTeBkdtNLOLJAZgxD/P6REbFaWAiyuC9ZsJ+EinhqZPzD9Y1nhSD7iFqID1gpjBnPuC/CIQtD4hSyaM+1guP+T0vuszzTpQUxjfaNWZhSDzYyEGS71mdD68Tzz7PAt4LxfDfz7NDr7B5XQ8AikDmWxiVCL32EtTSJTVi8lwRThw0iAtZ2P53GwUM8sHhqN7Fy30nug6CMW2quxRf1YfxBnMElmnlI1wIzp/+wxGOT4v7N+3ajwjGe+2HxdYMCF8puXUu+f/vaykYJQcwZNxHXhhSs8bDufnBPnw+51u4xjNtsYOTUB/EdV3M2PdicKynM0xCwnlpy8pLnKGAtSd97S0ACEpDAlgjsE7CYADAx7brsYU1CrIsld7WYdLKARGDYLS9Ku+vsxJYWFncszHfdGnBdIgg37opzFyb8TMZIWd21PmMiz4KUyfzWS60J/Bo4sJjkGcTaBBG4tottiYA1lAt1RajBgoOYVbzrpVaWCEdPTovDofdvj+OePNe8c1ge1SoIULQLt7qStQILxOtU7lME01uleiEQTlUQaBlDsAjMFbGwnKAvSoNWM4Yh1N0txaTKbSMixS9XtIDj2bxNqlOpuNptw1gBCws8XMEZB3ML7yzCHuJsrXelTdqC9d6uhRQxnxDbfie3oul43j02mq5ScD4Wx49PiRVKRLp9t+SbeucUN2nXPX9IFeFPvCUyV5aOlWO/f8wFnpVE+lIrdOZ2WLKPdTmGWY364LaPANW1Th3SH+0xMfn8xwAAIABJREFUCJxkzW5dSXPOXezYko/SYpX1xhKQgAQkIIEFCewTsHarg/XDvdMEh0nkkgVXBybPXcuwdtLEzvrYtPeIRUzkiCnTFsQ83Idwp5x7QsQuNW3C0qpbiP3Cv2F9tvUydgK/pvaz2MeSAvFmindlCgGLRRiuwbjksBjHTWts+abkOpK7KKQuuAtiTYL7XO2CW+gvJJepXIs06kIcMWLRbbGwWEdUvXGmxQmWYAg+CCUlFmFjBBo2U4ihhkXGGAuw3f6i79usnGMzQY4RsBCI+G4RfzEnsyntQTD5tWTBVypcHHqOsUDlm4/LZbuRxSYW7qSISKWF54jva+67R/sQMYnJmWv11VdX4hritoaVIvGycstYgXfM9w8WJJgghieWcWMKzyFJSsbGDMTqFsurIVa6J9UXAZW5Xu43hGviSgsTLFs3UxSwNtNVVlQCEpCABBYm0CdgsZtGsFXSyY+xbqrVTCZXTKJxu9kNqI05P/EtxuzOsgPJpOlqOxUmLg3WF1NaSexjRNBZgnDjztYWhBEW+Ezoa1v41OqnnOuMmcDn3GfKY1los8AnVhDujbUXWW3dawtYCLK4rVFvgjKXWhF02fKsYpWAC3LuQhXLKxYeuVnNhvYt9eF5493ZjXc35Br0LS43+2LLDDl/6WMQkxBXd7OZ9tULMQNhNleUZU1GEgxEixKXsV9J1oxT8cadDVfkMZZYYwQs7otFUq71FUIiVls/XFnY6z4H9BdCBFnd+KZiZYQwUCJicl3GBd4fYm7lFCzwiEGHRU2py2Df/YiThiUkAk5uoH++wVj8ILKWbHCN+f4h7LHphgVWab+0bGBAvCqsNEsLIjPZeplD1fgGIlgiLOYWRDTCTWxqg08BK7ebPV4CEpCABE4rgT4BC9EK83KCCq+lkD3pMSnIdrdOTOBY/LLoKS241zABw0qjK5AxGbt7CqZeeu2S85gU4x7SLexs4tKzpDtnSVsOnTNmAl+zHiXX4plj55tYKgSWrm0JsVun2gIWQjDiFVaWYxdAbV0Jes/iOjebGrG1OJeYKVMWrF6wQnpUgajCAo3Ma4iVWyyMb4yRWDV1rUz72oLlFkG72+xhfce3fyemE8IX98xdn+EuTqbGKbOJMcYzrhNbK4dHt/1jBCza93sF9yYzJlZDxKabsiDmIPIh0CNK5AqY3boRnwlhO+c54LuLRSbPD9kFpywIOHdN8aBy74P4j7CNi2VuGfP9Y/MBAWtMv3Tri7BNPLXS+HAIaQjWJULePm5879jAw9U6p7ABQrbTWm61OfcuPjbnxSi+iSdKQAISkIAEjoBAn4DFjiSTurUVFhz87Jq7M5EkvsaYCR0xtliAk7msW5gMYcEwVzB3JpGkw+5aXyEykPUIc/+SQMZr60fqM2YCv3R7sFAkNhqCAK4cuCxMaRVXS8BigUEgZlyQahZEgHYRmDMfhxkLHxarcxWSQhDcPaeevH8IFlimjBlj5mrjvvuQDII27IsleKheuCwT7HpfFrGT2kJiBOIT5tyL62Fpc+0Jgubvq+sFk5s2C96cZ6G91hgBC7fdb8t8GNhUwhUPsWArhe80guTlMiuM2yLP3Sszzys9HHc1vq/Ey8t9FohJSSbj3FL6/ePbg4U2STZqFeYaPM8l2TARG3lnEcBqlVYAJ+5aTmGcIo7W3BbzOXU8y7G5D9yom3myBCQgAQlIYMMEThKwML9mgrTGSQCZtZ6/JxYWExdimxBwubRgoXGftDO/K5ARiPjnSi+ceR7BZREQuwULEBbdLHyOpZRO4NfUfibvZAB7UlrEYCU3hdBZQ8BCHMBtisDatetIJjNc1MhmNrQgCmHdgWVTzThHffc/V8qSmOvSRDBzLCCJfbPFwiIdC9Z9GV0PtecdjSXE1QssGohZSDayHOsmngeEVSxPx7iD5/QNGwKM6yVZAEsFrC9Ocd66yVL66oxogRsf34YpLdP66pH7d4QNxgWyCeeUuTfQ0BAQr3B5zY2NxtiPtVpuKf3+IQgS069maTcgiPeZ6/5Nshus42u4DrZtoj9w7cSqPic2Fxs0JCMgY+lmigLWZrrKikpAAhKQwMIEThKwiDtBGvs1FiZXBFPejdfAxOWByaVrTL2Z/Lx4j0CGMIHbx9SiHjuhmM4jIHYLboPX3djipa8fSifwfddd4u9M3pnIYx3BpLt2IPKxAhb1e25Kt451X+3CAgZ3Y7LeDS2Izuyw45ZXc/Ez5P6432CJlZOZj3hMCFi4fm2xsE7CNRkRZDfL3KH2lFo0EK8QF8KcgtUNbtzPqejW2nd/xEysZ7DayC2lAhYbEblJR3BRvmVik1vPJY8njhGZWXHTG1pwx8MKemo3yd368O3Frfo7MkUc+obxOTdweOn3j5hkue/WEPaEjOCZzg2ePtV88RqpPhcYUvnOMbgdvjvznEUPV8BaFL83l4AEJCCBDRE4JGDhHnPlZpf+jBW3BSHpeXvqhzUHLhZjrDkQyMgMRZDcbsFihYkjQaCnLLhNYCWxG/iYOCKPmPLGC1y7dAK/QFUH35L3B5GT7JW4pNQSZsYKWAgRLMyIoVMr5lUXClZUuW6JuJwgCC2x2MDKgjHksoN79kxuLMax2JnSXTSjStmHsjGB0D808x3PL652uRYNiHxkpMwpbBzwPEy9SbBbJ6xrGfNzS6mAxXeKcT6nIA6zoK8VYyjn3qXHHsqk23c93LJ34z/2nVPr74yRJYkHblggLpZ+/5ifERS/drlqCqFw0cwL8yyTkKB2wdqekA5XzLywAlYmMA+XgAQkIAEJbIXAIQGLeD5MSNacxQWrCRbkuyJPLRcf3B2woNm9PsG6WWBNFSCUXWpEKu7RNeMn9gn9tdXYO4feidIJ/BbeMRaaBC4mg1aNTGpjBSwWAlh+TFVwb8pxoyHrIQkTCKS9RCGIN+7CZPXM2QDHHQq3szEi+aH2Ug/GAFxm+M04hEXo+ZOFB7HxunHxEJd4thDXEZgYlwhijCUTYwUiW/u7vSdCI9xz3NdKFoSIkjmWEzwPWHJguTV3waXvrzKs0tr6lQhY9CHWvOfLbCSx18YkKcm8XZXDL5ksaHIECJ5Zjn9jlRrkX4T3i3iaucHDGecRt3NKyfcPKy/iyk1hnVYiGCHqcx4JTWoX3hHesWtlXrhkvMq8Rd3Dcz5Ade/s1SQgAQlIQALbInBIwMK6gNTp/7Ty5rDjtxvLhUkd4s9LKtSdLG1kmOvOLRD1yIpEHKpaljXdquI2yIRt1yqElNKk6z62UjKB3xIDRCyyuOFGM1b0HCNgIbawKETcmKqQQTBn0beGrH6HrB1PYjQm69ih6xJ/iXhcWD4QaJ0fFv/nznRlaq9PxkDcWf88xeticYnbKD+0mTF+SgELkSbXnYrjb5/iJU31jJ50XTZuGI9ySomAhWscLpKIZkMLog5JRKZw/R1ah5LjEB4QzhFghxYsvwmKXpLVb+g9+o7DAgtX1pyCZWuu0FLy/WOc5byx35N9bSN7LP1FRtihhbEGAWsKQe2caT50g6GVSccpYGUC83AJSEACEpDAVgjsE7CYKLPTyyRmCjejmmz2uX0guiFgYSUxtjCZI1g8C4duIf4WcXtyF2h99SEmDZNm3CewDmnLB1Jg7Cl2OPvqNPXfSybwWJf86QQuXLhUkTqehT2WL6XiwS4zLGB4HnlmxgSmHiNglSy0c/qeuFdYRA6Nq8S16UeyvyG0LFUQihjrLpNRgdKYUPtuQayZ66TYetSFsYZnsHYheP+7koDJ8w33nJhEuQtCBPhcC5oPJRY1M6vlcGSzguy2OaXkvSLRCPGvdq17T7ovSQNyntGcNkx5LO54vF85z/RvpSypCCNLFbKiPiXz5ghLWEblbPyVfP8QpXElZfysXZgT0l85iThqjoe77UEIpz68Mzkld7zKufYkx2qBNQlWLyoBCUhAAkdIYJ+AxaQIAQjhZu2Fhd9u6mpENwIUE4iVrE1jCm48uARgjdadXyBckZUrd4HWV5c2jffubiNxhYjHNUb86Lv3Un8vmcATt+hOEwiIuGzimsoPGZmwisEijt3o6zfxnc47AhLuUbj/8GyWWu6VCljcm+d1ynT0BMB+QyYfrMGwMqJ+SxX6lAUSY8nQQv9hcfC2oSccOI4+wYXx8sktcK41DPXPzTKWuyAk9lVuoHusi+C61DjHIplkAjmlRMAiliEBuHNFHZIObKnwjOFq+/BMF13eiQcv7C5/nsYakI2jnMLxV8uM51fy/ZtSwPqSNB4SY3RomVLAQmxnfL7x0Mqk43LHq8zL1z98rsG/fs29ogQkIAEJSGBeAvsELKx8ELBI07z2goUUi+Ddbz/Bs3+6UrBbUlWzSCEOTbcQnPvWla3UEAEI1NtNGY2bFUHpCfp7jKVkAv/MZpHAYm7OVPKIWqRYv2tKX461Vu6ck/ryblH/EuvGUgELazWyV2LhMlWBDW5ROaXE5Sbn+kOORURggYSlSE5BfMLlLLfwzGDdhzC+1iyv+9qUuyCEZ64VLBsCJZkAc/vg0PElImyJgIWVFz/dcb6vDTwvxFjaUmETgEDsOfVmXOR7xzu5dCGzYDfeXF99GF8ZZxlvh5aS758CVj/d3PGq/4oTH5E7mZi4Ol5eAhKQgAQksFoC+wSs16RFNkFm114I8MlkcXeSSYBi4lflmPIfais7gLj0EfwaEaMtXJtMQDXdXbDQIQZMt7DI595LZGmbo/9LJvBLCFgtC1wasNTAkgrrrJzC4gyRhz4uiV9SKmDNYcFX4nKDwHGzHIATHYs7F8JizhqC2Hs8hzmF8QNrK2LZYfGV426Zc58pjs1dEGJllJut9Q+Ta9QU9R9yzZL3q0TA+tmIuEtm//MNWIOoM4Rjewxu8MRuJHPv0FIzBMDQex46DgvL3Y2rk65JfMxva9zvXpZx45LvnwJWP+Dc8ar/ihMfkfPxmbgqXl4CEpCABCSwagL7BCwmXyzm3rHqmp9ZuS9tdjxfsSfT1aOTdUMtVxTixWABheVEtzw+WQKNdVXkmrgyIcado3MDAoCze/2ACu6Qa+3Okgn8kgIWHJlrIkQ8KDNWCOfiboFbDUkAcq2wShbYuIthNUZmyxrP6aHnCFEuN0PaWgSsX4oIBJeuQN33vpBt8Ul9B+38nWcGUedKmffKvM0kh+cuCHnm2EjIKc9IAkDOOTWPLXm/5hKwSp63mmxKrlUiYPHNZv6R68pZUr++c7CGZpNqaFHAGkpq+HG6EA5n5ZESkIAEJCCBU0Fg6wIW8Rr+YM8uKRYVLKBqCVi4QiBW7boZES+MHVcmumMLu9QIIt2CS8K1U8r1sddf6/lbFLBalhdvYvY8NQXuzeGLmHT3iCCwdk4pWWDjgsqCkIydUxbu8ZjMG6xFwHpoCrA/pYB1rpQZlSDPW9xsn0PAemka7zIfo2qHl7xfCliH8Stg9T+aJd8/LbD6ueaOV/1XnPiILX4UJkbi5SUgAQlIQAJ7CRyDgIXbCannu6W2BRbXJkMYQbARs9pC8GkC1JINcUwgarJRvXpPOxBHcmPzbO1RL5nAL22B1TJG8LhtRGDBkxPPhqx7ZJHKdSMsWWCTGQtx6Y8mfjAIssvzmlMI8v0tOSdMcCzrBlyziGeXUxCWEVyGFOKlIdYR2Ly0YEn3yRTXj9+I57tuxTyPiPpfnBIQMFbxQ7bB7rhVUofcBWGJoMn4etWSylU6h5iKuZbHJQLWQ9IGS44LKRsyjDNbKghY922e23tkVJrvKO6SxJhcuhBfczcD8Ul1wgKL8Qyr8KGl5PungNVPN3e86r/ixEcoYE0M2MtLQAISkMDRENgnYLGIYPHBJGntBbe716ZFW7euWFT8eGPl8onKDSC99612rknmNXiNyUh485Q18fM71/6XiLhm5mS4cnNnuVzJBH4tAhaAsKhBALlCBi1c+XBNeV3GORxaImCdkdxcxzyfQ6pZEsSdOiEMT+na2Fd3Mk3Sf8TwyinU+/UDTiATG+PDL0YE7jC5hXGAhTTPCkHjuSdj80nWe9wTi6/zR8RFGnfVyyYrVZ4ffhDMc9dLuQtCFvK4BOaUv2yEvks08Qs/lXNSxWMJwP2CzOuVCFglQdzJWpgTSyqzGZMcjmjK5g4JVXIKGXcfNnJTKOd++45FXPxoRBDzcGhhQ4LkDjkiaMn3TwGrv0dyx6v+K058RO6APHF1vLwEJCABCUhgtQT2CVjEYWLBNWRxtnTDCOL+lj0Lw/s3FgcPrJSFsNtGYtg8Py0O238nThU7zFhilSy8mCATF+e7dlLbv6Sx+PqGhRf3c/RvyQR+TQIWVgYESb9Fpihwh4KYUSUCFtYAvM9YfU1ZEB54F3PKXzVB7a9YYImWc4++YxkDESGwqBpaCDSN++h7B5yAiIRF6NdnPh9cGhfiR6XA/4h9iFmlBaEOCyP66foRcdPGZZlnd2jJXRDyXudmafxAssB6z9BKVT6OwOoIjTmlRMD6/ohAkKJPhpbnRsQNhh68kuNYk98uPcM563PEK76ptTegcrBcoCBxyvuTWEz2wqGl5PungNVPN3e86r/ixEfkvCATV8XLS0ACEpCABFZNYJ+AxeLhu1NsqVVXPlm/ILjtfvtxt0AUqm3ZgQUFbhy4OHQLMbC+uQkE/eECYAR0xgLkkp1zcRfC3YhFy7GXkgn8mgQs+gex9Ecz3bR+Llkn5PRviYD1oiRgIRZNWRBDiDmXE0cKCweyEFLHpQqWc4gQl8qoABYWWFoMcQElYyUx+bB6yimIY1iFMb7hMlirMFZi2fmUPUkpTrpH7oKQzYUhAl/3njwPBCt/Ya3GZl7ntxuhF2vYnFIiYPGtwJp3N3vuSfeFDa6htb9pOW0tOZbnn+9bjiUTmXd59kl4sVRB4M1N0sC7SmZavt9DS8n3TwGrn27ueNV/xYmPUMCaGLCXl4AEJCCBoyGwT8BiEYpAkxvPZgkoBFAnm1u3YKWAxckTJqoQ1gssWlhMdAsT7tzMSSz22Y0nW1d34f+atNteIohN1OzJLlsygV+bgIW1ALFecixayGpJ3KicUiJgYTHI+0DMpKnLm3eE2L77IcxgLUmmzdyMjH3XHvp33lsEppwF9vOSxV2fpQWxr3CfQlDPKe9Kgvif5ZyUcSzvHEH9z5lxTsmCEDfHs2Xcg+fhJyPiwRnn1DoUlzEswHC9zCklAtblkqviuXNu1CQB+NrGko8swVsqZPBFwOL5GVpIPIG1M/H7lihoCVhN7m5U9dUFUZLNv5xS8v1TwOonXDJe9V91wiMUsCaE66UlIAEJSOCoCOwTsGgg8aOwEClxiZsTEIsdhINuwSqCSeRUu/gs+h7ZWEbcaMfljxg1TNZzMsudI+3yXqfTAJjfJyJ+fqTL0Jz9MOZeJRP4tQlY92osI+6dGcj9GAUshKDcRd+z0jkEQJ67IDDdL1nP5dybsZH+xpXwpIIYQvuIdza0sHgnbhDCyJjEECfdby4BC/fVqwxteBIx2ZC4TUTAYc5SEsON+pUIWLgO4qK/m3ykr72/0riV3nFBsbevfvv+ThsRsHKD8/MO8J4tUdicIhboBTNvjrskwldOKfn+KWD1E1bA6mfkERKQgAQkIIFNEjgkYLG4XmIRkQsR1yNiy3RLjaDqffUg3tEjGpGpG3QdCxLiWOVYfiF4PWcnFgruSQhwL++rxJH8vWQCvzYBi4XWnSMiJ6vYMQpYuH/lPP88wu9LAtaLF3ievzS5L3bdd/uqgZUQIsJjB7gKsQAmdlVO8PY/SO//lHGg5hKweC8IyJ1Tlhj/sH7lfSzJiFkiYMHj8cmKL4cNQe6J1Tbls5FTnyHHItYhbJNNN8fIhJh9uPd+fMhNKh9DohZCEORYZSI2kzBhNzNoX9VKvn8KWH1Uz7T4y+2L/qtOeETOyzFhNby0BCQgAQlIYPUEDglYuBsxeZw6bs4YQCwKCXK866KCxQMuU1PGz2BSzoL7q3cawK76NTIm3bsxVxDBnpwC3+LKeRpKyQR+TQIWi5zHFLgDHqOAhWDz6szYSsSLYbE4RdbQvvfn+1LyhZy4XWQERGDGuqivXKtx+yIZw9DCIpgMqsRTy4mjM/T67XHE78LS6YsyTixZEBJ0/NkZ9+BQYjz9VHIjJEHGHIUxiPdx1y18yL1LBSxibTH+5xTEUyyOCQC/pUL2RKylc1ys+Rbiesv7MGc5e0qugXt3jqaABTbxLHPf25LvnwJW/xNRMl71X3XCI3Ietgmr4aUlIAEJSEACqydwSMCi4iXm8HM2mODPT9y5IQtA4kndfYaK3LAJ2IqQQsr6tnysCezMonhI8FesP4h185mF58/QxFluUTKBX5OA9VXJReYymbRwNeEdyylrj4FFoHLEPNxrc8rfJUtKFoFzFdx3iTF1nswb/l6yTh3i8oglB3Fxhhbcj7FY+tWhJxQeh6Uc2Q27FqR9lypZEPJ9QdTPjSuFpRFu1YyPUxc2IxBQ6avuWD70vqUCFu6rbMDkWPlQJ1zb2KBBxNhKwY2UMTv3OcCCBivl3GQApVzQELDC4/3LqStiG+9tbgZL6lny/VPA6u/hkvGq/6oTHqGANSFcLy0BCUhAAkdF4CQBqySm01xwPiPtmJOpr1sIqnzrFHdm6rpQB9x9urE9mMiyk4+IRdaok8oDmhhjxE7qljelDGFTWo9NzSX3+iUT+LUIWIiPP9I0GOuCrhA5hAF9T4DvnLJ2AQsXyjs0LnM/mxkPDAZ/nKzY/iYHSOGxiBYI3bkCIjGviE9H+4YU4vg8ZMiB6RiEPMSJZ2Sck3soIg1jD3VjDBtaShaEZNlD0CTZRm75tcaK9k6NZd6UVlhY3iG2IjywoVBSSgUs7gUb+junwIMg9yQ+qJmd8lAdeEaYJ2CNTYKUksI1XpC+bTnnEw+SuF8/MVNMNJ4B3B2vl1PJlCCDAPu4v+aWku+fAlY/5ZLxqv+qEx6hgDUhXC8tAQlIQAJHReAkAQsxBjHocStsMab6uAruunyQBY2JZF92sFpNIiMhghW76W1hok8g65OCyH9JRLy0cRe8xE5FcB0aujiu1Yalr1MygV+LgHW19H7kZNhqeWPBR/yznLJ2AYu24HpM0OZL5zQsHctiFXejKQN4s5hGNEBYyrFAoorE68ItcOhCNVfAot3EHmRMmaow5rNIv27mDUoWhK2gSSysXIEXoQZ+xBrMdcsa2rQLp/d31xV86PkcN0bA4ltFltCcTI3cExd/4rBNKXRyH94VNom411MiAlGxtHx7QZZe7oWgTZZXYoZNmVSGZ5XEKQjwOcIudcRii42MErf/ku+fAlb/U1gyXvVfdcIjFLAmhOulJSABCUjgqAicJGDRUFxsWLB9eEWtZtccy5Uf2jPRLLFqGdM03JBwEUKMaAvCHy4pTLo/ceDiCIMP23EfwWKLBdVc4tuYdtc8t2QCvwYBC5dBFpC5mapgRx+TJj43yOwWBKzPSnFrEGJyYkvBhfcFYelBE1mXsEb4hiSKwDJ3zYAQg3vyUEElV8DChZDrI9pMUWgv1lAIEYxdOaV0QYj7GJZGF8+5WToWoeYHJxL0aD/jCBa0Ja6DbXPGCFjEW0LsLQkej/vhTRurpj8s4Dr0FOJA/VJysyWYOhk7sVYb+vx378O48CcRcbmhN+8cx3OA6IzYN0Wh/7Gi5d2jnjmFuRGWnLgW8+3PLSXfPwWsfsql41X/lSc6IvdjNFE1vKwEJCABCUhg9QT6BCxcFBCLcFeYKqV7LqQrJguC3ZhDuN8gAM3pfsfEl8yDj9zZRWfCjXXOO/c0jpgnWEDcZOdvLNzniN2Vy3vq40sm8EsJWMwxcT/DxYQ+P2chHAJ7k5Wrz8109/JbELCoM5YlT20YnbuAD3HkGG8QcfjvWgULCyxtyB5YYjFHX100c3zJzcqIMIDYg8XLFOMt/YHgkusiRR+ULgixTiXeFuNkiVBE0HwyfJI0owYT6nDeFKew6/5d+pyNEbAYTxgHsODJtQakvlgnkREXV/YabLhmO8bdJQlWXREaF9r7J/fbEvdFxFOSlORaOFEv7s35tLWmWynjOW3FTbFrST3keUCwenpE3D5zXOheu+T7p4DV3zul41X/lSc6QgFrIrBeVgISkIAEjo5An4BFg9+WzOqJUVOy81oTGq4WCGrsyncn1tSLCSgL37kLEyUCcl9zx6LjkCCFsMWuOym320JAaM7H4u20lZIJ/NwCFgubCzRuNJdMcZqwuMsNvtz2KwtNnlViMOXGlNmKgIVIgOUG72lJYXHMO4LwgVswmelKC+sCArV/a1qQl4iOLJgJ0pxrGYVA8rJMS68zkrUJv2sWsrZiQUNmtxIhacyCEFdrXNFzsh52246l4gOTJdYYC1XcGMkSS8ZLRNZcC8F9/TFGwOJ6fIMRw7+xsF8IeE9WQgTjMWyoCyIvG0TEHsPlb5/bJ98qLCR5FxCVcgoWZ63Fcsl6HRdb4n/xLOGqX2Lx1K0vVoGIxVh3lYznWF9xbq4reLcOJd8/Baz+p27MeNV/9QmOKHkhJqiGl5SABCQgAQmsnsAQAQtxiHhOTNSwLFqytO4vuwshMl3xt7myFXUZsBhkUcjOdDeWCRN9FgNdNzF2nnF9JIhydxeadOrfX9niZMl+yrl3yQT+eUkcqR0riTkkqd6xhiAANZYauAiy0OGHmGVk2htTsCjhXXp5wUW2ImDRNEQjxo2SWFgtGhJJPCFZbXygYMHKAhzxBJddXAdzYw219SDeHn2Wa915vsa9+LV7YvWd1PWImogDiJy4FNYoxNxDtCG+T24sqvb+YxaECMAIPVgblRbiCz07WaixmZJrAcR7THINhBn+u9Z6cayART0QV7G8Y8wpKVgHYqHGRgouhbnCOPdEnMdKDnfGi/WIe3zbcKdFOMvZ1OJbiVDH8827UVJ4DmgjIhZue7kiGvfkfeA5wEKSeJolFmFc56EpZl8xetekAAASKklEQVTus9htd8n3TwGr/8kZM171X32CI2oNSBNUzUtKQAISkIAEVkVgn4CFKMAPi/d2hxqrEUzlmfCNsYYY03gm1QQ+380WRdwcBCQWAEvVjTphabHrmkRAdgKztwXrj99Nu//tvxFbhIXVkwoW6GN4ruXckgk8fc4iKmfxNLS9LLJ47rFGYLHP4pu4KDXmlzyfuI/yvJYsvLYkYMGb+HnECSuxbmj7i75+V7IwQegdEkAdgfsGKSA6AhrCQInVEXXADZj3E7fPXIsP4iwhwCGe5RTaTEyenAyGh66P6IrVCnUoFa+49tgFIaIRGw1jBGDed957BCwC/vM9OGnMp8/5btw2iUR878Yw2Md4rIDFNakTsaWwBiotPJtYBL0mjTFYBfUJWYxzX5liOPF8IDoP5YO4StBzntOccZgNgtaKulQ4oq3MUd6S2opF7hBxGdEMkY7YYYQbwH2wtLyxef6uXmHTqeT7p4DV32tjx6v+O1Q+osYEo3KVvJwEJCABCUhglQT2CVhYWeGKhxsBk7xuIX4M/47okruYKwXAIoR6IPxcauciTJxZIDPxJx7IkoUsRCw4u/OQv05iFW4eFNxWiOHRXUwjfJG1EMuc01hKJvBb5YSF4Dc31oIsfkrK1gQsFqtkFcT6Jzc48j4+iBVvSmIx7ra881ifIJCdK40TuO191UjRrL03QhLWklialIjjLNAJ5M41SgQ03K3u3YxvBOzuEyPaOjP+wBomLNaJq4fFydhSY0GIlSlCTalwsdsGBBssj7Bye396HhAlEGIIFs6z8BWF7IfyqiFgcS+E8leketdYyxITEqHv1ckKmGcIV1g2W9icumxEfF1yjR7a1t3jSmNisZHz3GShXHrv7nmIaQh3fEsRu/nuMkehrdwL61m+M4h1NQrWoLiRv6HCxUq+fwpY/eBrjFf9d6l4RI2XvmJ1vJQEJCABCUhgtQQOCVi4y2CBgrXIF3dqzyIKKwh2UBFlphaxWPQx6eR+197j1kB8LsSfV66AMG5nWBhcqFMXXAuI3ULMEBbABLDtBm+HJ64YLFJLFsgraPboKpRM4EffdIELsMgijhIBm0vL1gQs2nn+JOzeKI0ppW2f+zzeR6w6saAc46qKSEA8r5LA8Yyvb09WXK9KQgSiHYvzdrxg3YP4QXwhgrQTq41g9a0rWC1uNRaEWF8R74kxkO/L2goCM89rTqklYHFPxDZc48a43ebUvcaxb03utWQYzCkIjE9Mbtk55y19LO/fPVMyiE9VqEzJ908Bqx98jfGq/y4Vj1DAqgjTS0lAAhKQwFETOEnAekEShxBYum4fiDLEoCDmU0kcnxygZMsiFsyV9yx4CFiL0FaavjqnHkOPxRLslw9YWGF1gKVAN9MRFgS4OrF7fFpLyQR+a6ywVMCNC8vGoZY0+9q4RQGLdhBfh7g3iDlbKFh2Pj5ZT/GOjimMnQTsv9WIoOHUBwsa3BmxkEVQQ8Ti3xHOGVNwm8TyCAGGe9ZeD9VYEFInhAtELMb02nUc00+MzVj5slmSU2oKWIh6CI+4nvOur70gyrNBQ39i8ZVbcDF+WBofcs9d4njay7yH9tbKkFry/VPA6u/9GuNV/10qHrGmwbBis7yUBCQgAQlIoDqBkwSs56eA1liNYCGEO1Bb2lgkZBrjp1aw4fb6uL/gekTsGRZmu992Fm+3a3aqn7YyyyVcFhDUcGFqC25IuM7wb7hfdguxO25cMQV69QdkhguWTOBnqFa1WyD4PjwtfMZY8lChrQpY1B3LIASCy1cjO82FsHrCCobxp1bSCpI5EJMIN8dahTGYupZk0uPcXJfGWgtC6ss7jzUqFmNrKCTaIAkIrmZYBeWUmgIW9yUGFQHGEUnGxAvLaUPpsbwjbNjwjSspPAvXTcHQd8MVlFxv6nPGtndf/Uq+fwpY/T1da7zqv1OlIxSwKoH0MhKQgAQkcPQE+gQsACAmEcPl9jsiFn9jIcTO9X1SrA12JUtd4ZjMYk1AVqCfajJOXeHAIotgrcTUwS2H4PJrKuyg/2DaQe8uLHGvIJgy7WsL7K6TAhGvqQ1z16VkAj93HUvvx/uAyyDPM6Lr2LJlAYu2446MZdM1KsZBGsu0ez4xgp6a3AZriVft9ck+iivx0CDZNdvVXgvB680pThBjT3dTou9+tReE12wsb55yYIOiry61/g4P4iXRN7+TXBuXFrDathFo/FETWdON5UcmQMa0GkkGqAvxpLDEWqPVGc8I4zhzHLIO1i4l3z8FrP5eqD1e9d9x5BEKWCMBeroEJCABCZwaAkMELGCQxYu4D4hY+3aFcYsiODkB1f80xcciVkRfdiKsAAgwzMT1MmkXnEDnh9Ldvy8tAtn1Lt31nbpzidmFuIarzEkFUYsgw32Mpq7v0tcvmcAvXee++yPiEmScTGk8C2PSrHfvtXUBi7awsGAsIaPpmCxgfX2Q+3fGK2Je4b41JKNZ7vUZ61jwYzk6Jitj7n27x/NMElQeKzgW5EsKWNQLEQ2XPcbMEkuyMSw4l2DcuKgT15Fv2M1WYIHVbROZAXFZg88aYoYh5hD7EndorBQRfGsV4rbhjsj3YEmRt9sevs3E+EJ4Rmwd4/59iFPJ908Bq/+pU8DqZ+QREpCABCQggU0SGCpg0TgWO8RxIatVN1B5t+Es3HHHIPAw2YCY7P5VSu/dTnYRp8gMRLwWrkN6dX6zOD8pOxWCD5P5F000kazVgWQAu1/a1T80EWdifPPkRlPrvlu9TskEfs1tJVbRE9Ki+HWVK3oMAhZIsMQiqDsB0nn/lyyMWQRIJzvesyovynfbhfh/j+RS3LXGnKP9L02iFZnucIW67woELEQrLG0RNK8/s1Ue8cToC9y4W2FibQIWfMgWSIZbAt8vLewQ85JvMDEwa4ny3WcfN+MfSLE3CR2wZOEb/fTGavrnU4zKGgHb97Wn5PungNX/ZChg9TPyCAlIQAISkMAmCeQIWDSQXWB2SrEk6AvCywSQSS6LAyZ/bcZCLBEQqvhBFOuLxUIAbCyu2PUlS9TUmQ9rdCSLjheeEOPljWnBhvvKaS8lE/g1MuM5x/0INxMWGLXjwtHmYxGw2rEE4RpXJOIPnSReT9XfjE9YyRHH7z0zWUNifUVsv5+cyQKN5/KxiTMWrBSEmzUIWNSF8R+x4s7JNXwOS6yXJVfvN+30+doELPjgWYTwieCLJVDNOGpD3yu+wSRh4LtPUoMprYaxysQKG0vISw2tYOXj2HTDMg9xk2QxU5aS758CVn+PKGD1M/IICUhAAhKQwCYJ5ApYbSPP0YhS92qsrG6d3AunWHQwaWZRiTUT8Umm2gGdquMeHRG32XNxJv8s2lmM1HTBmKodU1+3ZAI/dZ36ro+IyvOIGysiJIH7iVeD9eGU5ZgErJYTwhUCFokiWHRgoTllOBAsrojhc0ayAFsqAygxoLD6ushOZtJazw/CFc8m8Qt33b3WJGB124s1FllvSXhR+zngnUWMIPEH4uG+zYM1ClhdPrjbYwH1rY3oevYZ3C4R4XlPEDsJEVAa37LkmcbajAQyd0hhBrBsnrIQTxPXYawwcWWceixv21Ly/VPA6n8SFLD6GXmEBCQgAQlIYJMESgWstrEEXEekYRLGQmysFQWLDCaRxNFCFCA2yd9ukmwEWZVemdwlu01AlPueiPj9jbardrVLJvC169B3PcQAMgjyLPLDDv3bUv/iflYrpXpfPY5RwGrbjGUSgauv18TS+4pkbVZTGMfa6i+SOxCWFWRZnSKmTV8fdv+O5RGbAN+U4hzVyDqHOEesK1ytsbx6x54KrVXAoqoIMwia35JidZHZtc9K9yTmiC68rwiVxKPDMvbQZsjaBSzaibCD9TPvCtbQF60cUw0hB14IV89ObnRTxIQb8p4gZONiTFsRfC+drJprCdzMNxjXGctxrSUzJklpprQw2213yfdPAav/6VHA6mfkERKQgAQkIIFNEmCxwG7053Zqz2L819MiaEij2ClnYsmkmknmVQommSwu35J2eXHvIHbQ+2eeSA5pa+4xr08L0/Y8JsxYAOBCNLVrQm5dlzoe4fN7U1ykpeqwe18WvbwHWAEiWLGA+7vkPoMLDdYb/G3uQuw4XGlzCmIGwclZqK29sDAlYQQJHQhczVhyxab+5y8MYs1inCDMCMkIjQjjLFancO8sZYtIR/uwPsJ1igUtGUtzAqwjyBB3kEX4H6eMsAhXhyxmvjEJRDmBwYmbNedmAs86web5rlw9PQc5Ah/vJ6IVGwXEbnr1gHeADRnG5pzCtXm/5i70Hc8J7wlCFj+43JXGyWJMgxHPECLOG1b0jWJcYLMN13zeE8YFfpfGyWIsJBsncw3ayrhw0vsyZd+WfP/IkPp/BzzPJfXmHeN7zJxuaEE0Zx45xZwGyzs2SbHKzClzj1c5ddt7bC1VdnRFvIAEJCABCUhg5QT4ZhJzovvtRGRBUGLxl1NYiBGYGFGMiTULDyacxLnB9QG3Q3bScZsj4xfxWJhEIvIQoJ0JdCsabCHOVR8brEhoV3dBwUTvrkkg7Dv/tPyd52ZILLQ5efD8sfhnJ573YE7XmZPayfuTm7mP+vM+b+2d4rlAWOeH4M68Twga7Kwj+DCe8EOhja3QSJw8LBQQwVmEf7QJgv3x5O45p2VF7vPKGMxmAJZoBLlngc4iEgsb4h4xhsIEqzHaxHiJmxPx9Ggri9qh7WRMynXJQvRbgh915bvCc8D3hGfgkknQgMtnp/5HWCaBAn1PvyPGsKDmmzLUVbuNy5jTd4iHUwQ0H1oHxgQY8NzwPrDQ59nhueE9OXfHzZ/+gwliPFZWBLLnGwwrLINhxTdqze76PA+0lecB8QfREeGOcYFxon1W4Me7wjPB2IBAxbPBfANRHxGL92XpsbHk+0c/4r4+xZjOOMT3OEfcph6MD2upD32/1Hg19L09y3EKWMXoPFECEpCABCQggQoEmJTirnLLnWuRlfGqScCrcBsvIQEJSEACEpCABCSwZQIKWFvuPesuAQlIQAIS2D6BqzUWI8/YE//qPikI7/ZbaAskIAEJSEACEpCABEYTUMAajdALSEACEpCABCRQSAD3BlKAE0eia4aPyw/uL7j6WCQgAQlIQAISkIAEJDBp6l3xSkACEpCABCQggZMIXDu5D55v56C7N/GLHiI6CUhAAhKQgAQkIAEJtAS0wPJZkIAEJCABCUhgCQIEsH94Eyz2O3duPmXa6yXa6T0lIAEJSEACEpCABCoQUMCqANFLSEACEpCABCSQTeCOTcanX9zJPEg69/tFxC+krEjZF/UECUhAAhKQgAQkIIHjJKCAdZz9aqskIAEJSEACayZwnYh4bEp3363ny1M8rLevufLWTQISkIAEJCABCUhgfgIKWPMz944SkIAEJCCB00zga1PcqwvtQPh4RNwlIn4rIv79NAOy7RKQgAQkIAEJSEACZyWggOVTIQEJSEACEpDAUAKflbIFfiIi/mPoSek4sgxeJSIeFhGX2zmXaz0xIm4dEf+aeV0Pl4AEJCABCUhAAhI4BQQUsE5BJ9tECUhAAhKQQAUC/ysiviUirhcRL46IN0bEeyLikz3X5rwLpvPuHBEX3nP8H0XETSPigxXq6SUkIAEJSEACEpCABI6QgALWEXaqTZKABCQgAQlMQOALIuLREXHjiPhYRLylySBIxsC3RsQ7k/j0953g6xyPcHWFiLhS+v2/99TrVRHx/Y049oYJ6uwlJSABCUhAAhKQgASOhIAC1pF0pM2QgAQkIAEJTEzgYhHx2oj43M59iFX1LxHxzxHxqYj4t078KlwGPzMiPie5He6rHlZciFeIWMa9mrgDvbwEJCABCUhAAhLYMgEFrC33nnWXgAQkIAEJzEfggY1Ydc9Kt0PownLr9hHxykrX9DISkIAEJCABCUhAAkdMQAHriDvXpklAAhKQgAQqEnhcRFw/Is4REaXzB4K1v79xKXxuRDy4Cdr+ror181ISkIAEJCABCUhAAkdMoHQCesRIbJoEJCABCUhAAnsIfFlEXD4irh4R14yIS0fEp2WQIkD7MyPiGRFB0HYyGVokIAEJSEACEpCABCQwiIAC1iBMHiQBCUhAAhKQQLK8+uyI+LyI+NIkZhGk/SIRcb6I+MKIOFsi9b7GRfADEXFGRPx+RLwsIv4uCVdYYlkkIAEJSEACEpCABCQwmMD/BwDEwVCFNE25AAAAAElFTkSuQmCC;" parent="1" vertex="1">
          <mxGeometry x="20" y="10" width="152.11" height="45" as="geometry" />
        </mxCell>
        <mxCell id="1xor0xyeMIMcqkUQFffA-2" value="&lt;font color=&quot;#000000&quot;&gt;&lt;b&gt;Customer&lt;br&gt;Logo&lt;br&gt;Here&lt;/b&gt;&lt;/font&gt;" style="whiteSpace=wrap;html=1;aspect=fixed;fillColor=none;strokeColor=#000000;strokeWidth=3;" parent="1" vertex="1">
          <mxGeometry x="1600" y="10" width="80" height="80" as="geometry" />
        </mxCell>
      </root>
    </mxGraphModel>
  </diagram>
  <diagram id="f9DyOhr-gzEmVJLC27vw" name="Future State">
    <mxGraphModel dx="2074" dy="1142" grid="1" gridSize="10" guides="1" tooltips="1" connect="1" arrows="1" fold="1" page="1" pageScale="1" pageWidth="1700" pageHeight="1100" background="#ffffff" math="0" shadow="0">
      <root>
        <mxCell id="0" />
        <mxCell id="1" parent="0" />
        <mxCell id="74PjiJOBvHVK2DvbitbO-1" value="&lt;font color=&quot;#00cc66&quot; size=&quot;1&quot;&gt;&lt;b style=&quot;font-size: 15px;&quot;&gt;Future State Architecture&lt;/b&gt;&lt;/font&gt;" style="rounded=0;whiteSpace=wrap;html=1;fillColor=none;strokeColor=#00CC66;strokeWidth=3;" parent="1" vertex="1">
          <mxGeometry x="740" y="10" width="220" height="30" as="geometry" />
        </mxCell>
        <mxCell id="Jd2u9fooEGjb59J4GpjM-1" value="" style="shape=image;verticalLabelPosition=bottom;labelBackgroundColor=default;verticalAlign=top;aspect=fixed;imageAspect=0;image=data:image/png,iVBORw0KGgoAAAANSUhEUgAABLAAAAFjCAYAAAAts/LpAAAAAXNSR0IArs4c6QAAIABJREFUeF7s3Qe4NUtVJv6a/8yYGFCUoOQokjNIGHJQECQMOSo5g+ScFAElZxCVDErOOQcVkJyDZBBQAUVEnfHfP25tOPfcc87u3rtXdXXvWs/zPd8NvauqV3V3Vb3rXe/6b2l7+x8ppf+VUjpBSunsKaWLpJTOmlI6fUrp51NKp0gp/WdK6Z9SSt9KKX0hpfShlNI7UkofSyl9L6X0L/ma7UfTWliaB34qpfQz+Y9/PnF+tk6bn61TppR+KaV0ovwM/rf8PHr2/m9K6Rv52frHlNJXUkpfTSl9NqX08ZTSp1JK/5pS+kH+8+9Lc17A/Xjff3bPnPxKSuksKaUz5nk5WZ4P/l/Nl2F8N7/n/vmH+Xvwz/mb4Ltgnr6Y5+fLKaXvp5TMh2v98c//FXA/S2zy/0sp/fSed8Z8nTyldIaU0qnzH/P0Cyklf5vTE+Z5XfnDe/Gd/O6Ym2/n9+dLKaXPpZQ+k1L6Zp6bf0sp+dPenyU+Te2emgeaB5oHmgeaB5oHmgeaB5oHKvGAw/6m5sADsDpvSumSKaVfzyDCkDYdXN+dUnpzSumvUkofzgehTcfUfjd/DzhMO1SfKgNUZ0op/VoGSIBWvzjiLQKuAKrALKDqJ/O//11KCeD1/0bsa65NeZ+BUafJcwKo8t6bE3MDBBnbAN7AEWDJ51NK5sPfAMivZZALINbm5xjPr+YImAuo8u78ap4f7wzQSpBhbBOUMC+fTil9IgPDwEfzBvRqgNbYHm/tNQ80DzQPNA80DzQPNA80DzQP7LAHhoBNKzeJ7F85pXSVlNKF8sF2k3b2ut1BR1T/nR1L4Nn573Y43Z0H879ndsiFU0r+nC4fwh3IPW+lDCPIARxDC5j69gywYgPtmmFUnq8Dly+WUjpHSgkQAhgZE0Ac4tMVqAXAAmQBG/82pfQ3mbk1pK2lXHuSHDi4QGbBmR8AFjYiILi0AYQxHAFY3qH3ZaYtthY2ZLPmgeaB5oHmgeaB5oHmgeaB5oHmgeaBjT0wFHhykH1UZl0dP6UkVWVMc8iRqgLEelhOLxqz/dZWXR4AXF2pYz3dOKV0/pwC+HMBz9Umdw1Uldr69x2b5bn5mZTitvQ0NuCh+bhqZsJh7kgFrM3+I6d9SkH+YJ6jl+fUw9rGOuZ4ALqX7wC8a2ewFzvueCml/zlmJyO0JQAB0AIKSxX3Tf/LHZifva7z7pw5g4oARd8T3xCsNWmxzer3gPR1cyiYsvoOerbtU4DomKLN5uEB30pz+csZ4Pc+ehf9ESBpNswD3gdBFIaJPYTla3/lHVoFppr/h/l+iqvNtWwbWTcCZdY0wV0M7PfkYK992a6a4O5KQkOGEv84L8jm4KOvt6yBjR4Na7AsArJEnjvfb8+iQK3/t/oGHdQ4n9uHyhaQFeA8J8gqqwNppn13NpqSQ38EE5KtQ0rqPPmf986P8xrfy3p6VyaKbBzc7gNgucaDcotu033PlBKAoYRJLbxjSukD7SEr4e5ifXh+fIQw+G6TP0zFOt+iIwv1y7qP5RPzy+dF3PjF22IcY/8U8GHhlQLsHb9cSgmwOEeTVggoeV5OafPvc58jc+HgBVi8Zrfo3iAv4HOdn2d1GxF/sLKWlgbqQEcT7jfyPF3wECacg9vruhTpP8kLOK2xxjiu44m2AbPfcVD7ncxApSF3mNkE/0UHjLwgb4iBIs3q8IADpPfxivl9xFTdz0x1wHSweU3HMP7TvLYv7bt02GzY2/tm+SMwYi/gn+0HHBixrk+a/zg0rjQTAVUO6H3OD32fBIEOfwD8vo+Y1uQdVhICDp4rTczV3+3w2de7m19nv04y4nYppf+zJiOCJMwzOrD/6Xnu6GIuxTzr3hH+EDD0fgDy/AGKk2yQtXCUYaZbJwTyBD+sFUsPiPeZf98da6w/vi2eN+DHubKetsyCqIwC3xfyF4Ks781/248BvejANhmMo2fQe+F9MEe/3elKXyfPX595d40AoPfBmc07AWjsvRfuswCdu9OlukceXMl0Ljdn0bpP3iACDJrN1wMO4VLSfiuDVxaAPs9fbXfsg/aGlNJLukPO23KqVG1j7DMeC4UF4n93h+ir5TTBGplWfe5l/zU2BtD9l+a/ifXPbSGyUbIxAoJI2ZZai/W6BPMtf0sGhM0TEGDOQCPQQ3TwGl0K8k0y2NhnnizUgCygOH/sYqpyHz+VusYG2rt2y/y+DfkeirLbiD0zb4R3mYlQar6O6gfgYl27dT4E9RkTQORV+QD+1gyo9PndXK5xUARI8Y0//nlV1MPf2CP+e43rjDUDAADgAmxZM/y7MwJJASDkkgCTGp4pxXlu2jEmbjRAOgIgY16AWH+eJTlquJdNxwCUAk4pgCMDCWClSJn3ZNNAr0P6izPYRzZn10Csvbq62Dr0dIFWZ8tax0cFjDadx76/sw8VXAVokZEBbvnmYA0B1ndtro7ymzPk6vwIvFJgbVMDGJLske3kXO0bstbX6wAEkasHZjR03bWbDnzd77zsj+kqmz0uUzHXXd/+f10egJxfNKelXSqnYtQ1ws1GAyQh/G7D66XzkZuD2cReOrN5fHwcvKd6t6P95RBpEXpTPlhajHqj+9GDO6R983PxHO0EWlnca0sPHMs1Fi06ZgBh7xDdrLWL1lidj9QO8Mp7dO+U0iU2mCv3i9L+pI7h8Ogc9RtpaK2ZAR7AKDGH0qdVtd3URBHJLGAZer6blfcAtqq5lGY9NGPA+yjtBBvrj3KV7PJ3MF6PGGgO3efMRT2AVCtWled8bBmQ8Ua+viWglgi+7yftUmkp78+SAi21d73/DrvCfvAy3V7pfjkVaJP9oRR5+y5ZO/ZgczJEDWCK8wqdZ4WLAC1DUmTX3a/vjLTCx3YZKU/rvle7EPDgV/6kq+t7tNI6nkpXd90c+f/OecAUoDlQC8giXfYf+vx4odf4HgBzb5/lTGRUjWWCuAAs+2HB3SPfi6M+TBA1oBHth6kNle9BeYPftEOmno3+/fswPSQfxtHPN41Y9O+x/JWifg7ef5xpkDUzfSwc9++YL1iVIktLnI+DngBzgt4uIvjQvCiVf1LW92h+ME4dODAWd2V+fNNF0R+f2Ug1v0P7Z1FakrQAFOptDoPWuCd0ANbd1j8m7YqRPYBx8gfdQfhmWVNjm+YdTGxuHdx8b1qa0zbeHP5b302MRmzIbYB/6/oLc+rh8FFM9wvfIIwR2qK/mUErIB5WA0bhJmDEdHfTv2fvnXUEaCwFVHEXDOxXVLze97+7sleSk3hKZsVs87yYk4/mYClgv3bzfmBtWgcwgqwLNJYiDUHjwfmsvcS1wvMDqLp+PgcC1Fe6uts8W5FzcljbwBQAC9YncOXPMlg+xVim6tOZBLHJOco6c9AZhZ+894A+oJ8Ag+fc2oylpXq9zBJg5kEsdyQD18Offv+o7IyDHiALoIMUBEz0vxazOPmwPGcGLIpafDbFODxTPlBXyBHMGgDQUn54c7eBunuOBDqQ1mA2rt5jenIi0kPSYmoY/9hjEEm5V9Y8sdGdmvEjf1y0D3Dh0LHNoWtsX03R3kcyiCelrnaNCBoxUo2AV2OZlCcR2SVuZsfy0ZjteN9u1emb/OEGbJ2jxkHPh2bM68ccbGvrSA/YTGNeyRoYy2ygBU9rZUg4YAtGOSRaP/xx+G52jAfsw4BYzg3YvlJ9GzPy8KcDwEDH6rIjPUD2V7Rj6avWyIqzPz5FSunqWZPXP5c2DB9r0GsXcrZ1xsBoVpjLfgaTrbT8UKk5VGlbwMTZz/O95G+LObxuzojbm2buHfedxVwmoeBbK+Vy3dkKoOW9w3q3Zvn3/ZiUINJts2+P095BAJaUIvnL0lhqMwdOh3AverM6PYDd42N8rR6ihnXewXajghwTZ/YiS1mbStvHIoKm6wMh+jEmzXM7D03/a8CIioVP7ajyNAimmCNRcZpwhNn92SZ/fHqPjjsC33kLlwjXX000P+vuiNC3ggEqQo5ponveV+kX6zYAY/a7q215B2lXSREZ24DlWDBzYB+Mfe9TtOddpE05poYKQV8bbOtFLe8j0JVmlcAHBqiCA/Qso9kiU8zpWH1a472Hzg6CDopDtapwx/UusBYIvA2beH+rwHxtPrkiIHilyavgij2y7/+UjCAyCtfLmQJjPfOl2xGMJb6OAKOKuW/SLmQRYAzRzbJGvDGnMS8txVCQBAiNLbgXjBRoBeKRAPFnk/tGeLF23zDL23iOViZw9KL8/TgOKLb/haVXRLvBgWrMD9iYL5J8aiggalqzejwAMFEhTWVB+bG78OE6zPvYgvSxMCloaZTWXcJ6IyZtYSY4OeXCXM8TeuyROIxI/QRCYJtKMSxh5gIj7uZZMFrkvNlxPWB+iO8/P89PTdFbcyiy+LBcgWXM+fOtcAgXdSJM3CzOA/Y42AEKi0QZcAwAUgsjN+o+p26XntMrczXdMcfifaRzKSgnFWJKc3Cgs+fQjd1AZBvToVl/D1hXrPX2Z4IEKog6GDU7BhB9R642ObY/pBSpcA00nNKAvxhBzpCA31oyRMgm2BNiv83NBGN9l5BLpIUBA6OqBtbuG2vEu/Mezt5iCeu++bUfBULvrbTpnOvshLAhOLAtEWBVeOUuuQLuaq5X6fw0txBEfmz7D7ZKpT6y8ocP4gcU+L1Wtamad1k0Q1qWDzCtq2bHeADTB33ds1rqMGqTQHxWnvFSabtjPl8+wui/5qgEU+J38rsigr7r6YJ95tH8iJjfuaKghTQDLGVpFhHgMAYaAFrkqVmcB2g50MmJ3GzbcJlLoGSzOA/8bk5tGFNoeTVaUWUgJIBsCgPOORyKgPv2SN+IfGanuMcp+nQwwnhdBbGmBiin8MHePmn2qTgYYYBgFQ2xqqcywUKavPbINWrACtjVJNvTZ54wruhH0k3j01qJL33uZaxrPOu0shSVoDlML2uuZn9LDx1QBWBaGVYlUEumxJggnXUNGKq4gSrsK8PEgk3dY68j926+lQmlOzJFDvDQybXQAEteUxGte+g9LOV6VW3Qji18bVN13FkV8fvr7oN215wOFaFtw+/e2/t2FTNs5JsN94B0TwcEKWtj651gJ6pkg7Hj0NxsuAekY2F3AhunLpduA2wj7tsXZZjQ7tdGodn4HgAee5ZUyI0033+aELdsAbcwNwN0BDVpjkUZLSx/ShQRcggExNEjcujHbFc5sFmcB76WdfAwJgGWEfu0uNFv37L9o31q5JomEIX1VNK8S94j5xP6tHsZJCXH0bcvlaeJX9dsUpXtZwV9fZt2Odtm3Tw5Swhe2fsDtKbeu64b7/7/L9Bu/KSBVvbtDCRhC0Z9J1X2Bqjvz1ABpiGF/CidfwVgYWoQvrzTjESe5VuidSul22waD8hxtqlrh/L1/pcjjRnluYXOj2XYbyqn3CEL4bUIyOaetXFVOtoc0T4Zw2gl0TYARggSRDB2xhjnHNrw3jw8H1ZVLZzCbNakDz46ONqIGUCHUlS22fgeoNOB4eb9jDYbV8xLldGaje8BOlAAZSl1UfbqrE13rBSGgM4ctr330loVwmkpggFOPqJJQu8q8EkbBWrVonsW7QUHQwfGyAwK4C8gFsO4hLkXGoSCB4ChOQTYkQGwdmo1kiQkhgCCite0/Wy/mUK68X5JWSZ/tG26Xb9et7vKXlclQDjLyrCt6GA95gDBeu+bZ+IoQNP31D6eJAjs5qjvq3dXYGov88te6ipZc+zHDx+xZxuAvSjbdrce/2s3T/gLY6JZWQ/4aF0mg1c2j836ecDC7SOmBOkYKYUqN6BUeg+kGTTb3gMYL8RGH5HTC7Zp8by5oh7Nhdojf9vcZ8nfimCJCNnolUj53H9v9ACkIQCMo01ACVDWbFwPWL8E7ETkS1Rl9cx6XqSdzmHjOq63Y1uzWQYO2mhHipirjiplGLAcYRiBV86MK3uqX4zopLXZywPOFu/K+wDCzLtgqiD7Jka+Q/yI8cq3keb7bu9l/aQXN6d3CXAaqcm4qd/5EGh1nSzO3uQvhnsSWAMgV+BL2rKKqDWb9Y7Egj3vymQG0KLaH+Cne+b74UzaF8Ai/i6IeNQ+HgN579pOK04qIZD3373oGBsuevwMNVmAbi1lqvwrYBGSE9sEwof73gvoo0DTZ1MWiUiSKIjcc4h3Y10Nn4ejfiFS6Nsi7ZOO2VAzP6jVPuio+S1KNdSDR1+PtvzevJn64rhNr20N41H1Su9ftKmURWOi2bgewHIR2XO4KWWKEUhRbozxcT0uMIAxQyMq0gScVKyM0EmSAikQ5flogajIWezftsOmd5XGC33XmoqI9L+L/lfKDrhjAZaSwkIv7j+swVcCVoAsmPSnneHe+NNZv3bwjQf9wN5VUS7Md2ldY1Z4DRpy9c1iMalWSHP8S5WO1hmGpNReiQUFGDwLUgj3m0ws56UhAUHnLG0Co8gsHBTcw+oCYKnMvTIFOAStPuDhtCG3mZOGNDcDBkjL+fLcBj7j8UJYPWz+braZB2yO5PFu8gFDwSaeZ7MRIVi72R0t81dSCfl6SNrIiXOEos1P/DOhehTWAlpxqUqf1ktVVyL1dvZ6TmWoVnF33GcJIxJADfwvZTZq0lhouTUbzwMOqRgdQMlIU7FW2unYVdREt7FfsAGj2S+R/llq2/Zq78+HM9XFnDmWaH+cWaLRaXakFJ4Y4EBBXOng98kpT9H3EXALP2rS+uCbVoOt5EnoN9nXNhvXA6qhOgNKT69N6xQLEFNslcIuaIzodFiVTPsphU42McEBrC7BgoNALBlGMpdWqYTG4nz1ZAAWkS5peHvzDDcZxFS/ETmw+O9KrvpUftavVFNpEOi5zbb3ALow4XVMi3WGlim14J5Zc6yxrtZ5bJz/L2ddWdd1ILlvqRRs36KrzpDNOo63yrdCfN+mWPnvKEHJvXflwCkaqc8SJoVQKkSzcTwgQi+dTxp3afFZ1QgFC5uN5wHFfDCwoo2wMp0gh44x7Ybd4fAJLRg1pktD2sK8k7riUHcQAyGk04KNlgKwItLiAb/YQVhX0UU5oqdEUG6/cHV0n/vbt0baywJXrjtDFltpf23T3w/ymRrLSJCkVCD2qDFjUfnWYQSvgGAYkWDxYevffgDLXlyK5P77OV6uoru/f0EC6+tBDGfpq0Dva+x5Fp2db+DQZVBSmuaa5vK5rE3gxW8W5wHpgrSB5r5AxHlos5ZtjB2GjwKxHJqlSEg7jBSq3ewOlv0rEVeb1gcckT7iIy9iIfrXwN2yz4MF8oP53Xh7gQ2AuQaA2PCXMCLuF8mVsUr0t/Q+bIael0upl75XTKG2fo7rdeunEu7RJgIsSjxmpPzkueLYKaMH39ofxQMOmy/L+osCJ0uyuQJYwCvMDxXxllAkhzTClLrCwItrZX+u0zNa0vM/5b1IpbOOOWO8bcqB5L69RwCp1V4FK0oa9aOOqNC+H8AS8JdSuD97RdYQsBkwepI992ofT3ZF1stBRiqKcPwq64gG1wWBVpC2OUd45ZNipTy2golf6hCw8yDE0kwb82fcWfbiyjVW6UGlwv1mgfYhsECj9M4VaB7Xa2VbA2L5eNO0sondays9MjRrB5I2P2XnRm/eIdoRmG8lhN1FiizYJSqEWaht0B2cmm3vgTNlIdW9wqTbt9qvBRvBMx/yne/XQrtqrwcwwkVuo5l02P1Aa1HgMUX46Ybcu03prDxgrQEyYKf4eyk2RwDLey8DBwsTs2MJJlhKLH0K40/MZMwbQEHby5abBWuMvZ50chIVUxrxdgGbk+VB0JmlOeWcepjtB7AEXi9xSLEyOmqC/QgZP72nQdld0hQPMkEeLLDVmFzzOx7QN3eo3yWn9NYIfaOTcfDY9O4Rhjb7Jmz0oa9So+aaVz6HSSDya5O8VyxUTr8FRepJs2k9YONq00rAe5Wq5uOLGQfcJcTbbFoPfDQz4aKF3QlZWrBLCKw7MGO++jaMeXiedqam693GSRnoqUzfUl2abe8BQQMb/miT1mB/+YYRO7KvUpEKoNpsfh4QMPFM/PVCvstzArCcW2neSb29yvwenSNH7JkCHpQ0pAR6kPaxNVZALOmLqfsSILeuIeQM0d4da9zeLQDq0/ac97HCPJdHZbkNAbCM9fzdH7jNXm01wvbAs8NsP1b15waL6qVS1pztaxm5e23Twhp9GtH6fNiwf5rFeQBAIsIrIqvyncOxCC0Bu2Z1eOD7XUThljkFSYRKpMqBdEjljTruZLmjeFOeF6nlUQasXFU+KxGlpO9lAxF5T1G+qqldgPNHuiIkZ5xwUAT5pYR+d8IxLKFrqaDvzIy26Puxcfb+jVkxisaM/ereNIro+2jtj+uBVZrMSxYg7j4XAAvYIrXN3lgV2SUF1a0JJEKcZ0sZ/yku8qCc2tUybEp5/vB+pKkDhABZJZ8FI7JHosu8YgZjhpFcQKL4tyNcMxTAcr59zb71bx2A9QeZTLMaxvtsvqXHEG2bszn8y48UXZVS2GwcD/iwEbGWGtUs3gP/kVN6vcgWaGW7o9Mj4u9qWT1g94j6i5wTd1fGvVk9HvAOqZRiAY4sfY6Nhx1ZIhUNs9gGQuXSZpt7ANMcwFkCdDxslIRN6T+8bvPbaL/M2q3ec2W2I833xN6STMWYRSKkIWNaRI8/0jet7WMOmM4dKnPPuULhXAAsWryYV84mcz+37n9/BMUESEua75CzBuCsgVclPX90X5hYqhPaZ45d+faongXmyaWsUvmsef59HdN5CIDlTKu6+0P27Z8fn+/3sPHRZpOptLLv2MgtpXqf8qMim6URy3oe+XFHIjJok32ucZttra3xAEE/DCz6Om1Bqe9x8b38Xt48lQAv6vNA/SPClHPglHrnABphWDyo1VIZos0z94eZ7XdUFCx6HHNv/1ldpZ/rT3wTNoQAEbqGS9l7lXapDbAUCwzY6ACPNA6VAl858k3uF6UdufnWXCEPeIcdMOkIv2jG6YRzALBo3jnA/uoC98YqWxK3LqHhuXo1fNd8R1t2TaGPxcBuVnp711mTvjew2SMvF1BRKZmeLLPfxM6z/zzK+gJYAv5SFAX/6VrtDSYqKHhUkBZorRDOyv5rSQCWm4JWQvGabecBwuHQUSjp0qIc23mm/bp5oHlgDh74+6yPQfgxyl7eiUhfKarxfe3SWrHAR7LKCt3KJN0AGoku18AmjkhJm8SpE3V6+pxi4cAXbR/PVcGA4mMaRuWj91RVGrPt1lZ5D1hv/k8+YM0RmK4ZwBLIpZkjG4RW09JM0BoLiiC9f4425zvfHwzyVVW36D7HaN97heXoj8CkYBBdUEDP6o9+Vmml/vbsOMPu/TMlA3uoH9wz7UVn8c8WCHoBsDCDMfOYdU8BMdq/R9l+AGvIfbrH1f72KB1z1YZVa/yxLQ3Agl5Luxp7szFkMuZ+rReekB8gsJV3nvtstvE3D+yuB96XI0lfCXLBFQOYGYcNVSSMHt7bg+5l6c2KNlvTaii2gLFBU6mlEQ5/6uxZgcYqNe0VgB3eUr9fiD7fv9+lg666Zj4UNPbDILdVfTF5gevtYwlUPeA9g6sVwHIeOW+W1sDAWFpWAiAGc0+RrDE19g577mQNYK5iAJdgj2/z/AOnvpFSUkTD39ZNezl/Azqk49MNA2hJuSMf5PlYVYf2bVXxzjrhz0lzFTt/yzASzOKD2nXU+AEzyZwBsSJtP4DFp57NdcSgTQEs4JV7wsgi6n5UoaIDASylG5e0iNKXIDrWbDMPeNHl819mYq2QzUbfftU80DzQPPATD4gm3WqNAOWm/rI5Isp92k0bGPg7RR5uM/A37fJjNrF0U1DXazgA2aQ9oNN/ePjMdXOmeLawB1RxvEeB/Qk2xJmD0jcEWm3Yaxdxd8BwiMH8lE4pfd6ZgcyB/+5ZdpBcGSaEQ+VKL8yB+Xj5f3oPAcj+OGQS4ldp+ZfzQXOK52nsPlWWvFmuMDl225Ht1QpgWVulNGFbRqcLR/r3sLadVa0FqlqWMN9NQIh3r0bz3VBo5d35HSINBLzy/fGd8X3Zxqz/7n0FaAGxyOQAR3yTrS81mu8s0XPaVNieUQYLwrYSYGHWQOLp6yo3bwpgYaNjHr61xx5d0QY+WNkPRbM+lFJSFnwp9jcppYsGap8sxU+H3QckVL5r7aj00ueh3V/zQPPA9h5wmJJaTv8owmw+IxgaB43VBk7EcM5iwRFzsK5Nwr82WNJQajH6aVfvns1/qGVAMxkHwMcmVhWjaAMwYXtFpIQBc4AdvxZ9EwPa9638cD4TOFCLjH8+g1YOUKt0nb1pO5rfGzXnK4fMlc8cGFegsfPG6t+BEf7YZ6rie7LsC2cRB0lVGudYIMW9vzQHGhy852I1Aljekbfk73YNgYcx5xJjCDBAg0rVuRJGp02f/FqbqegJzPPHPwPHgSfbAlbr7tM3SeU9PgFsSQOmOXW2CgFTvgD4XC3wmRFsACgJ+q6+7YJ/d1jjyE0ALEy6C2aGXZ95to/3vqzsCybvuXnC1k30XP6/KNENcnRrLmOuZZzEEd8/s7zoWnzXxtE80DxQpwek3UnZchgb25T0lpe/YhmM3f7+9myu9lZiie5v7u3b41y7Sxd4WsE56uMzIOQFMljQ5/p2zTEeEJwE/kUfaG2oRaGl90SZyk50aEpqsnjusKfIbEjH8e3yx75PClyfg0SUP/a2C9QC7l28O7RdLKVEwBtrC6jl/9Vs0sJoGmFYzqXoRm0AllSmp+fDes1zPWRs3j3sRVqMgCS6PyXeN++LohGAiVo0rzCt+AKDXbEdwYJSQN66OaOXhZEl1fISKaVfqoiZxW/eC2sHNuzY5t4x9DyfK3txSunGa+ZnP4BlLbn1ngCdNGDB3v1p/y/LbXsW1pmqw6QgVvYqCydkjZjkUkw0iD4CtBnK3ayfB3zYpNuICjdrHmgeaB5YigesAxZP69zY7CWHKinXv1nIWaqhXWUx0gzoAAAgAElEQVTG1a4KuenH3UhhAhKI3tVmmM73qm1QlY8HELkq8R051E91enOXCq5q7WAEXFfCPtKAVcB7jCoHRsyvD2TNnRIH6G3vzTnFwQfrTqVxYBaGxKkLAJmbjp1Gj6CJg/kcrCYASxoT3R1nuFpTutbNKeASY9rBHMtW2pd3D/iusEypsymGo/0C8Oo06wZd4P/73vgOval7j1+SGXardOMC3Q/uwrcZK0v6GhCmBvAcU9beQTXjsQFy31oyTDCU1bsnqw2A9YkjvLeuCqGAk+yuB+57p43fvtwezX0dZvAJgO/etfIBBmtSRGCWVG0ODdriYaFu1s8DotRP6h4mkY9mzQPNA80DS/KATROQaWwRTBtE4Ihoe4m0669lfcKjNhNLmrdt74W+jkMDdnFtRrTXuEpUnqrt3jcZj73J5wrptzwu62xJZYk0BXMEDoFZY5qDom+ElBP7e4Dc32UdqzH7Kd2WMwvdLOwsqYYO59gSNRws9/uC/6/QHf7o+NRutQBY1lBC+NbT2vXhVnPqXQNYmm+FxOwxsBu/nQ/lQCz/H2MmIh35qGeL8D0wgpbf1EbHCnuIILkz+lyKrcFGVL4V0KCjiTk9tQFEVSZ8YcBA6M0BpNwzA8Bi8Km6fZitA7D8TpomZhfS1F4Gtefi3p2WLIYV9upBhgnnXlfrJKLSJSwGFPmVaZQKsRTjBOg9auJRqvZLud9t78Mm30fOYluSzr7tuNvvmweaB5oH+njAxlEufwQTR4qLBfx0fQay5TUO1Bb7JbGmt3TJkT9XDhoFPjrlbJN78EyqZLlXmHSTdnblN9IHbHKjTSQYy0v6YPSBk/7KHbsbwhAdg22CYYqliakmLVC6oCh39H1Ez8lB7QM7CMJjZBGnvnShIMKQe6WHJauhdqZbLQAWhsVrZ1ABXdABQUIlWWwiwDpWlffPnxpYRafIDCdAxJTnOr76y24NVtFV0GauARuafcBzawN8Yeygw5DvimvJJdl7fnToD9dcT2dVUOVy+Tprh+8DrdfDmIN9ACzNAaWtTVfeNwaAr3sRZNlvnt2H5XVyRbQi9H85/wPFHh3Nxn7Kh3zkOfhR5OlaGQUfu+0ltWdjT+sB2LekapRLmqN2L80DzQPbe8DGUurJZ7Zv6lgt2MiILFqUS6yhf9EJnd4kH05HvpVFNWcu6IWtKurUeHPSTwEztR9wp/adw8PrcxQ8eixSfDD4sSlKGBCGpgnNkKHVwRwuaMcQPga4+Q45JO6i0Ue7T2ZI2MvWAFpj3WBKeM9rfsdrALDMGTJFTcU2vEdIEIBgTCrMIWCMb1FkNbht319AgcCNlNupDIiHjSZtzLfpMHbNVOPbpl/PqLRMf8NQpjJF+LB4AUBj2kNyyt8KMJKCftkjdGRVCrVmrszaeclcQXL/uDDYEGbsxfful1XYVml7v+0vwmPNE8C9jx/7c9WMig1dPMd02NhtQQpNLCCr2eEeQMsX1dyPiDafNQ80DzQPLM0Dz87gz9haWDQ7xmJRrPO5iJvNwvvWXbjj/19lMxspAEGtZuOJsj+HNKMpfag6nUOjjIFIc1h9So6wj/2NOGrc2FdkHADTZD3WVQoDhnhm6IJggWCtSMVYItNqyHxjtDnPSEPDyFrnxyFtb3Kt+ZDCjLWBpVOrTQ1gKYJCBwfYV4thLn48M63ekc+SYwMFEffqHG8vQoR8qtRaUgc0rh4ZVDwnwm9D2wS43jLrQ5ECmAIwBwoKWmDl01wby6Rlmz/ZWSvzftLsPGiN0f99c0VH1wOirWcHjUkwyv97xJ713FpLe2t/0RTPr5RD7L0VQ1l1V9/TV6/QL2KIKGAQsyUZhXs58s0O94AUBhH9KVHkNj/NA80DzQMlPCBqKqXjXSN3Jo3FQTL6gG3YNtY2+tbsmqP6I7t4cHP7yy4PbqDAD0T2bdBEMJsd7gEMpf0CsBH+wrIAImEvTGFnzPtwen10P/ZrkmJbAa7f2GnhvTNXsTxK/HaKe5i6T+ca6VN8qKLWGSYekLRvzDAp7CVB0SG3PSWAZb6wULEqatDg9Q0AltP8wbjCPpmLXtOq4qAqmFOkuAE3PphTvmhdRWsIDnnGI66VxiwAJYWZRlYJHdT990GjikC64OxYqauYV4gtql6vTMqi4ABAfr/53vrWqhqLAfz4DPgeNh5glLZoawFcvW8YbfsBL+wradirb7jny78DZ7+1ArAgh3fOG4SpIxZjPmTQSZVLxs4RHXOMU7dlEzQlzXTq+2/9Nw80D+yOByyoFlcL/pj6iKJKWBCXKeRKmwsATS2lpwvddu9ubMDenYWee/9oggttyJ6ZN2Rz1QaJdptDrSjz1aI7yikv9oxTvle+JQKK/tCvoUnCbO4JRQOwHaiXlJITMbX8eKp8MBLI9u9T2afz4Q57oEabEsBySPV+Sy0qkYJ/mP+Bi7R/FLPClhNcmBujkS+BAdjHU9hbusqtN89aRmPur6a4l759wk9oY3mHbtD3RyNf53nFOP3iiO2eNlfO3IsJAXRpZX/1gH6sV661Llmf1s2/77Hqgv4GdO6vqOi/vzXjE6vvgmDNKsD0X3s/FgRoidHVUGpzxDn4Ua4ltK5Fqo/r1cvnQ9eY/m5tNQ80DzQP1OwBZYGl4EkPGNNoLj6v0CbcBkLgYcwNy5i+mLot1ZcwsG0sa7cP5OeRnkWz43rAc45tiJ0UbdIk7hndSWu/qAek+mAH3GoDjbExByqtSypMjaDIVAAWJgZxaCn4U4BXDtlY2QppqJB2kIj0mM9AZFsnyMzMKTTEAP503rCJa2UZRvp+1TampeDoFHrSMqkwGccMhPluei9WWljel+fme5SyHmWeZSmGUgVX5rvpHqUa/gjP2f/BIOaOCrckk7NMfKyUIOdcfAcpleMKxGrWPNA80DywKx4QWSUYiXI9ZmDDpgUoVir6qaQz9k6zY3tARJRWg80kTZzazeZfkI3gfI2H2yn9JwrLN48qoOdi43/uzHKa8p5b3+N7wAHMwQdQcubxm+/VIgYdfbMa9e6mArCkHBFFP3EvD453ke8ssApwJegkqDVnRuOqGNvtx3NR75boXUn/xGw/rEpd78ZmfqH9huCoIMgpC4Oy9rJY+QqyjbWvlYZK3oCe+ErjyxxjKgLkI0AsuluAM0VN9lbmVfUTk1bBkh/ZfgDr5Dl/dQ5Ry77POVrag3OlxbY5/InX0A1fMFGedN+5a9c1DzQPNA9EeOBZGcQaO1XIRk4UsoRhTJdKWSxxP2P1YQMkJYUGzhRR/U3uw+bf4XrpmiFDfVMyfdD7JNjZ9olDZ2k+1wNMVNjC0JzCHpPLwU/R91F9TgFgCaITey4tYaIy5Au79Fx7gPeMzFiZYl6tccBZa0hpDTEABn1C4tsCg82OSf1WFM1esIQm6l6fA2UJpANkxzCg1QWzfp/gzsqAWK/Mwu2fGqOj3AbQD15DLmBv8R3VLOllKabwYztoc4cuJnq5JPORlDf5Y+RuSTe3wb0QmvNyqaAwpS7ABkNvP2keaB5oHtjaAzZetG4OyuXfpnGLvMpgK8r1Nm2t+y09L5oX9FWa/cQDDqlSzmg4zMVoWBCD/fpcBlxonCQtRF5PWKA/h0BsjGbL9YAzz7lyuXaVtkqbjBDB49q+2VMAWHfMaUIlq7cRZNcvsNohfAlg9Zm6ogWkcgCBJQM2gi0YMXSvxhIPL/0+RvXnjK0oHsHxkgXSMK+w8jGxxgIUYQR0r+iu7l2H9QUwwzaTzbXtM3C5DJRZ8/eK4X873w+m5rF0tQ562G36VGhaCUdGTXDJdqn03yw/TEv4YG3rOyWpUQD3Iqrbttl+3zzQPNA8MCcPoHr7Do5pKNcW2lIVfdG4VWdrdowHbHxs3lS0mVtwBk3/VW0ij+WBO+VS7NFuoSWHlSMdptnyPYBV4Nv/a4VvVUYIHayHjZjmM8YtlAawFCcg0Kx6WbQ586mgJuPEYXtJVTulWN03s3dLrncCLfZPKi83O9wD18gpfSrtlTKabsgpNEDHxDtU735iTvfdix35ptm3PDxX7PR+9UnH9byS3VBhkKQHDdn9kg/uRUVNaZHHAcgOArBWubQ2gSXR3OjJfWpK6fdmVA41yh8eGsJojyyMDEfdT2u3eaB5oHlgEw+o1jO2BqAy1kQ8HVJKbCgJf1+sW9ukRTQ7JkIoNeSKM3SGtBYb3mbHeMD781eFKkk+JVfiVj2p2W54AGOFvsuvFr5dGSHSYbCxarGSAJYqf4TbnceiNQodeqVTSd3EhlmawPhFc8BM2nwpk8lEK1ugrg9QUWpcNfbj+VaV8X6FC8q8otPau3GuXDumX7BHBUxVDN2fZYCR9+aU0tuz5rjvG90/TDDvneDi8bIfEKR8d7HOL3GAlBHgzd4W0E+4/UBNr4MAKv8NlQslsQQ6PqZzj2oLYmyjL5dyl80GX7UI+iDNmgeaB5oHdtUDDqsiwaI8Y5pF3sFICfdos0GQ+tQiocd4+iyZQV5aC2SMeabHZvw1HWzHuK9N28CSeee+dIJN2zrqdyLGKtRhaIwlfhsxztbm+B6wDxbcLnnWkb4OwKqJbVkSwHLAleItEyTSvMuYG09IKdHpOVb6UWTHhdqmIUaEXsp8KbNGYbFhLzawv5/X7UUAfrRR94qS9/v1ZldhRSl+MnaRH+m+9igITioeHnQ/3jNZb9/IbEfPCaATgOWZhUGcJOuDHZQ+DAh7cQad33fU7R/GsCopnLnZ9Gz2KygogbBdNnn/qLvRkY9d9nG79+aB5oF5eCBC90Y01Ab9Nwq4QIRZhTZCqs1SunemnM/VF6pIPW6ugx953Pxw25HbPKi59+ZotQqizXbLA1gEGBIi/dgBJQy7QMV3ZxEHzRqsFIBlncKslBYUyVDGSKZ1pbLrUivjTaEh5pk1d0tjskW/gyfIjDXkoFImLR7YNHZhGLgRIEqg9hEdIeaMI96Q4B2AFFsS8HVkCuRRKYLXy/mOHL8UE2lHW9vVdAvzLb3C3C7NbATkuYumrkp7Qnnl2Mo/boDd+hkXsfKx8+HwN3aHjyD24sqvruFTf1Qrlb/swC712AbwfwVvTNbfxbKvAFig5K7myLNujkQ7/Pdv5XLzohwCEai6RBG9A+bI/Ph7Senh28z4s1NKN9imgUN+S5vKQiylMNremPUodp25I8L3ga7C1NkCHe77Fyk6rCqWiPqup2ZYWxRDOF3gXGrafAKblexuh7JgZ1faPN1CKWaqd0WCKntv33cK+2ts9u+mLi4FYDnwum8H6wjzPhPIv2tmJy2NdbXymX038fRSzEH7TimDAn7NNvPAiXMVPaL7pUy6HzmLKGYxBhY2qXRFazW8aEgBI++ns6W0VAVUsCV7i88fdYhx4EFPlOu4JBPR46RdNIKV71+Y9hWEVgUn9H95v/JmV1EtLxeheuK4tEWkC0UePub4TK0ELj/aieh9IvtPJPozGRRZ9+HzDfHRgsKriHbOrqTu2fMhUgnZBpRs/1TYPAAnPpb/eMb9s4o6KN3rzMEemGuOzI8qTObKPImk7LLZ7PpGjB2lulAW0bRpiTYAs03Ea6M7qrx9mjZSzqLMM/LJXL0yqg8AtBLctJ922azXT8uBkkg/2DxLtbB/aLa7HlCRFltnTDbBUd60pl82Z0PU4PVSABbgLrJ4lO8/UXNpiuv2rjX4fZMxCEACJaRxlQiQ8aMg2Y3ymWCTMbffHOOBS+VqfqWAR1UCZQJEVz2FF9Fjs+8F0Lk/Zw5BdOQRZ3EBImdza659joIpzpnvzu+r/zZIdH7d4fL6mbGzpIdPSWbUt+8s6aZ63gvgTqRxSSa3XQUDlTMPo2N7eaROPrQDZelqNDvGA1/tQIwXdeV3iYo6mH1phCg0gNDHy0fMx/qaBaLoS55PgLONNTbCClTc9n5tgLCyAFhXzRHRJTFth/hHBByt+8NDftTjWt8cASACldEmiiU93iFkl1kkT89AXpS/AYSE1umDRtkPc4qGNI1dNRteabFSu6IZMYJfNt02z8121wPOQg7o2Hil7LFZF6dUf0f1UwrAckBdd+7c1B90c4BXS08F9r3ynJZi8ghsOzcuGRTc9Jkb+jtrm8q6nlP78Gizn5AeLfXzOFX8Ajr3bgOzZOVgth4/g6zuG6vceATdZUvZe1t3Nwaa131IUMFE+ktFJQL8eZwmoX82RpTtd8kcWH2ATrmgm3Zwg/o63K9Dbj3rKI58cLIF+WCTWwHeOoShzX87UIfBR8tHTElX0aI5Citv4t8xfiNicq+uSsebMqU2YvHxTlhEAVmoxoD96APjGL4Zsw3p5NaDCAbGzbJA8JjjPawt6QRYK8Qzd9GwPa0Dpw68+atlBrOI4ckD+8EkvskOgyoOZg5oDmrR9uh8oIjup7VfvwcwlV+SGfslRivtX4p/DVYKwIq4V3t/6UeqGtaSkhlxn9rEmMe+cq8lskmwju/TgRLA1qWmY0bN1WHt2js4f5XQSDUGVTgx9GE5i7J1AJablduIyu3jvgRbfezQxnvnWs78xs2zDx4UdkkpQ4/Mpa+HTA/GCUZLCertkHGVuNbzTmPFgkS4dh3oN9aYPH+Ybw/JTLglPYNj+WjVjnQwVUJtKEtuxnzffyeDZhh0S/ner5sfESGCugC8sY1OHFZjCXYb5pV37INj38RM2ovW7KQzd+G8Z3hisI6k1GDvomDLrpm1whptg0/HL9IEBc6X0+Yj+2ltz8cDKuMpchT97K08IgAre2BqmyuA5R3Gir1zTkma2o/R/dNw9nyWAj5f3kmLXCswyB3tr1rbv2IO0pSQmJCZpAIihvqiQMg+ABYqmHKvcsSXYtLObBAd5nfBMI48vKUQ3xI+lT8rRc1cDjGMIGKElxzyo5lfC6jC6HlK/jO23k9f9zjIo8+KBpyq74925Dr0WgdWIqevn3ChsYHH/LLAEnxfunk3sD2wsCIWdyXaMbFKGIBYFb5dM0xPFet8V6IYhL6dDkk2g/YOItJRQLxDmb4AZRHMy5qfDz6VPingFm2YdHTTmjUPrDygEI2ABlmKEgyXWr7ZcwWwsFVVbv3CjjzC1h3ZDCXss1legY5Ss3E9IEBsr+/ZLWE0zACRCnMtxvoAWNIIHTptKoaoy9fsJIdFmiEYPLugGULEHIBFVG0pRs9LSd6hYAzmlepgqoTtgskvBtRimEgzmvpA5LB5lex/RQWaHfMMPyOzrrAvpjRrAsDbwmqjFHVIn/Ie9/ctyohpLC9/bLtYFkAtsXZiCUm/wirbJVPRCggZVXAGc/VWXQXj52a9hvPn/hRCiDKpTAC5XdPqlAoKwAekRxv/ltQ8ir6f1v72HrD+EVeXdVIiyCbtGYgaETwZ4o05AlivzPuUXQFYSPnInMDsjjZ7UoGaXZPaifbr3vaRg7DpSmiZ/aCr0PzbWe+45D2G9tUHwDIANGsLfWR56tAbPaBxHwIsg6WLd9K4EVFyGO0736XnYmh/2Fc3zVW3NkmDu2G3OfnTwGj90PuJvF51waunlERTNhbLG3mAWBIO9nQLHFh22YANj88BgpoOq0TIgbx334HJwXwDYEVshAUNAGQlikf4FgpWvHoH5mzvLfq+2Z8QDI0whV88Hx/Jjevnzzvhf5pYUUar87y5wm5UHzW2q6CC4gfR7BcFTKSESvFt1jyw1wOY4gK+/6eAW+xl7YUUE5jS5gZgqdKKUbJL7++Tc8XUEs/JM/OZkUZoszgP+MbQX41e79yBfSgQazHWF9DAWiH4LBUiiqI/hVNt9qVHLtlO26XLvW1B4u0OaS/NKT8EyDcxHw0HniWnSPHTh3JJ9i9v4qQCv7lM/nirWrGLhv3pOcR2qpUJqnKn/HmA1lLNewKgiNCPwjiU1udPiU0K/TQAfS1gdfQzgyEoDeeOQR35jj47HxxEMVcmIOTdiKwkJI0QS3yXDBPV8xttAli+a7uigxrtz6W1j53nzBO9RxS00hfG5ZQ2FwBrJYch5X+XNAKxdLB1sHaiDZMb+0rGRrNYDzj72LNdvgDBBMsTa3yo7E6sB7ZovS+ApQvlwNEJS4iObXFLg37qBUUXnpq+O2jQAy++a7fJfvjA39R8uRKcDvwi4Jva0gEsi/z7c1no2ksKO6w4pNEm2yXzzfEMO3jXfIgSjTY/1++YnMCYJRp2og3bO4NujvYgoLLE5hNYffEgNlmQe7ZqlpitSp1n3qqVw3982HojbZGuRKSYrm845t6S9yd7PY+t+JkCRQ++nzWOnrVDQG/Q67HYZqXRC/yeIfgOMbAVV/qD4H7WNT8XAIuGjz0T9v7UchjrfDrW/0caIXsiCBYdSCSv86Ssg+o72SzWA+YWk5C2WYkzkGyPUhpqsZ4biPh5cXw06NcsxbysACwL1RJN9OjDnb4OFtZSDEsCc2ebcvFLB7BEUCzyBC5rP/xgUNCjo7O3VIDkoHfvtZlFWCs7bjVmQQ5aZTRBlip4LI0DgEV7J8JoqQCwFJ2INmCod18KzC4YcNB3Lqpq5ldyqtn+91R/L8oM1yg/O6B555TB3gW7ZT48Rd/rB/L7jnnZrHngMA88OrP0Ij0k2Ih1iFHkPDKVzQXAAuIIqCmmsSt26ix5UmL/ILWatE77NpZ7ugTBMIJLFFkTrEVGMs+ztyEMLDdLk+F9s7/rY98A6m6klsWU7kJNVo566DxPOeZ1fdvkqgi1jS0ZwJKKproF/aJa09L2z93p8gGfFsQuGK0lG1bMkU003Er7SOrbNTsGEQ2GEgKipe+PeDsA62VBHfOfNDeV1aLF3Fcpb56vXdjkPz9HMIOm7keHS8/GQe+pyKn+I21REdMjHOUdURUwWivOPNJ3ucUOFjuIfE6X2Pa5Os0YYGe0CZxIYf96dEdHtD8HAEsG0A1mtK8dazqvnPfHJaQ26CXfpzFTx5q6Xu04nysSI1NKFdRIwyhXYRX7ePa2CbBBYLMEUljKud/M91NioSp1T/rxIsgRP0/JToP7cvDHBtkWmFkygIVxRwj374PnYuzmga0inlFCzGOPd9P2RFndp0jilBHXoePHOCE2uUSwH2sJSPHCoU4ZcL3oqQ14CZo4lqoD0dKjqCfMkcSoSpl0xOx13nDIPOsXQyvyYEHcWRGdmgo8DHjse1/qHumRRldKXtQGvrd324WbeoBezK9u+uOev5Mq7Hut4M5UVjOABXS2r71SSql2xvrY87cqwkU2JdqchaXiS9NsVtYDpJlIWER/a7xLwCsBztlXq94EwLIRF6mOFjcs9fgAQ/6o6wxjZUk51aoN0Nj5hVKODO7HYQJyjAWyrS0VwPIsXzentmzro9K/B1wR5y9Bky59b3v7o/GieMSnpxzEhn3b3LyrE7cFHCzJSpSMthElwnr+Ao5zSMdUlfI/B4bfpi7BohljPTisf4fXc6wJmDwupXTbTW+gx+9UIwTuv7jHtXO9xD70XjnyH63xAhCkEbeIFIq5TviMxo2Rco/g8ZJ8AGBZH6aymgEswVhp8X85A0mMsefvlFlrsQSwcbfuXO85aDaNB/j/YQW6fm8O2H6sQF+hXWwCYAFE0OrRGpdikE+bRIfLJRj2lQoqFsWlVI0UgZGbLeK9rS0VwHp1x7q46ggMtW39u+nvMcdet+mPZ/I7YpwWqbkCC9JTpcItyYDjvpXRtGp+478SJs1aFbulCrFKxXxzt7m/aKAz799VjnzQmvZpVCkGE5UaSsPQXDrAzYmxOWRaRJ9ptgH2N9mTDukL4HnrGX9/h9xru3Z7D/zvDCxFVpAtwQBe54laASzfPPpAd+90UoH5u2bXyfuS6HOcYA228Rd2zcEV3a918JPBjG63+73uHH3TnHEw13PIj6Ztk82C36hIZVMVRd0v/UxZQG6WU2RmPaHZcRfIOdMqJS3BzMl9M1Nu2/RB/lgigOUQLrIcVUmtxHNkkX5HB2JdqERnE/Sh8ABBb4yfuZpI4F8viNm5mgcphNtUNu0zn5hr3+j0sH6qz8VbXvP5DO5Mqauy5S0c+XNMtlcGppzZE0hrW1dy2qYTIz3ym+Wb6PnEHlqiWbcUOShRbMZzszQd1yU+E7Xc08m7Evfv6QBWTJgos7/FmFUoZarzR60AloD1JbszJ/HpXTQ6qSWyElTBVA1z9mllM39IShSO4CLvu+JZP5izvzYBsNyv0rIiZksSXX5uFlKDTs7ZaNUokyktMhq1L+UnhwgbeBuJMWyJABa9s6t36SzfHsNBE7Zhnn1bNv02TTj0tV3bIFg05mxE3BWG8A4tyUoAWPxFR4wgfgnDklahb2m2SjkT1IiqXKpK6PV66IHon54d4duob9a3csTUXE51wI16huxRMKIeVWC/Qhvu3FE30tpdpAcEHTBzsf8jjYSJdMUxArSbjLNGAAv7yrfBfmMXDWhK9zf6HEdXzP4HWNZsWg+cMxczITkRaSobYzzbW8zWNt1weaGkwti4RWsWlHIudsSlFyB8e6Ksl4H6vASTQoFCfKcR02GWBmBhX9kASU2bagM01rOmZLBqVCcbq8FK2sHo8E46RM3ZAOSixVLhSjCJSvmqFIDlIKTybVTK2V5/vbyrokULcWlmjbMmEPWNMFqYdG8e2zNtz5waT6QA+UM7gOyBC6wsCSAgSRE1l3ufD4fhJ0U8MK3NxXpAlsnvF0ib91zedcQ97tAJqRHAAtgrGrMkbeIh82INAmpGmoAIBrEMpLkHvyP9VKptBWFol5JTiTRZIFjjpHlma5sCWG74jBmxjaTWlnYs+h6gZM5mM/2iwMh0ad+oiCESLiI+li0NwCJyScONBtbcjcYeBtbSqt29LTPkAOVzt0vkdDtg41KsFID1KykllXxF2qLNJuVMI+kGRo91SPuAYClnpx/yowHX0gGhiead7WNS34xHKlyULSJieoBzVBXGrI4uNiOV1nOz1DTMqOdu19ulfaVYxBMCGZZ8rAIuXZqpdJ5qA7C8r4IvBJFMEIkAACAASURBVKd30QS4pI5fMPjm7RGQURQjWRq7N9h1Ic2bdxUnkRGimXd3KajJGuKsbQAsv5WmRih2KaZ6k83onA+ZRLCj0duS862E+RVGjsIsDcCiSeQA/omSExPUlw+4D+tDgtqfqtlF5Jxn550mH9gBWUuxUgAWxjJhcNH2EnaHzCQq0VeJPmzqVKOVchYlrPyq/D3tS683DsEvDJ+oTScm8oW7tRCQtSQrwTLgr2fn52buEhFLmvu53IvCOABq6fNRNnWAqzYAy9mS3MK/RTm88nbPmwPSkaxeLmjAfn0Pgn217419dqSpekpfbra2DYDlpqX5fDz4w17auXQ1UIbnaOfqohYfmOPADxkz6jBG2etHvqelAVgYdxhYS9mcXyN/wFXTXIJJ60TRpqWxhCgX3R8suesGR6VLzn0pAMs90aayQUEXj7a/zVTxuacWr/yEqcN3VwlyHD8Bz6XrDTF6Es/sqv9KiYuyp2Y2SFT7pduVjiyl+qzBHTsE3yrPj3T7Zs0DQzxQ4kDpPbh8B4J/c8jARry2JgDr0zmAQEpiV+22mYUTrYXk7LA0PdO5PzOy2uxxSBpFmr0OgHQq1ufW97YtgGUAj1xA2t1eR2KxqPqgWtScTOTXQ3+DOQ16zViVJ79MF4kZe9O5JAALyEerZUlMyJJVqUq8Ll/LG7KxgdgSYz+sD1VrsIhKaDmVuM+SAJbUN9/qEjqFdC0wCOZcnXTv/KusK7UiCvzDugJGDWU6Aa7e1Yn0nznwYbUnUQUUU3wJdtE8l9H3QufD+w3MbdY8MNQD0r1VqBUgjjJi3RfJjJioPo5qtxYAy34WUG9vMedqzdvMIZY2TbQbBrKMV+OjPaiab7N6POAs//CcSijIE2nSdGmlztLGALBEzxzMliK6TGyZDtbcKl9YXH2IlP1dginnKso+pvbVyi9LArBWOexArKXY2fMBH416CfaRfIB6/xJuJt/DzXPwYiksuZIAFtDPBkWUNXqD4ju6EgBfAvsPUO+wFWWAPkGTTcqJ8/PdowaW271WSukvgvso1Tzhe+9dpAl+rSpM29s1ax4Y6oHTZQArMuAAOD/PhHqFtQBY/ICh/FdDJ2lB158h738B/JH2layRuatAYaRvt23bOg/IPcG2Da35/WNSSncM7iOs+TEALAcYHz+VqZZgNvmqRBFU/KcZ3dD9uwp091pQZTAlXa8dVBljSQAW+qdnlQjoUow4OIbKrPOz90wGZoaD2meWMkGZ1eMAGi2+XMplJQEs9yQ1WkppZMrZyndE46UYz41VfNDcA4PPFvhQSDV78obtY0d9asPf9v0ZTcglaFyeNKVEuzG6EATQygZdynOz5oFNPKDwhv2IFL8ok+aq4MaXojpY024tAJaKpNaqsbMuJnLrRt1KHfO8RRdIW1pK+kbOrvRH5h6IG00MwkqeLVFgDADL/P9GfuF+udKHYeiw0Hlv0lUVksI2ByP2huIcWQWppB9+0Anp3y7fE/HasW1JAJaCA9dMKb15bCdN2J68bM/zb044hjG7xiIEkCwBQFj5RXQQ0H+iMR01YVulAaz/lTco0fo/XKqqnvsj2jlnU5EpMjIvEg1Q2aacuPFFVo7yDaHJEw2URT8n18+V3aIjzACBi3XP/xejb6i1v1gP+FYDFKK1ghSQ8q2ewmoAsIB4vp1SfnfVFAQB4EkhjGRnAwgF0SIyXHZ17sa+b4UdrF2RRsRf6jLMY3Y2FoB14pTSU3LK11htTulMLzeNF382SSUoOXYfPKLXTwzUBSl5P/qKrqq3JAAL5Voes1LkS7Hj5w3j1RdyQ3LMbzwzRuc6158vpaRaW3SVnHXjGOv/lwawjBtr9gFj3cAR7dAVkdqmVPZ/FOgvqovH50pyUe0/J6UEWNnGFGsQ2Y6y7+e5fEJUBwXa/dn8LPomRlVtXN0GliMtmWbNA5t6QMq3gJqiJZGGgUXAfAqrAcCSGi11apeNaLsiIqoHRxpg/0IpJfqszer0wL0LFJT7x/xde12dLjh6VGOBTdq5URaTdvhcghFzp4VR+wvO3/SP+H+s+Zxy/gCGSugqNR912FoSgPX3+Tn96JSTNnLfpSKeIw/70OakdwJIlqTB8muZoboU1u0UAJaIu3VGVcdoe3UGZ+aUFr/XJ9J4RCTPGOQoTF8R6W03cgT6icwbb4SROHDQu8WMqwdhHQIEgODRhikqhbtZ88A2HsDAArhG2q/n4G1kH4e1PTWAhX0lNdq3c5ftl/L3XSGxSFN9UJbRbCvQRTqnkrZ9D6KJCVjngLJHV3LPg4YxJuDx890HSNlTVYKWYDaKQCERvJrNhvm9hbRUSvgBIHPZlBKtkyhbEoAlpYRW1CejnDVBuw3AmsDpA7tsANZAhx1wufX3FRk42b61o1vA3FHo47PRHQW1L00as8k+I8KkrdC42TbNV0qc9I9ItoZgBcD1fRGOKNAmZi0Ay3c+0uwhPPO7rKcT6d9daluGA9BYxkOUEYmfqlrs1AAWzVvsK5IYu2yKcPmuRwcG6SWb8yiSwC7P4Vj3jp0s4BhJCrI2+raR7JmdjQlguXkCqKjtY7c7lWNVDbtwJ47+71MNoEe/JSof9RjGaJcQhhYZiLQGYEV6d/u2G4C1vQ+jW2gA1jge9i16foFUKqMVaZOeMDf7qS5Ao1qO9LyIlDPBKu3zz7YVmVYaJvZBxh1h2AoO04Jrc6ssKUVGBc7bRDhmX5t3Da5YWeAWinXhvfqZzAbFCF398Qwr1IFRqOCElHEHKms0MHkFQnruSYnsfz9JHOw9JGPYrzTm/O3fsUD8AV6s/lnas323367+uHb130o/9yUAnl0FsMz13XJasX/eZbtAARbeP+cACBZWs7o9gBEeXbSFlq2A2OzYeGMDTRYz6LFc7qXYb2Wtlxrvx4ZB5DgarS917z6saJMfD+6wAVjBDt6y+QZgbenAAj9vANY4TlZlRrEQFeyi7WMppXPPMOrqWZPCY22IMFFOQZOXjgQIGafxGneUqdYlamrNnJNhGKikeObgQQNOpA9OpSkUfHtbNU/Tyd5RJUjAlH8GTJ0i/zf/3b/7A7yKFJM+6EaAGJ5r76U/30kp0Wr5Zgd8mldAl3/3//zz6r/5TRSw1QCsrR65I3/8uZyeORX7LO7Ohrfsm04SJtJkawAsIguiRI5/l9p+YMcgvl/wDUvblR79+eB+Rm9+bADLAKNFTEd3wpoG35hSukKlm/47LyzCqNS15ydqE7Ka6gZglX6LhvXXAKxh/pri6gZgjeN1jJSHdayE247T3JGtoIuL8kv1n5NdJaWEmYsBEmE28jZwY1X2w0z5ky4NXqpcxB6LD76cqwf5e0521azxEg2K0B286RyjygGTydenyumUZ8syH4Kev5j/AKl8h6Ke1bFviV6dlGiA1Yqx5W9AlmqTQMvVn7E0/xqANfYs/qS9l+XKe0DJXbdnppRuEOwEFcutd3NbO4LdUmXzCnQJrEXabCUJIhYsER2lOc8R6fGCbaM5AzwIyNZktDZoX5WI3Je47+/lqhjR7Cv30gCsEjO6eR8NwNrcd6V+2QCs8TxN3wl4H60JZMS0h0Rf52Iq1qkGfMegAzZQj7YWANHBeCy7Ux638UeYIM91OibTCyIaD2yTAL2qyZGGwUPOAui5q/pXUgAx0ARfaYqeunseMa+AWf5E7P0j57RP294J77D5X/1RHl5Va6A9psEX+jR0wDUNwNrQcWt+Jh1awSZSKNGB65g7GLdVun1A5kh7bt4D1CyNE3n/c2q7RKEfhersCV8/J8cYa8QiJmee9oDy4NFRthL+thDSs3BPNQneKQ2trHikwFsJ/+rDwiXyUCologFYpWZ2s34agLWZ30r+qgFY43mbLwFLFxyvyUNbUj77/Dkdp0B3W3eBKfKazB7ZurEDGsDcoCc1NhDkEGJDGFWN0K0QPgZOzOXgJzXN8xelDbaaXkEwG/K/iXhgKmzTPhuLCqNKZUeMRYVdTlThWKce0tdzZS/VvTAv/fuKyUVj6zBrAFbMzEkLvdIOvatHeRHArFJ15PfRGVaVd3qPzer3gP3D21NKZwgcKt1P66Xg0qwsAsDigBIaECUdTcwd5RLVrgaToqDSkaodkVVRSt0rlptDBDG5EpvxBmCVmtnN+mkA1mZ+K/mrBmCN521siUellG4eJFK+d6SYrr61hOPnYARMXxUYDJNqhKki/WhMI2b9yu6Q/BtjNrqvLRF0WlJz0a7AovOcR5r9AzDyljuQPmgfeM4MSF8kFxwCEjbr5wHsPCmH9vW0ZKUQ02PyPvke7GVkNgCrn0+HXoUdd/Es5j/0t0u7/qwFzpgAMt9hjO9m9XvglzKwdKngoWIsY6LPirEcBWDJp390zmuOqBoUPJfHaR5CefscJR8zzWDT+7hYFok93aYNVPY7Kae/m6NhJYbWAKwSXt68jwZgbe67Ur9sANa4nqaXZFPpUBppNihSq6TMHcU4iBzDkLajNUGwmKNKSF+vi5w+e8jNbnDtPXP6zQY/LfoTqZSKFUSzDGkjYcsL8C3R7NmlA2JZXSYXTFqlBy7xfkveEyYWRpaUGmAWBt+7UkqfzTqFdwgE0t3nLlYhvH9OISw5z7X2dbWUUnRlQEUPSBbQwWpWvwdkWD0upXSj4KESi1ehelZppVEAFl9bXEXC0JqXYK/ID9FYopCb+gS9VMlZeeOR87fp+Ib+DjhoE+4lLcG+Mr4GYA2dpbLXNwCrrL836a0BWJt47fDfSAFSwff04zZ7YGtSZ1DGVSOq2QTCpJgcL3CQqjJ+MKj9n8kHYnMbZSpLnncGYCSGEDHa6LQ2AARG3VxYaUOei1OmlO6eiwPYV0s5WsIecIgPSl0L6HeYA/IDsLBkzxKc8bCLAJZUa9+wZscA7w8PdsSSv4/BrpukeXsIIO89gnt/YsYVBIBmY5GLn7x81H8pAEswYoMWGIeMKU3Z9Vdn6viU4xirbykclyjIvjLuBmCNNXsx7TQAK8avY7baAKwxvXlMW7Qp7jJ+s8dpURBGtdcXFwwabHJbUiqfsskPe/5G2pAUrEhDy+frKFO5S0SdHlatRuZgtQmP1Hdx/4Km167VERuMCyNTahHA+fod286BptkyPbBrAJZ0zUhtn7k9JVijUp8jTRED3xPEgWb1e0AG2226CsyPCR4qYX9phCQmZmORABYnyNskwBq9aSnl8GdkLaxS/R3UD92r5xTQSil1j5BlZeRLWgOwSnp7eF8NwBrus9K/aADW+B4/eydoS28RsyLaaBERcv1BdEcbts8HUssjtR+kUSrQEmnS/Ym5Y3BEGJaIqD2AqFb9CkL8ihRcPsIB+9rUx+yqKR3gF6w9TDKpgkSuT1LAd62LaT2wawCWb69vcLNjPICY8JvBzpAWG53GHXwLO9c8KQLrZ2RRPHst/QiIzcaiASwOJ2RaYuNSwuly5M+TKcUl+tvfh0im6ikXmKLzgD6/kqtLycsuaQ3AKunt4X01AGu4z0r/ogFY43vc9502BVHbaMM+wo7+++iONmzfOmtDHyVKLTXRgREDONJOnJnoKj9GGcCGhuRXozrYsl0g5J912mun2rKddT+XEislFFt+ribifuEcDcdMj6xiOVcfLXXcuwZg/XZ3nnr5Uidzg/tSTAA7KtJe2KVsXiOyg9b26B7wngCwIqUI4Ar6GbuYzejO2NtgNIClL5txm/IlVMtzP6h8qjhMYUpmQ0qX4ssp2FfmrQFYUzy9/ftsAFZ/X011ZQOwYjx/g5QS4fJow9a5QkrpddEdbdg+rZ8HBKZMKRktRfG7G46v78+kfN0v6zz2/c3Q6wBXqiS/cegPC1wviEn8Wnps9H7zXh3T7Q8L3FNUFzTfHpxTTum+LWWfF+WvpbW7SwAWpgew+UtLm8QN70eRCwB8NMiPsTsrnaMN/bmkn2GjWw8i10/P3iW7FNZvzMlxkQ5Z+eGEKSX5lZHlpEv6/Mvdpv9CE0Q7PcQ0S36r5M0G9iUX24KNhVXaGoBV2uPD+msA1jB/TXF1A7BivE7jEM3/5DHNH6tVQFl0dZtNbsOeAWNHRDDC/iODKvSpSlQVtmaLoCqJHWGKnwD8pIX+Z0QHW7RJbNz+L5qFT7sDyy2aUbeFKw796QlyqiwphV+N6KC1OQsP7BKA9Y6Ukqp7357FzMQPUpo1feUS63783bQe5uYBRU+krBP5n42VALBQoglQ2lw5mM7diN+J9D22sAAu0OxlnWaHlIS5m0ODiKzSnVPQ/RuAVfcT1ACsuufH6BqAFTNHnn0sXylh0UbM3YG5tkOEinUAnyiB309lxpJqjCVMZUn3Y4MYZW/I4uW1aVicK6XksBq997M3wkL7TpSDg9qVMkQ89zoLqtgd5KrFN7tLANYsq54FPoFL208Fuqo1HeABMj7W6ikIJRvfTgkAy+BskkVU5fbP3UQ7VVeUflAKrUTDf2gnsHb7QgK/0XME7b1JV33wrdEdHdJ+A7AmcnzPbhuA1dNRE162tA2XIAuQYWqTNkRM0wY/+tDvXq1jT5v6pvf0L+B1ixzwiij+Yv1+SbdRu2nHwgLglTDsaQEb1YSihFj/JaUE+KNtVpMRl5cKGmkYdXdKKT25EKNujHvxntOiuVtKSfGGEoUbxhh3ayPOA7sCYPkGO8uouleCARs3Y+O1TNeYXvQSCArjeaW1VMoDDcA6wtMWa2wbi3XEprTUJK/6IXzrwKPCYgk7cwYAl1A9wuL1/HxwsumewhqANYXX+/fZAKz+vprqygZgxXn+HPl7T8g82t6ZU7mj++nb/s+nlJ6eUrp63x8MvE7VRdUXH12YQX3VTt/kT4OFWGlt0VCqyWjcnDJ4QPQ77MdKMeq2vR1aV/Q/aYNJH2zWPMADuwJgCRx4X7Emmx3jAexcgZUTNYc0D0zgAefy03UsZtI+s7FSDCwOQZUG+ERvZko5/5Gd3sR9CpQhB/5dP0fkCbnN3VD8pcf4WE9lDcCayvP9+m0AVj8/TXlVA7DivE/QVXSaoHu0kLNqfPSJPhh3O4Naljb414HpVERKlSovfb8qCLmvSI0jqZHAT0K9NdhlOlaY1MZIs/GmDXqzgoy6be7H/veeeQ/009s01H67OA/sCoBFpw6A9e7FzeDmN0Qj+jmB697mI2u/3BUPnLYBWIdPNbDsCTnffwkPhDQ4VQH9HWki0iK3BA+XYCL+ql/984Q30wCsCZ3fo+sGYPVw0sSXNAArdgJWQYvjx3bzIw1CaV5S3IABU9vtsr5k1DhU8SWqPkXqCh/fJerGcruX6io/vyW4jz7N2+89uxNVv26fi7e4ZqVJSjeudjtvftc8fyWDx7X7pY3vGA/sCoD1rgxgfaZN/I89cJXMuhboaNY8MIUHGoC1xusoah9YCG1aGXK6C8TcI01lHeWxl0I1lxoiYjqlNQBrSu+v77sBWOt9NPUVDcCKnQFVid7T6XKdJrabH4FW2LAYLDUIgNsfEBONMsCgSPcU5r7eH8yqo+OG3TC1eW5pXJ46eCAYdcp/SyOs2S7Wadr9ca6UWPM429im88CuAFivyAUXalhvppvtY/fcAKxaZmJ3x9EArB5zj4V16x7XzeES+g5AuchoLmFSorZLMGkb5wv2Vx8/NQCrj5emu6YBWNP5vm/PDcDq66nNrsPQIOR+y81+PuhXtaR0nDuXEo9Km5S+Dhj84SDvjHex+5I2E6llaU9CEJhO55SmSAudsehCBC/N7PQa2IMH+dt7TN/mKbly69yZV/wMePCc/V1O2wQiEgH2XqloihV3mClicLL8P7FLT5hSogn2S1nAWqD2VDmVatdSLHcBwPL8yCgRMKn1nZ3iu9kArCm83vpcecDeiPzAl+fkkikWUwcfmzgL1xKMTgmqfISdvCuvTNdiCdpXKgXdMAu4R/hqSJsNwBrirfLXNgCrvM+H9tgArKEeG379hVJK7+iEuVXmi7T/zILSDtmRwZij7sFe5FF5HFH36v5KAIJHjV/w7vGBKWRS81U7fFaUE3u0+zMdSPHUrN0Zucd0AP7tlBJGR612zi7I+cx8OKh1jHvHBXz6XpZ4cKgBbn8kM9ykfH0xpfT9QjdC0FpVtpNmUMt+GKOPjhggGvBFL3Dvn6gqnyVueRcALPp8KqpLW2/2Ew80AKs9DVN64BMpJfIDghGzscjNxWFOcDglgK6M9RT9jz05wDgiuBEV9Xzo7z72gCdqj59sNkXoprYGYE09A0f33wCsuufH6BqAFT9HGDt/0x3QaedE21/kyrDfje7okPYdVmmjRImcY4cQFafBOKWdsUt5e1vHyPmVoEGQNsBwoCVG32wKA9r8WVdlDKMu0uiPnn0N4yey/3VtSxkFmmLE1Wqel6/nQOlnU0oOMoKmK7BK4LFGw87yzfAeYXSdIv+zf/cH6OW/n6RAAGAs/+wCgAX8pAMos6TZTzzQAKz2NEzpgefl4J7gxWxsCgBJn1fOC7tFZu6mJCxdjVePfCOiTG/q9DpseOduoi53yyL+ov1TWwOwpp6Bo/tvAFbd82N0DcAqM0e37dJrHlegq2+llDC+Plegr4O6uGoGXqJEbOmJCaC4zylNURbspGsGDgLoSQfr44F9HNa0/d118j1GM8cfnFK63wT32KdL38c/6aowXqTPxRNcI5AISH19fk6+2gHYX5swvXYsF2Bj/WKXvuo74m+piWfJVdCBnQDyWlMTdwHAwuq7cQduv2ysCV9IOw3AWshEzvA2nM/vmNfsqRj4G7ltCgDLQNGCReiuuNGo6/qRCBbh1FuNXL5aqsHDF5I+SPvKhrp06fLDnpQGYNX1Du0fTQOw6p6fBmCVmx8pM+/Na2Z0r1g70ttKmxRJ/d48UOD8QSmlh1RwQMeqo/9CCzQqNRQb3Hr7wtITmTWvpIJi2EfaDzIzEWOoNgOcmF8gZZSe26b3jFllfgAItKwcXuxhl2zSCr1r/gZwARUvnquIn62iG98FAEsAAYHhryryew1DaQBWDbOwm2OQIg5U/tu53f5UABY/ESZ/xEIAmo/mB0CFoTEMNfrp+UM/RntTtoFx5XCCgVULHb0BWFM+Eev7bgDWeh9NfUVjYJWZAaLG0pCuXaA7LCWHqNJRuDPkIFAUW8WhyQZtbJb0plPy6zmA5x2KMgLq954gvU4qF2aP4jaR9pouze16WUQ8sp+hbWP33DmldJ8Mlgz9/djXe5fpmni37SnfMMH7PfY9jdkehtYlstA+BqqUQ+wt390ogPmw8e8CgCVdVVED6b/NfuKBBmC1p2EKD5BW+KMu0CLAV8v5vLcfpgSwiDC+bkbilkc5VRTrrrlq1BgpcjS1bDaIVs7dvtkxr3ycbaBqsQZg1TITB4+jAVh1z4/RNQCrzBw5RAFfpBFiD0SatYtezwciO9nXtj2I1D7pVg6TEfbWzEj6QkTjG7SJofO0lJK0yag9mKjq5SYQZb1GSukFgffF3TbatEG9E2PstzaYwkN/8hsZjJ1aHoPAPU0re+wXZcbLVJpoY/o3sq2fSimdKaVEw026oTXOv2PBKkwQbbsAYKlydtZcJCDan3Nq37eaDpG1oVnzQCkPCARhvn+lVIdj9hO1eeo7RikLj+17ceXXvSWlZPOmnPA25pDywBzFq41+vsl9PTcfwGpCdxuAtclMlvtNA7DK+XrTnhqAtannhv/ufJmxUyLdRYEVDJJS5mBovRMAitiPWHfsMe5REdjhPu/UpTT9fiAo6b4BgzaoJe1VXeGBKwR3SKdNiqQKnTUZ3VKaUpHMuj73KzVQZWwH4g9PwMLrM8bar5FuKBNCEPm0XSXGq2fAOVI/axcALKAqUHDpaatDn2+stJfkZ27ob9v1zQObeEBBG+uod3KWFrFhHOIIm1dlei38czcfZFWOAFnbmAoqqjFZNJdgKvF8qLIbaQBWZROybzgNwKp7foyuAVjl5khQAyNXGmH0mm0zo3pcRFXdgzxGD1NqH5AuwhRZkWpWGshZdy/nyGBHJFPnObnAzLqxjPX/Hfa/WCD1in6Tjbe5rcUEGzGdsM2ntI+llOinYrzXFDSc0ifb9u2be7XMEo0qMmGMuwBgqUYelSq+7TxP+XuVhq2DUlibNQ9Ee8B+6Ca5Am10X2HtR2+G+wyc+j0trCWwjV6eozTbRBdogy2lxOxfBldb6vN8HXRNA7A29VyZ3zUAq4yft+mlAVjbeG/4b9G8rZPejUhTJQo48NLITva0TUz5zYHrvwP9hVNKtZWHtt95Y6cXdclAP7tn6U/mtITR3MIqizRpcPfPBW4i+xnStrkELj8paycN+e0Y10oXJNWAdcU33x+j0dbGsTxQQqNoFwAs4PPUIG+Nj7bqmLQDSes0ax6I8AC9qy91wefnp5QeM0K2WMQYB7VZA4BF9BPt+syDRl7nxTZXhCA3rbYn0q4EdolUkWgP/nNOJUBTrM0agFXbjBx7PA3Aqnt+jK4BWGXniCg2du+pgrulKaSCmpS+EgyOp+aqfFG39eAuXeV+UY1v2e4NOrHzZ27ZxrqfAz7pbUXb8TMQGcWkW42fIDmNUKlxtRi2PB9fqgBDcv89E2lXPEjF6leMXAm7Fv/WMI4GYI0zC8/IkiLjtLacVgBX7yuge0yvuWnhLee5OepOrA3O4d9OKf1d1jZ9ZV47BT1mbzUAWHLK79lVRrlvYBS25ERt84G+VtYtqGFetvUZOj2K4ne3bSjg9w3ACnDqiE02AGtEZwY11QCsIMce0iyWx7O6lPvrFuiWthAWFq2hSDth1l+IEq4FwJ2lYo0H6Ug2lpFpSaL6pA2ixc4vncXbo4T4V8+h1AfaXiXA1T7PPq0kIKFKTj/X5wcjX0Ok3f6ZaH/0HI889Fk11wCscaZLdVT6f82O7QEFBMjpYMxGmiDYQyI7aG1X4wGZYD/I7HMMXfrc22SHVXNjq4HUApSg+P9ZSgmNcu6mTOxlO0F3Ut9mbgAAIABJREFUqQtD7H92Eby3p5SU2J670U+5Wd7Q1oj0NgCr7iesAVh1z4/RNQCr/Bwp976txmKfUdvoqHwoWhdpN+y0HgV8okxqIvCmxjVodc/kAsgGRNnfdxXoVMbblBXed1x/mMX/7WMi7ZpdFTPSBLUYDTOpoFOw5qUM3rKlDBZ5FBqANY6bpcHfZZymFteK6r80gyNNRd7ItPXIsbe2mweO5YFaAKzj5ZLIN1oACws9U9rCQweinUAvualR0ehSj77Dgo8k9pXoco3WAKwaZ+UnY2oAVt3zY3QNwCo/R/+90xT8eKFAz4NypJZuQoQBOmhGAlciTKTxd4MBsjHG7TBBQgGTJ8LsR1R5fFggkKcIjwAkFlakSR+UrldTCsxt89418r73t+3+7RXvUKG2W0k/lOyrAVjjeBv7Cgur2XE9UKKC62eyXI/0smbNA7P2QC0AFicqvSyiJK1g7vamvHkmmNbHaF/9caaiR21k+4xjjGtQFm2YUeprpSs2AGuMmY5rowFYcb4dq+UGYI3lyWHt3COlhO0SbX/daetcKaX0raCOzpmBm6iqS9Zeosh91+Cg21zbrPt/ba78uPbiDS4QUCKcLKD0jxv8vs9PLtdps/1pAf0We4q79RlQoWvsVWmWnqFQf7qROgm8us8Mnu2CbgnvqgFY47i4AViH+/Hx3Xp7m3HcfGgrX80VfwUDmjUPzNoDNQFY9ANstFD+527KO980pfSSnlFPZctFMG3q524ODFJdamVf8W8DsOp+yhqAVff8GF0DsKaZI8VO3lUg0IN5ZS2OKsLxe7lineBNhFlPb9+lq0hnr9l+JleOA0xG2aeyptl7Ajqg3ULwX9AKQzDKVNa7WErpb6M62KDdW3Vl75+4we+2+Ql2O326L2zTSPvtYA80AGuwyw78QQOwDvcj3zxyHDcf2oqA1G9l4D24q9Z880CsB2oCsNypdAIinUuwP8lihes20MR56UU9LqUUrR9Rwq/KaKv6VLPuSAOwSjwJm/fRAKzNfVfqlw3AKuXpY/dD8PvPs5B19AiUWr5jQCfuAWPnqgFtaxL4Zk3F6K55HVrdvsMxf0Sxz6WL3C6l9JQAVjTRdppU0boqWO2K3NBnq8EEXFUNK1k9m56ZYCed1WZlPdAArHH83QCsw/145UziGMfTB7eiqJaiE38R2Ulru3mghAdqA7DcMyFz1P+5m82GiKHKEkcZzavn5tLQc79nKQrETGvfYDUAq+4nrQFYdc+P0TUAa5o5wnKxAQUuRQc8gAWqImG/jGkKlQDhzjRmo3va+nBmqdTE1jnqVqWgYYxdNMgfmnVg8dyMXRX4PJkRiEkWZQA4lfZo59RSfVB6rQIEUaDjfl9i9V87p91G+bm1e7gHGoA1ztPRAKzD/Wg9/OQ4bj60Ffp5D8iaiMFdteabB2I9UCOABYV+QSeCHrkhivXqT1r3oUCtP8pELon3RaVSlLpX/SjPeu+SHW7YVwOwNnRcoZ81AKuQo7fopgFYWzhvy59eKANAJar2Yr2MGa0FwGFHASN+eks/HPRzuovPy9XZ1rGfA7rfqElpeFJHVJSLSsOjeQIg+9xGIzz8R8Tho3WpyBKoilmiAmcf95gvely3DhTf3zsOjEIM/ft3vv7XPgNs14zugQZgjePSBmAd7kdnXiSAyLOg9VF2kG9XE3If55lurUzkgRoBLJR0IpVL0MLCREIxPyrq+cKU0tUnmv8xu/1KnjN6G7VbA7DqnqEGYNU9P0bXAKzp5ujn8ybUuhG9hr8ipeTwNlZBDmN/aldN8ZpB7sMWo6+ljznZ1XIaIf9EmFRKFfPG1GwCQH62exZPETHgPW2+OgNYUQUFhg7/jJkxd5GhP9zwekLxKmp+bMPft59t74EGYG3vQy00AOtoP76/q86L1Rppr8wM5W9HdtLabh6I9kD05neT8dOEslg/oWP0iHTN3WiISPc4yGyEPhEYdS3pOxFCQrRziBA2AKvkkzG8rwZgDfdZ6V80AKu0x4/dn3UF4zUyWqtHQZhL53VqjDsGdnywY5QIVEWY8QIWai4ictB9A6745TQRTsltqiwpfXMsk0b38rEaO6QdKS8PzpU3a9Ezo9UqBfakwfeueVWdaYo+YiZ6bgVcMkkXDcAax+0NwDraj1LJsU0jjXafQhAfjeyktd08EO2BGgEs93zWHI28QLQDCrRPj4MW1n4WFqBO2VSVbOZuX8sfxNfP5EYagFX3RDUAq+75MboGYE07R5i9b0gpnTx4GAISd89r1RhdSZN70hgNHdLGi2fMaBYEwpKKNM/NGDorUh2llmKORRotUVWzHLpqsP+RWSQPLzQYAc5Ldemlrex9IYcf0k0DsMbxfwOwjvbjbUZcaw/rSZAHgPW6caa0tdI8MI0HagWwiNPSj7rLAlhYgKtbZF2vvbNMv0RlnWj6ffSTJbXkJVm/Yy6U1AZgRT8V27XfAKzt/Ffi1w3AKuHlw/sAIABraEZGGtYLTUpr2Pe27EjQ5t1dpeELbtnOUT+/YkpJytkcTYW59wYzsmk3jaFZdfqu8uDbCgCob+x8Yk7/vZIJXaXv2kOUsDuklB5boqPWx5EeaADWOA9IA7CO9iOG7LtSStbKKKN9dftclbbpYEV5ubUb7oFaASw3fvYcYS5B0450NIBHlUHI+t4DgE0kgfe5i9W7J/emZPlcrAFYdc9UA7Dqnh+jawDW9HNUIoXLXdLekdawLQvmXCklej5R1RM/n6vgSruaowElpfmdN3DwGD0XTil9Z8s+MMeBYcfbsp11P79RSumZ6y4q+P9/pUupfUdKCYAXbV/Nz/O2cxU9zl1ovwFY48xyA7CO9iNCgzXgZOO4+9BWnpa1IudS6CTYHa35OXqgZgDL2FRLoIc1dyN0irL5znwj0j7kOl927jeWDzeqYv3zjO6lAVh1T1YDsOqeH6NrANb0cyRKK307OsiD/XLzDCRso0P0x906cedAt82lCu5RLlAdiv5nlP1TV4nwBrny8aZ9/FyWeFChMtKM9ZcrYl+5VyDs3xYonqAvaYrSd5tN74EGYI0zBw3AOtqPv5gZz9FFzD6QUqLl981xprW10jxQ3gM1A1i8caaUkqoM0VG+aM9jYd0rl8r+z5TSb+cqSSeO7ji4fYcZJdGfHtzP2M03AGtsj47bXgOwxvVnRGsNwIrw6vA2CVzfZ/jPBv/iGSml220RqJB6JT1O4ZIIU33wf3drq435nO102U8OMhFm/0FrCwPcP29iGGICcFjykQbIi9YEGzr+Eho1xvTDzJQDljWb3gO03uxzfyFwKL5fqyB3YDcHNi24IF2VxlukNQDraO8qymJNjwz0GIGglHTFua+Xkc9qa7tyD9QOYHEfquNNK/djn+FJnaBXgrKJer8E8XapJfRMHB7mZA3Aqnu2GoBV9/wYXQOw6pgjjJC3d1XKjh88nC9ngOiLG/YjaKNyW9QBkJ4kRtA/bDi+Wn4G6HNQvnrggGhXSQn9wgZ9YP3dMLPEMLGiTPEADHWaaTWZZ1haY7RJI5Ii/K3ojlr7vTyAtQhQjfzONgCr11Qs+iLfV98XhU5+OvhO750rGQd305pvHojxwBwALMKmNqcnjHFBsVb/I6V03Uw/d+CIrh5V4sakd4rEzs0agFX3jDUAq+75MboGYNUxR5g6z8npAJEjwrYFXGyidUjb6ZFduoL0uIgI/16Gs3V2zsZX0jUfE6gVprIfSYPXbOAoB3ii4tGl3ulMYb3UVhgGYwFoHG3mH2sfkNdseg+U0HxrANb081zDCC6Rz1WnCR7MR7pCMOcI7qM13zwQ5oE5AFilNkxhTt7TsOoSNo2/X6Kz4D4+lA9Ncyzv3ACs4Idjy+YbgLWlAwv8vAFYBZzcowuAkIpCUkCi13OBl4v3GNP+S06bN+Sb/LZPd9hhABmBriXYRbO/zhB0M8BIaSo0w6SqDTGBN2L+tKkiDXjjma4NkFQgILrwjspgqn7+aUppG825yPnZtbY9j/cNnvsGYO3aU3Xw/UojRwy4WLA7fFvOl0kVwV215psHxvdA9IZ3jBEb41VzKmGULsQY4+zbBmHSubPJaGfcr6NTP6IygdW+c9AArL6emua6BmBN4/chvTYAa4i3Yq8FDNnwAooizcEaqDIk9cz6LRVKWtyJggb3upTSTTo9RlXblmD2OQrYEI6O2qNJzZPWOZThdP2uAt+zgp38lQxIvjG4n6HNn6ob16YptEP6wpDDcHvtkB+1a0M9gHWIQYohGWUNwIry7LzaVaX3yfkbGPX9X3nkUVlvqwHl83pG2mgDN0djO1dJUVpYvzmjMY/tg5raU4rbBouu1xytAVh1z1oDsOqeH6NrAFY9c6QYCIAIUBRtAhfYO32NjgeReXobEZtxYrSqtd2/C6pIJVyKEVl/YCDjA5NIqsrQNfytG7LwhswL4IY8wdeH/KjAtfz1lgL9SO3BKFTAqNn0HsC4o30WXXWzAVjTz3UtI8DARBCILmD2qfw9B5o3ax6YlQciNpQRDiBsJwf9YQVe6IjxL6lNUXjRYdVEbILnaA3AqnvWGoBV9/wYXQOw6pkj6zjA4wGBgMfqbh2uL5yLkfTxAHDtlSmlC/S5eINrMIgInktvXJLR/gTknCTwpkTff29A+ypImv9IcWEpjQ9NKT2oQkDyOiml5w7w16aX0v8CYH1u0wba70b1gLRZANZlRm31uI01ACvYwTNq/mwpJQzUkwaP+Xv5bF3iuxZ8K635XfPAXAAs84JWLyIVLWy3a8/A0PtV5ekahSKRQ8fW9/oGYPX11DTXNQBrGr8P6bUBWEO8FX/tebK+YiTg4S7+MTMR+qZ3qVL7niD2lfF8MKV0/o7lJa19SWZvplqgQ22UAf9oWQlK9bE/yMLifa7d9BpjUq3ZM1Ob3aGrovnoAoN6dWa4twqEBZzdows6QVK0gQqR1gCsSO/Oq23f/3fmYFHkyKUOAq9uNmNCQqR/WtsVe2BOABY33j1H5yp26eKHJiosVWXOB4YGYNX9mDYAq+75MboGYNU1R1jKb+iYSJcKHhZRbakN0gL7AB+PTyndJnBMd81i34FdTNY0XS9s50izlmPIrTPf5L9KKZ113YVb/n/AFfHiGvcXUjql0EbbX2YG1vejO2rt9/LAFTOAhU0aaQ3AivTu/NouBZiThJGy7fverHlgNh6YG4BlAaHZ0FhY0zxiDi+Xnzn7iucagDXN89O31wZg9fXUdNc1AGs63x/W83VTSs8pMCzV/qQ4qf53lP18SunTgWlwDvieQ6LfS7RfSinRKPF3lL0wM+rW6YfRH/VsRReguWVK6SlRN7tlu6oi3nnLNvr8/NmZgdUHIO7TXrtmcw+o8nrbDNoLEkRaA7AivTu/tk+RUvpkAdkc5zoaknMtyjW/mW0jHsUDcwOw3PRduhf6j0a5+9bIUA8sgX3lnhuANXTmy17fAKyy/t6ktwZgbeK12N+cIKX0mUDAaDV61f4AWBhfRxnR4+cH3jLwRTr7ku0ZKaUbBt4g8A9rz3NzmDm4E8rHCHCgjzIVmk/f9ePvGq0UgEVvyfvVbHoP+KY+IaWk+ma0NQAr2sPzax8b03kl2qTiIyd8M7qj1n7zwFgemCOARVCRyGV0yfCxfLyUdkRoUfvftYAbagBW3ZPYAKy658foGoBV5xwR5r5j8NDoZkghFEgSvT3M3tzpOF0ycCx9098ChxDe9MW7aoEq/0XZv2Qhd1WeDzN7LRpAxhJpxnDzyA62bPt5HSPi2lu20efnDcDq46Uy16iA/u7u+T91ge4agFXAyTPrAvOVJl60WdPpYKlm3Kx5YBYemCOApaStzfM9unLe/30WXl7GILGvpKjUGh0d4uUGYA3xVvlrG4BV3udDe2wA1lCPlbmeaDrAwzoZaW/J7CdFPQ6yM3cBDwAWkfAIk1p3iZTSNyIar6hNovyvSymdK2hMDi5SA5Vt/9dD+rhCPthEzaVu/z0zACLBum1diE2IVRhtDcCK9nD/9q+SUnpJ/8u3urIBWFu5b5E/VoUQ0/nsBe7uCykl1W+/U6Cv1kXzwNYemCOA5aYxgSzyjYW19SPQqwFRWlF9Pl+CLkMDsHpN+2QXNQBrMtf37rgBWL1dVfRCekkvzmtkZMfWBOvwBw7p5PYppT/sUs9+LmgQ0nrudgToEtRt8WZ/NqX0oKy9FLVf+1BOWTtoLn86pXTPbt2/bzeOSA0gAsKqD9ZceQ87gdhxtKkKJoUQqNdsWg+8PBctKjGKBmCV8PK8+hCIUjgCYSPq+7/XI9aaB3SaWAIbzZoHqvZAiRciwgHHz3np1wveVEWMfY5tShu0oTpKJ2NO99UArLpnqwFYdc+P0TUAq845+qmUksp8Dy6w4QVQ3esAN/xCSkk62NWDxiBCjDFEH2TpG217NCwQ/owScyeGz5+Ak/3+PFFKySH+QsGPu4PTQzqw7IfB/WzTPJHj39umgZ6/fWkWcf9uz+vbZTEesMa9PxCE3z/qBmDFzOOcW/X9v2yuRnvKAjfyxZTSVY8ITBUYQuuieaCfB+YKYLk7mzq6DDbLzeI8IApI60QEdimHhQZgxT0vY7TcAKwxvBjbRgOwYv27TeuXzmtj9Ib3ax2wQpNyv50/93/WbW7iiN++NwdUPhbUfm3Nnin7MxJEenIukAPM2mtSUt8ZLN4uDVSAjExBzVZKxF3KEH8oltBsOg88vmME3qZg9w3AKujsGXUlcCH75bcKjFmGzVNzxk1jgBZweOticw/MGcBCrbTQX3Tz22+/7OGBL6WUrthVwvhoj2vnckkDsOqeqQZg1T0/RtcArHrniPDwn2ZNoehRqlz0+j2dSDOTZuXwJ/1sbFNMxL0pbV8zW2fM+8aqe3QWOI/S/fy7LNL+5X0Df2xK6XZj3swBbb0xPzP7+w7udnDz0niwDqMNQHvjlNLHoztq7R/qAdUw6bGdoqCPGoBV0Nkz6wqQ+rCOTHC8AuPGwrpV1l603jZrHqjSA3MGsDiUZgKBxUhthionruCgaI3YwC6FfcV1DcAq+ABt0FUDsDZwWuGfNACrsMMHdGc9vH/WzQB+RBpha8U9VuuDsvNP7NLNpfdH2PcyK+LZEY1X3OY1chrhzweN0fxZF+mnrUxfWG4HsezGGsaK4U3npfbDkipd2AnR9vnMwHp7dEet/QM98D/yt/PeBYph7B1AA7DaA3mYBwCpAkWKo0SbtUAa801TSv8Y3Vlrv3lgUw/MHcAS4VXp6MKbOqD97kgPqEp0tpSS6OySrAFYdc9mA7Dqnh+jawBW3XN0kbwJpWEUaaK1F+8O3P5mp8ll538lqFOVkn69ixD/fVD7tTarGuG7U0qYIVHm0EL/ZGUq7gEoI00VS1ppb4vsZKS2fyOl9JqR2jqqGWmcGFgvLNBX6+K4HrDnJdh/gcLOaQBWYYfPqDtn9bsXYoByy7/l4h2Yv82aB6r0wNwBLE69UhYZrdLBMx+UNJDo9IEpXNQArCm83r/PBmD199VUVzYAayrP9+vX2v6e7sBNwyjS/rmL0qo4SKODidoSHI8yB0t97KJFp/NhQGFb0aRiwBqgTaR9MKVEM+0/IzsZqW2abqWkFDDSpAw1HZqRJq9nM/8z6/9IFY1K1z1sKA3A6jlJO3qZir4CRdFBqZV7peifO6X0iR31d7vtyj2wBADLy4z27uPfbDwPiIxeouCGbbyRr2+pAVjrfTTlFQ3AmtL7/fpuAFY/P015FR0L6XyRJt3gOVmfyYb3TXndiOgTwHKxriqTqri7aJhnBNUjD9Z3Tik9MqV0ljyXvxzsaODn44L7GKt5uqtSWIEc0faKjvl+o5TSP0V31No/lgeAlHx/2gn80gCsCZw+sy4RCh4VvAbsdQk9PqzcVlCirgeFNIT1SBaafdcPUkr/UdcQ40ezBABLvvotc6U8E9psew84lPxJLhn9L9s3V10LDcCqbkqONaAGYNU9P0bXAKz650jaGSFoVYwiTal5VdOsG/45SneLHtO5ZsLWifC3vY4DBR9EGdaeKpY37+bxISklUf8o+24GylSznIt9ugNsz1hgsFJkFSj6bIG+WhfHeMD54Zmd7hu9uSmsAVhTeH1efUrNB7Cet9CwgSOCYA9uYHohjx/dDQkBgSxaaCfuirv8Qp6Xb6WUPpdS+kDe8+0EmLUEAMt0y1mXwlDqpa7iSQ4cxDdTSrfo6KMvW5h4+8plDcAKfHhGaLoBWCM4MbiJBmAFO3ik5lXsAy5FmiAHwOMcWfw4qq+7pJQeEdX4TNq9U2ZIRQ332ymlm3Sb4RtkbarIPSLm3vWjbiSo3Rd0B4RrBrW9t1lgsMpjTyrQV+viGA/8XgdiPbQQw+4gnzcAqz2J6zwgiOFs9vDg4MLecVgT6G8Bd+eQ6r3Oh3P8/zLNMOp/u5uH03UsPAVW9havs16Qc/hSF4B6R0rpMV1xHcGWJRVfO868RW5OSj4kJtILfYeUkhe82XYeeFU+9EB1l2gNwKp7VhuAVff8GF0DsOqfIyMk5i7tLNqAEVLOoyrWAckwj0QZd9lsXv82b2Aj/EBzSRroqVJK0qkijfj/3CrtATlKgaifLFR1LHKO59I2VoMiBiedcMANwJrQ+TPq2hqAsFFSNgcjlB4izcJmZT2AoPOUrGfaRz4AaIXVrBDIG8sOtWxvSwGweE3FEAtQVPWjsjMzXW8q4Ih0P3m6IYT33ACscBdv1UEDsLZyX5EfNwCriJu37gTN/NUppfNt3dLRDQA+aANF7SmwgW3IvhN8H7U3L2UAq25vtcCxx7yKskcGA4Fwv5lSwvaek6l4DXTrc5AY475E3F8+RkOtjUM9cOq837184Perj/sbgNXHS+0aHsDG+aPuz/EKugOgrmIsUfdFM3sK+vSorhBzaH4+IafaDx2WSpKY8X+Zq0oO/X3110dtNqe4cRsKG7sbTtH5gvr8SFe9ykL+9QXd0/5baQBW3ZPbAKy658foGoBV/xwZIZHPe3fU//tMfDjbxlv0HARVaHHsegoDUOnW+fASpTW2zVz1+a3Dj1StB81wYy1AqohAKZHvt3Ssh6tk8fg+vm3XDPPA8busjd/PB72pNXQbgDVs7nb56l/MwMSlCjtBeprUZufEZnEesG+7Vv42nXKLbqR/kh14/hL3TksCsMwxyjsRsxJVYrZ4pqr+qYf90VWPcPvBNQBrex9GttAArEjvjtN2A7DG8WOJVq6QgztTpsdsc5+ErLGvdrX64H7fSQv9s0Ji4tvM22G/xbq6accKfOUMI/m0R56emQgRvtnfJl2T22b9mRL97VoftH0A/ICsqa0BWFPPwLz6v2DH0HlzQS0s3hFAel2nt6Ra7afm5a7ZjNb5B0goXV0hnm1sVVjnZktM/1wagGWi5QYrP9xsuAdoXtEwWXoFgwZgDX82Sv6iAVglvb1ZXw3A2sxvU/xKigzA45JTdD5Cn6ouEaL/hxHaWkITqkqazyvN9GawisznF2c4fgy42xfUweIimmT89eUZ+qvmIQPFgZF7xZCnHG8DsKb0/vz6dn6/b8esfmDhoQNFgFjX676F/1i476V397NdUOf+nVTCHTN7foz7NV/3yzrhpB4WY0sEsM6fhctOsJhZKnMj/y+naTyqTHeT9tIArEndv7bzBmCtddHkFzQAa/Ip6D0AB7Q/zFTyubGT6TjYoEs5a/YTD9wrH16mTnsaOici+Cok3a3bVNtzzNFILAAQS+mt/iCzhB6/A8HFEs+D9Bx7QNoyGHW1WAOwapmJ+YwDq/rFHaB0oQkkAhT7whRS+a5pYm33zNijnSanDEodHBtUJ75Pc/Ib2w2zrl8vEcACXCk9fN26XF39aAj0qTIxx6joUOc2AGuox8pe3wCssv7epLcGYG3itel+c5muotkLUkq0M+Zk0s2kQL5/ToMuMNbzZnH+bVMMCgz1WF2I2F+7q475htIdj9jfFIxG1Tdv0OmTvmfE+9jFpujGef4wV85QmQMagFXZhMxgOLSfFXp4XErpZBOMFzuUvubfzDggMYHbjtWlIJT9mVRm1VAjTOAIA79EReqI8R/Y5hIBLMglgAKINbfNerGJ39eRSOiDc5T+h1MNomC/DcAq6OwNumoA1gZOK/yTBmAVdviW3f1cSokA63m2bKf0z5WBvmJKaVHU9xGc6CD++pTSxUdoq2QTH+rGrZLfv5bsdOS+pBES/qZRUpLR+N4M5hLmbbaZB26R02mmOOyvG3EDsNZ5qP3/gzxAv+0hXeEtz3bJ75Gx/N+sO33PrMc1V1btVE+WlEEsNn8ERiIxGYVwHjHVjUb0G+msiPH2bfMUmeIN1Wy23gOiezQWHHB2wRqAVfcsNwCr7vkxugZg1T9H+0d416yDMKeRE/umU9PsuB7gm6fNzDFSB5V/n7tdIqX0wo75QI+spNGewbjYhUDjmH4V2JaKLPV27PScscbZAKyxPLl77UhnftuEhT0wa2lPK8zRrJ8HZIs9JwclSnyTpO7T1lqMLRXAMkGq6f1BSgnC2exwD0DMn50r3ah4swvWAKy6Z7kBWHXPj9E1AKv+Odo/wl/u0pAEK7Cx5mDfSSmdttt0+bvZcT0APPlCSsn3cg6GdfWrKaWvzmGwa8aIhSUNEpBV0gBXtJswwP6pZMcz7csZRxl61QZvMqIwcoQ7GoAV4dXdafPSKaW/mDDzCBvrQSmlP+nYYF9vuliHPni/0KWC01H0DS+ZxtwArBl9C9DxRKvONKMxTzFUm6Ab7hhy3gCsKZ60/n02AKu/r6a6sgFYU3l+u36xRq6+XRPFfq2iMGZws8M98KyU0vVn4qAXZXmHmQx37TAxoQgol4ie7x0MQBeIpbDBv6wd5W5fcNGUEuapAyPx9pqtAVg1z848xnaHTNw43kTDVcH+1V1xBMXA3tXpY9FeavYTD5wvpYQ57Qxamr2rkA8G6mJsyQws90ZcDiLc7HCDGOkDAAAgAElEQVQPKGmtHPf3d8hJDcCqe7IbgFX3/BhdA7Dqn6ODRqgSDZp/6UP3UG/Z+Ioov33oD3fsejIJAnW1zyem92+llF6zoPkhvsv3F5vgnr6X00dpzzg0Nju2B4BVt8zaMqefwfth9A3Aak/xth5QVROwfbNO15jA+xSGiYUZjIn16JSSSsK7bvS4b51Sul5mXWHwljZ9P7d0p5H9LRnA4jfpg8pGyjVtdrAHHGheu2POaQBW3RPeAKy658foGoBV/xwdNEJphFKfzlb58D+Qq+KqQtjscA/MZT4/2kXkL7u0Mt65spNCA1MAiErXY7WJ6H+3vSQ/9gANXDprmKalRa23mYYGYG3jvfbblQekpf1ZSgn7cEoTtPhg/j5Zz3fRrAsCHNL37LmmWCf4HVP3nF221eeXNAlLB7DMlXK5xBt34V6HPptKn6oIBDHfJWsAVt2z3QCsuufH6BqAVf8cHTRCQR3aCzQia10THcwf3g3+AS16u/Yhm8t8SinBiP/B2jua1wX0TBwWpRNO8T7Zu2G1eVccFndtL7d6Wvj+JBlQtOc/y4iPEZ/6AwyLnOMGYI04aTve1KUyQ/N0FfjhWymlJ3d7xud3DKTP7ABj1DfCukDv8bY5XRBbdyqzn+J7jFTM3cVY5Me4FidBo9G8a3iRa/GJcRADvU6Hyr6kpkEVGksDsAo5esNuGoC1oeMK/qwBWAWdPWJX1vyr5M1taQ2GvrfxD1lw+eVNCHaty8wnpolqhDbNNZr5lNLy0gXOp4i61EgHNJXApjBMhw9lXawX7KAulrQpB3YpMuZiTK0rh78PZ5/+enBaVgOwpnh7ltmndeGaKaXHd39OVMEtrt4jGpwkDDByl6iPJduL9IHv0JUr8b0stFullOynrBWLsV0AsCCfolPKN+/C/fZ9ON+aP3DQ8V2zBmDVPeMNwKp7foyuAVj1z9FhIxTUIZB+kUpv4R1ZvF3FxGbrPeBdxAJywK7Rlj6fABQMM8VwptKdMe8K8kgPVn0b6LIL5ht2u5TSxVNKJw3Y40vNvEXOVKBhE6ld0wCsXXhiy92jb9F1M7B9/HLdHtnTv3dj+nRmjQq6YGQtwWhcXTWD6GfObNCp0gX3+pM+Ii2yeyyNfeUmdwXQuWTe4KlM2CwlHxHUxqcvDZHtObkNwOrpqIkuawDWRI4f0O2SAKx/zYCJEtS7YDZWxFUdyKY8cB/kaxFCbBaH0kVFCwMfLHPIZ787ocbGYbcn9UrFPCmrS55P+ia0sIAoUxqmA904acIOiJj2SzT+VqAJy8H3LOosI/D9x1lTS4W3BmBt9zT5Dlh7mpXxwE/ltRSoPSYzcdvR+045h0pt835hZM3RAFe3ySA3Bm4NoNVeP743V2AV3FicRX30a3MUWh8qJYpxbQ/YFL56Z07RgITvokHKMRCWIO7/9Rx9XEokw/Pou4RRcKOFPJzPywDJkg4TKjthVkyVNjPmo/HPeX4IIu+KqTz7jE5c9ISV3fB38lxIN2vW3wPX7t7Fp1S4ptk4YyZJG1m63T5rt9VyUHR4UTr9fd0Byz5hzik7DuIKFgic2BdI0Yncv9Fqe2pK6Y75oXXIbgDW9m9wA7C29+HQFqzxdOFoINFMrM28a/aSz+60BIm9+1bZB9Sm5wc7AFjZ8xJEp3uoCNrxanNoBgexcbFHv1rh+EYZ0q4AWJx1+VxC0gO4y+ZjQdTeglzbB6LUvFwuAyQnK9VhYD9fSSmdu2PUfTuwjymaflJK6eYLAJxFmlB43cuSjN6ONJVTLuCmvDu/syOH7NV02dS+ratidvbK5u8TuZw83aRm/T2A+SMwJT20JqPNdIl8IKlpXBFjIfINRLxxICNo6LgFTRwOX91Vw3pzp5f2kZkx4aRnnjdXVJMmeKECh3A+c5i+a07L5PMGYA198g6+vgFY4/hxaCv0LknpYF3XTOL4bEoJ8A7Isr/8eAZgpmLv+qbTzwacSw08V/4enSaYjTl0fvdeL6NAMFba4Ne2aaj23+4SgEUL67k5T7X2eYkcnw8CMA/wsatGawDDB4tk7qYs6plmHl09aA4enHXrRF7nbHLQH5kXkznfx/6xS1v6ZIUH5k18/HcZwALo7JJJwRGZrclUH7x7TQOayVjs5TBGblrZeD1j969sTJHDOW3eWwBbarLvdymmX0opvb87iBF6963DPK3RrPnnyAwHJehJf2A9/P/tnQnYft1c739Xp+GkkUhyUOZZyRBKhohoEhGhMkRlqCQREoqjkQyVVMhcyDw2mTK+kiHJnEicoqQ0nP3pXbt293vfz95r7bWn+/ms63qu533/zx7W+qy9117ru37DHHMBNnV/twnafrfGS+F9naQDClh1nhQFrDocS66C8Qbfe8LHTOkKW1K33XMQkXGF/lCzIfDuNG4hbOFqyL9NVeBC9kDGHwwD+I2hAxlOCYa/dm6sN7CsR6xEvGID/WjLaRKw6MRLbdjXttZDyASX2FenuWB1gAvh5Y8AAruqZL04tsJH9sGNS8bZNt4wLB7vlYL8brwpZ6n+S1L2p623i50+LLBev/WGZNYf6zkWtWsqxLZ585oqtKG6XKlxafiTldX3vMe+C7yHN99jNsjWap2KNQOLQzZ0H9dkJT1jBc8MGyJXTKIVWTXZXGR9MvcaBYvBb9zzzCpg1XlIFLDqcCy9Ci6EP55+1i7GdNuIEMMPAjPGF7hF866yiUr4FEQuBPmhgg2WnQhTWFddJFmiM/fgB2MXyhLjT2m/tuexiUX8UOKLHX2Z++OwBqDtLuVpbDsv/VWbBTUq7Wku/ydNML/+CCA8IgURPIKm/I8mEJyVnYS1poYfyhtffoIrP33oCRs6juDMmKRvvSAC4/bDjvtpK89PFrlraPfLk6vQGuqy1TpgYY2rwxoKbms3WENFZq4DYgzjItZna/9+IWax+MMiC1dDnp+PNUH3yb7HghB3lBqhJlgsszAkGxpJWviN2yvugQiviFdTZBEc2vXEB3tFytq2L2aMAtZQkicfp4BVh+OYqxA+4J4pJhbv4rGUTyZXdcYtLE53C2MxAh6x89YYC2xMP3w4xfkmWH+N8XpMXWY79zSKOEzuntMsjjH1Pk2FScl3plgIp6nd+9rKRIq4RKSY3fo7cKwWdVhLYuGzdFanse8K5s7XSbFHxl5rbeffJr1Ha6tXTn3YscOlhrawWDtt5abJEmMNcTGIE0fmNEs5AeL24Ia5dEEYIdvvMQr3Q9hiOUwGOxaKxFHZSmHhh0s1ohYuKB9M8TU/2hG2sCpud/jZoGHsoL2IVMynCGrMD4tEFo0smInBgwsOFnlYPrCJeK6VxOPBXel5yW3wLw90lAJWnSdYAasOx7FXQcRBZGeMWlsil7FtO03nM38lbhjffKxpjylRVG8/bn3x3tvAPQeQIYaX9j4b8Gctad+hc3CZI4sKQpblTB9hTGnniKswJW/8tY8pA2HLivcU1y7at+VCUGpcVdkdOrZCYEvat+XCQuxBpyxOT7e/cHN68QreM6weiHdDTD9LOQHeyVeuwPIH1w4snI82A9KALsK6gQX7T2x4nsECiUUR4j6/Ea+wVmozGvJdYx2BSIeQxX8zp+KHf2OzECGL/1/jeoN2EPMKoZGx55ALkgLWgAd+wCEKWAMgzXQIc2wy6fFsr9XdeSYUm73N25PL4B8d6RrjxI5Z4wdljicJP1diFFxhjput4B7vSTFefn8FdVlLFW6Sdvvxhd5qYXHATuaxlsdGxC033jjGGVwIj7UQj4Bd9a2WY3bxHNInWEqwe7e0K+gTk0uDGyxDeu3wMeymM27ecNxlRp/9sJS44jRaNXbhYZmEW8edV2JtNLpjj+wCWAjeqrG++oeedilg1el4Baw6HGtdBQ2AjSMsn4kFZdkOAeJdIkBOGdR+1TROq4BFu+/aWGA94AiCRPc9YMS7emSaTLJ7ZjmTAJltSDu+ZQHol5P6fqx9isj4lI03jg/M7228DSdVH1dc3O+2Wghi/jWnNP4Vfca38DuSK+hS8TCw7EBAw0p4qXTZW31+d+uNGxcsf25BC3PiJzEmkMrbcmYGK6ywYLL1pCTH0p8fSeMNVvhDYsIqYNXpeQWsOhxrX4VYdGxkkaF9Sy7PtTls4Xr/r8k8z4YfyaHYgD215bQKWHQ4/vhkYSE+zTEXTPnJ6kJwTst/E+DZR1hYeqe6tE9wfbpuCr5aeo21n0f8DNwjeVe3WP46uWb17e5usW1tncnY9KwNWxewyEYoHZq9Zst9dajul0wWyQRTXqLwbSIL5KuXuPkR3vPrUn8uFefzVak/mXtYziRADCgW7/woYi33VDDO4yr4Cykb91DXfgWsOn2mgFWH4xRXwZL+h5PXA/HpLOsjQIw+Nqee1IQEQsg61eU0C1h0/OUa80kyUJ3jiJ8CdtefdsoXaIe6lyCzT91o378miW+kwz7m8usbdsHDjQbXkWMuBOR9QUo/vMV2Xj8iyMR3mgvxaXhWsRAhg9qchQUlVpa3S1nP5rz3sd4LwR/X5SU2Z8iA9CtJqDkVqbwzHiLcdUma8OANb8pkNHeVh745eV+Q8TTHI0EBq053KmDV4TjVVbDCJgM4MaIvNtVNvG4RAeapWPK+qZNEo+hCx3LSaRew6MdjyKR16HkkKwH+/Zb9BHC3IIbPFjPd3TcFnz72RQLptQlKPPfCeuw7g1sCMfYIRH/MhQC9pIu/2wYbiXXf1pME1MK+VExAYiThxvPQWg3xOv9JAPeCe0cEgXrnLLg0YE33jDlvuqF7Eegcq1XCOmw5fMGGkP9XVVkAMs6VWEQrYNXpcQWsOhynvsqFU1a7r576Rl6/lwBzJMYfNj5Oe0zJ/wFLASuCIN6PSimfETSOpbw+KemnOQvQkL7EZPYhG3OBwgSeRQKZJ469YB2Jq+83bKyhZDZCHD8NPuq4smLxgTXWVgrZp36gqfOvbqXCE9cTlwFiAs4t6PF9unZE/PnE7Tttl2fh8cw4M/7SnAW3wavq3tCL/GpNZr6fbqw/6aetZ0LubeyCBxBT731pnP/FEQvAYxewmAMTF3jqNdDNU/yeBR8Jbz2QABlE2ZhkHkuWwq1tIg9s5moPIzboGclQ4TkDY/WttjFTVEwB68wgtgSwQ8Qi3f0xMGFRcJe0C4pJv+UwgfNHBIMDmSm3UOjP30q+6gTLPfbCR5NMhEw+t5Ix8qMR8YMR8eRTEpSa+C4kFMBdGQuDLRRccAmwT5wyy5kEfj65fs3J49nNJO1bG2shv1N1qSOKvDgF5a175ZOv9qBkUTfnPbd6L+YeBNzHSv48W23EiuuNeIXVFd8mMnAPjXe1r0lzCFhYbL9uIZ64jN1zBovNr2/GpJcs1EZvm08AQROxHRf/GzVWQFjcW6Yl0Mbpe3zKKIzBgmUPgWMQa2p0LC8pLyexGwgcveXCR5psEvz845YbMlPdmeiz83T/jeyE/m1EfFuylpgJ0eK3YaL/mGSpsXhleirAx4fkALdvFifHHp+si4K4CQirWxg/McNmZ5HU0VhiWc4kQMwL4ivMmYWImEBbzzS61ucHC0MW73MV3KYvnoJkz3XPrd+HgO4kEiK2CRuoW9kAWDv3DyTLBVxZCRMxNknHA5v59I9OODZibXGJiHjXQmBvneIgft7E9/+SiPjQxPfw8nUJoBNgoX2N5Ja+lc3+uhTmuRohYZ6e3sXXNptBjAuWAwQUsP4nGBY1mNJuuRBQmR3tMbtNW25/Sd1ZuJHCfQv+3mSg2GK8oZJ+6Z4z1wRrbD3JDHKLiHje2Att8HySRZDxdO0Fy5TvbnYVda8+a0/N2YcfTm6niojTvDEEDUdEnyvrHW7E3ztNU47+qrjKY72GpYOlnABWV3+Q3MNrZsHEopoYNFO9S8RjJHvoUhbBX5GSsUzpcvxnEXGZ8q71zBUQ4JuC2M7myNRi5wqaO2sVENpJ+oToPlZwn7XiS91MAeus5HFVYhIx1Ydqqr7mw00MEyzJPjLVTY74usSUIrXymt3U/iTt1n78iPvhUNPwx8cK6ztX3HbcoMjm9iOnxHVwtyuIgUVctgutuI/Y/WV8f9aK67hk1XBjeWFEnH3iSvC9uscRbBhNjGn05R+QXIOmnusx57hek/mQXWNLOQGssX4sJQD5/CMJaVFOY/iZBGZ/e/KiIHlRTobBIXfB+gRxH3f5KQpWqFhtLxUWAi8UXPuuPkXj0oIcF0VEWsu2CfAtIbkS81ziHTLv03K0rE+xuEJo/520dmAD3DKQwNSTmoHVWNVhCBgE18TiA7V5C4XFAD7+xFPgI27JJ4Bgycf1TvmnznIG/coz+apZ7rbOm+BKyCSSj+caC66D9NFpCNx+iD+uhARGX2NmT1yciPVBPBOtfvb3IGm0cT9nMTVl0NY3piQj713ji3xEdUJMJsbjlCnReZfIIknWQ7MkjXt4mJPjZsU4erMmjtnXzBBYe1yNlz2bZ4+4USwAEYHeM1F1WBewOXPZCa6PmxBiACFMlvwuEZqC+dUUYgT9QrIX1ycTPEALXZIMt9dKsUTJrEpWVTWFYZ3BXJQM5cQAZex6i3FAh4HrHuXDtp8ZEwgWOmRfWHuGGEwNsbwiaDuLAsQsSxkBdtcenVwwy64wzVlYjRB/4YkLT3CmaV3eVXHzfGxEXCTvtMmPfnkTa+O2aTdl8put+AZMahiLWMwihqylMC5iYXlfYwOe2CVtUhPGwctN1HnEZrx7EjqXXLBN1LxVXZZ4ZmzKYIk1VQBeBATmSkzIdX2o0/2Ix2zYEECZ/sMycgphoU5tl7nKW5PVAi7hCCRYM0xZfigluqh9DzKN4dLO/H3JgpU72ZOvX7kSWKb/TBM/jDhihjapDHfhyzFfwFL0Uil8BC7kW4iDuhQ25qF8JxGrcXX+S7MLlneFAtZhdkwgiDfEYmzNhY/eDVOgyjXXcyt1O2dSxKcypc7lwO4cFoF8/M3UdeYknuxxZA2dMl5DTj+xe4IL6qtzTjriY1koE0vw+1ZkPYD4e4cme+fHjph7zaYhxiL41RYhEThYJGHhRbZOy/QE2JD79bQwrT3nw52deCi4bVmmIcB4ijXWTyUrh2nuso2rMn4gVjEnYiNrziDHuNm9IyIuUBEVlhhYBBNXaA2bzxdNlmY1LagJfcH8CMHRctwEMALAmpDv+1TutlslyPNPsjCsHHnvLSMJ1J7MjKzOKk9ncsYLyUdrTTtg+MqTIhi3QRcCdR8dAlqyACfuAZOWpQoZB3HNIHjo1LuLS7Wx5L6Iy6Qe/8m0S11yjVrnICATVJ9dYMt/E2DywiLjuxaOJ8iO71OTRe277aDBBBj3eL8IKlozWCsiL+IY2Q4t8xHA7RqrupouUIhXLL6x7lrD4ns+msvcCQuZ70g/BMMm9syS85O5KDD3+WCybn5yytK1VKwYYpSR3r7W5tkfJnGS9q2h8DwRZxQ3coTvseV9yYLwmWMv5PmbIsDYdONklfXlKaTE2r2ZagPm+8jz//o0ZrxU4aouYgWsfp6Y4F8zTeTx4Z4zxfi+2rEDRcaSRzaiGll/lgr62E9u20dgEkswVXY+5+5z+piMLVgAsrPt4uCszxITLfzuf7zJ+HflBXzv2UF5bhJptLza/64TQxAL1jsuZDlALLJHNCmgH97sCJJW3ZJHgHEPt5kfrhDTjDENk3k2g96QVw2PrkSALGe48lylwvXI4PlLjbsISW/cTa4ANOMSuOwgSH5tcjG8fLPRRRbDYyvMbV/TJK7BPf+PI+KVK4ixhojIpjEJKM41EjjiFRsEuBStqfDdJpMy7vYIEaWF4NT3iwhER12LSylu+zzGKubnuEIT/oOxaux7s2YihETA0opxi3XBK9L/Gyphgl5TwBoGFcur80bETVLsjprmtcNqcOZRuJBhTYBrBx89/clz6OUfy0BLn99r5Ic8584MdATdZaFBbBEHvpPpXTItsG8+YYyX3Rp8OMXeICsiCznLYQJM+Nm1JqYgk5e5rFiJK8IEnMxKxFyylBGg/74pseRdK5kzkBHsCWlX3yC+Zf1Q6yz6kI0ZLHno29zCQvTN6XlAwHcOkkuw3vFs4iAwfFnKHodrPbGytlzaoOxkiSVoOu6CWCetyQKdRTkW4LgDlcT7YUOSOR4iGOEH1lgYG66UEhvlCt4I2mSyxeWVhbzi1Rp7eN46YX2F1eL50gbKDVIGw5Jv0Lw1778b63Jci5lrvqixYPzztGFKuAqf/X5+xUeUTEaLb3YkJyJqkK0OM9upgqLuQ8WuNTvh7GJb5iPAO3KJ5MqHJd6UC3AGPCyKCPBnvKvhfYylCEIjwm4t0/5Dd+c9xKKIuA6W4QTI4oRL2l2Hn1J0JAsdLFMRr0h+YKlDgNiAxGnBpT7HbYksg7jYPkNLnTodUeEqLCawLMb9L3c3HDdEngPfrQodMcElCPx+y2bX/6ZNVj7EyikzidaqfpuRC0sdNmi34uqNOy7uhLhzDi3E7MJyEff6LXhPIDCQoIF5KZv4fYXNPY5lw4KNC4sEDhFACP725GpIzOHa8TanJM/6DCMSMo8T05NNHddsUxLfc20FrDLgiBhfmQITYhpJ+tCzV54sYDWA2ws71nwk2bHBp9ayDAGyq5HammCUTAzPUylDJfHLyERB/+IW+jfLNO8o7spuKMEj+Sjid08cprGCIzvCvIeYBTMpIxi4LjPljwvx5RBBrposB85Wfqn/OpOxklgDmGw/rElq8doK1/QS+wnwXhHbAvclFjT0H4II7xnvBQs0hHh2IRnT+NFKZ51PE33HN+16zdhG8GYWFPRl6zJPX9J3iFVYwyAwsNNs2QYB4rYyzuK6Q0gExEq+kWwmsFicU9xibGD+ytiAazfzHKxksdDBNZBv7BatFZgXMh6ygXahtA5gY7uddzB/oM0IO69KgeeJibO1wvrm2mncv3h6ftr1I99fxnti/BCX9xNba5z1XZwAYxJzQ8Yq1tYI8bhFE3+T7xLfqrFz+ZxGIkbxHLdjFmIz3hbEvOX9ZY7Jd3GLY1YOh1Ufq4A1vnuY0GNqy8t36fQRw0wyV03mA89HHTED33HUXV4SPvJzZloZT+S4r8DkBJNqBtq2zxlsiRswpGA+/tdJmCSQcesnjam8sa6GEDz5GMY0FtZM3IkTQh9dLAmOQy1HWLS9K03KeAfpI362sGM6nuD0V2CRjFXj1yS3QsbNC6fJ/5BvEu8Ji6B3pmDgTCheluLG6XI7ff9xB0QOgvximdUuhtlxZ7HGxI7+cTybpy/G3oWFAcIGmzL0ZWtZTl8y5iEuaE0xlvKy59OnfBdxN2S+wn8TCoM+5x3mB5GChWTppgLvO88LPwRZ/0hEkIiG8YA5DwvA9ye3QJ6pY5rXImSxFrhgWni34iBziXYjmvn9MSx4mUe1ggLtYaHvpt6y7/cx3b39HjFW4SLNWMU4hXcFYxYb04hbCFt8t3gWc+MUM09sBap/SPMVxiwMChizEJwZt3h3+WGDlPHsGN7fo3lWhiwWjqaxEzeEDxgvFpMAXipELF5Adr2YHPBvbRYG1F0+8kwQ+aghXvDDC8QPLxAvlS/LxJ024vJ8xOlrBlX6nb5mB46Blr5uM3cxqaOPGfwwjWcHm4GRgZJ/d2EwohN6TsX8ve0fPnxYGWAtyX9330d2ENuJNqII/cT/02d8yDQNnq6PWDAxRjIhYcy8SJq08G/8jW9UuzCiT5hM8A4xoeAdon8YSx0rp+sjrywBCRwXARaJiFoIliwA+W++l/zw/3wfmdfw/ywOGYvbDaB2PEaA4r8ZhxmDsVZgPtNa7vHfLBL5viLkOEYf1zNkayQwFwHGK8YlDAUYq/hhzc341AqqjFEIx4xpXYOCdr1NeAnGK9bYjFGIrvwbP4xPjFf8Zsxqx7a52ud9CggoYBVA8xQJSEACEpCABCQgAQlIQAISkIAEJCCB+QgoYM3H2jtJQAISkIAEJCABCUhAAhKQgAQkIAEJFBBQwCqA5ikSkIAEJCABCUhAAhKQgAQkIAEJSEAC8xFQwJqPtXeSgAQkIAEJSEACEpCABCQgAQlIQAISKCCggFUAzVMkIAEJSEACEpCABCQgAQlIQAISkIAE5iOggDUfa+8kAQlIQAISkIAEJCABCUhAAhKQgAQkUEBAAasAmqdIQAISkIAEJCABCUhAAhKQgAQkIAEJzEdAAWs+1t5JAhKQgAQkIAEJSEACEpCABCQgAQlIoICAAlYBNE+RgAQkIAEJSEACEpCABCQgAQlIQAISmI+AAtZ8rL2TBCQgAQlIQAISkIAEJCABCUhAAhKQQAEBBawCaJ4iAQlIQAISkIAEJCABCUhAAhKQgAQkMB8BBaz5WHsnCUhAAhKQgAQkIAEJSEACEpCABCQggQICClgF0DxFAhKQgAQkIAEJSEACEpCABCQgAQlIYD4CCljzsfZOEpCABCQgAQlIQAISkIAEJCABCUhAAgUEFLAKoHmKBCQgAQlIQAISkIAEJCABCUhAAhKQwHwEFLDmY+2dJCABCUhAAhKQgAQkIAEJSEACEpCABAoIKGAVQPMUCUhAAhKQgAQkIAEJSEACEpCABCQggfkIKGDNx9o7SUACEpCABCQgAQlIQAISkIAEJCABCRQQUMAqgOYpEpCABCQgAQlIQAISkIAEJCABCUhAAvMRUMCaj7V3koAEJCABCUhAAhKQgAQkIAEJSEACEiggoIBVAM1TJCABCUhAAhKQgAQkIAEJSEACEpCABOYjoIA1H2vvJAEJSEACEpCABCQgAQlIQAISkIAEJFBAQAGrAJqnSEACEpCABCQgAQlIQAISkIAEJCABCcxHQAFrPtbeSQISkIAEJCABCUhAAhKQgAQkIAEJSKCAgAJWATRPkYAEJCABCUhAAhKQgAQkIAEJSEACEpiPgALWfKy9kwQkIAEJSEACEpCABCQgAQlIQAISkEABAQWsAmieIhEmnAQAACAASURBVAEJSEACEpCABCQgAQlIQAISkIAEJDAfAQWs+Vh7JwlIQAISkIAEJCABCUhAAhKQgAQkIIECAgpYBdA8RQISkIAEJCABCUhAAhKQgAQkIAEJSGA+AgpY87H2ThKQgAQkIAEJSEACEpCABCQgAQlIQAIFBBSwCqB5igQkIAEJSEACEpCABCQgAQlIQAISkMB8BBSw5mPtnSQgAQlIQAISkIAEJCABCUhAAhKQgAQKCChgFUDzFAlIQAISkIAEJCABCUhAAhKQgAQkIIH5CChgzcfaO0lAAhKQgAQkIAEJSEACEpCABCQgAQkUEFDAKoDmKRKQgAQkIAEJSEACEpCABCQgAQlIQALzEVDAmo+1d5KABCQgAQlIQAISkIAEJCABCUhAAhIoIKCAVQDNUyQgAQlIQAISkIAEJCABCUhAAhKQgATmI6CANR9r7yQBCUhAAhKQgAQkIAEJSEACEpCABCRQQEABqwCap0hAAhKQgAQkIAEJSEACEpCABCQgAQnMR0ABaz7W3kkCEpCABCQgAQlIQAISkIAEJCABCUiggIACVgE0T5GABCQgAQlIQAISkIAEJCABCUhAAhKYj4AC1nysvZMEJCABCUhAAhKQgAQkIAEJSEACEpBAAQEFrAJoniIBCUhAAhKQgAQkIAEJSEACEpCABCQwHwEFrPlYeycJSEACEpCABCQgAQlIQAISkIAEJCCBAgIKWAXQPEUCEpCABCQgAQlIQAISkIAEJCABCUhgPgIKWPOx9k4SkIAEJCABCUhAAhKQgAQkIAEJSEACBQQUsAqgeYoEJCABCUhAAhKQgAQkIAEJSEACEpDAfAQUsOZj7Z0kIAEJSEACEpCABCQgAQlIQAISkIAECggoYBVA8xQJSEACEpCABCQgAQlIQAISkIAEJCCB+QgoYM3H2jtJQAISkIAEJCABCUhAAhKQgAQkIAEJFBBQwCqA5ikSkIAEJCABCUhAAhKQgAQkIAEJSEAC8xFQwJqPtXeSgAQkIAEJSEACEpCABCQgAQlIQAISKCCggFUAzVMkIAEJSEACEpCABCQgAQlIQAISkIAE5iOggDUfa+8kAQlIQAISkIAEJCABCUhAAhKQgAQkUEBAAasAmqdIQAISkIAEJCABCUhAAhKQgAQkIAEJzEdAAWs+1t5JAhKQgAQkIAEJSEACEpCABCQgAQlIoICAAlYBNE+RgAQkIAEJSEACEpCABCQgAQlIQAISmI+AAtZ8rL2TBCQgAQlIQAISkIAEJCABCUhAAhKQQAEBBawCaJ4iAQlIQAISkIAEJCABCUhAAhKQgAQkMB8BBaz5WHsnCUhAAhKQgAQkIAEJSEACEpCABCQggQICClgF0DxFAhKQgAQkIAEJSEACEpCABCQgAQlIYD4CCljzsfZOEpCABCQgAQlIQAISkIAEJCABCUhAAgUEFLAKoHmKBCQgAQlIQAISkIAEJCABCUhAAhKQwHwEFLDmY+2dJCABCUhAAhKQgAQkIAEJSEACEpCABAoIKGAVQPMUCUhAAhKQgAQkIAEJSEACEpCABCQggfkIKGDNx9o7SUACEpCABCQgAQlIQAISkIAEJCABCRQQUMAqgOYpEpCABCQgAQlIQAISkIAEJCABCUhAAvMRUMCaj7V3koAEJCABCUhAAhKQgAQkIAEJSEACEiggoIBVAM1TJCABCUhAAhKQgAQkIAEJSEACEpCABOYjoIA1H2vvJAEJSEACEpCABCQgAQlIQAISkIAEJFBAQAGrAJqnSEACEpCABCQgAQlIQAISkIAEJCABCcxHQAFrPtbeSQISkIAEJCABCUhAAhKQgAQkIAEJSKCAgAJWATRPkYAEJCABCUhAAhKQgAQkIAEJSEACEpiPgALWfKy9kwQkIAEJSEACEpCABCQgAQlIQAISkEABAQWsAmieIgEJSEACEpCABCQgAQlIQAISkIAEJDAfAQWs+Vh7JwlIQAISkIAEJCABCUhAAhKQgAQkIIECAgpYBdA8RQISkIAETiUBvpmfHhHdb+d/RMS/RcS/n0oiNloCEpCABE4jgU9L38OctvOd/NecEzxWAhKQwC4BBSyfCQlIQAISkMAwAl8YEXePiM/pHP7xiPjtiHjrsEt4lAQkIAEJSGDzBC4fEbfObMWr0/cy8zQPl4AEJPDfBBSwfBokIAEJSEACwwj8n4g4IyK+qHP4ByPieyLi+cMu4VESkIAEJCCBzRO4WUQ8MbMVv5m+l5mnebgEJCABBSyfAQlIQAISkEAuAQWsXGIeLwEJSEACx0hAAesYe9U2SWADBLTA2kAnWUUJSEACElgFAQWsVXTDqa7EeSLiWhHxBSuh8M8R8ZGIeG9jWfGeiPiXFBOOODefighixFkkIIHjI6CAdXx9aosksAkCClib6CYrKQEJSEACKyCggLWCTjjlVfiaiPiNiLjwCjkQoPn9EfH2iHhjcrf9iyRufchEByvsMaskgXICCljl7DxTAhIYQUABawQ8T5WABCQggVNFQAHrVHX3Khu7ZgFrFxjZObHKenNEvDIiXpCELf7dIgEJbJuAAta2+8/aS2CzBBSwNtt1VlwCEpCABGYmoIA1M3BvdxYCWxKwupX/ZER8ICJeFBE/GxHvsG8lIIFNE1DA2nT3WXkJbJeAAtZ2+86aS0ACEpDAvAQUsObl7d3OSmCrAla3JR+OiLtFxFMiAmHLIgEJbI+AAtb2+swaS+AoCChgHUU32ggJSEACEpiBgALWDJC9xYkEjkHAahv42xHxoIh4awr8btdLQALbIaCAtZ2+sqYSOCoCClhH1Z02RgISkIAEJiSggDUhXC89iMAxCVjEwnpFY4V1j4h4lUHeB/W/B0lgLQQUsNbSE9ZDAqeMgALWKetwmysBCUhAAsUEFLCK0XliJQLHJGCBBBGLjIW3iIi3VWLkZSQggekJKGBNz9g7SEACewgoYPlYSEACEpCABIYRUMAaxsmjpiNwbAJWS+otEXHViPj76dB5ZQlIoCIBBayKML2UBCQwnIAC1nBWHikBCUhAAqebgALW6e7/NbT+WAUs2BIT644R8fE1gLYOEpDAiQQUsHxAJCCBRQgoYC2C3ZtKQAISkMAGCShgbbDTjqzKxyxgIVzdJSJ+MyL+48j6zeZI4NgIKGAdW4/aHglshIAC1kY6ympKQAISkMDiBBSwFu+CU1+BYxawEK1eFBG3i4j3nvqeFoAE1k1AAWvd/WPtJHC0BBSwjrZrbZgEJCABCVQmoIBVGaiXyyZQImC9sHHL+5GI+Fj23faf8NkR8UURcYGIuFREfF1EXDIizhYRnxURY+aW1PG2EfE0rbAq9ZaXkcA0BBSwpuHqVSUggR4CYyYZwpWABCQgAQmcJgIKWKept9fZ1hIB65kR8d0R8XcTNulLI+J6EfGtEXGVJHCVzjEfGRE/2vz844T19dISkMA4AgpY4/h5tgQkUEigdHJReDtPk4AEJCABCWyWgALWZrvuaCq+VgGrBXzOJGTdPSIuU0j9zyLi65uA7h8qPN/TJCCB6QkoYE3P2DtIQAJ7CChg+VhIQAISkIAEhhFQwBrGyaOmI7B2AYuW/6+IuGhEPC4ivqoAxb9GxFdExJsLzvUUCUhgHgIKWPNw9i4SkMAOAQUsHwkJSEACEpDAMAIKWMM4edR0BLYgYLWtv3BEvDQizleAg8XxkwvO85TDBD6t86d/F9SpI8Car1331ej/YxWwupxILHHsGVEdF04eCtb2PNhfIwNtnrqR3wZLQAISkMCpJqCAdaq7fxWN35KA9RkRcZeIeEAK7p4D8Cci4oE5Jyx4LAsKgtqfKyLOERGfmwLas/B5T0S8dsa6cU+C6X9xRJw9Ir4gIj4nIj4z1e3TI+JTEfH3EfEvKc4Y/83P36RA/8ewYMcKkHbz87/TT7sQ5bmEAe3E2u8T6ecfEpMZu2uyW31+RHxJei7575YFv+l3kiX8U5Pc4eMR8ZHkrsvvnL7fuoDFO8E7i9sz7wnvLQkqPi89L7BoOX0yIng+iCP40Yj4cHqGJuvACS7M2ERbvzC1l7a27WVc+Oc0DvCb+IPdtvKsnIbCGMG4SUxHxnTeHZ4LflMYJ3kOeC54Dj6YftcQhHf5Upfue8wzytjOv5EshXv+baff/l9E/HXqtynqs6r+1wJrVd1hZSQgAQlIYMUEFLBW3DmnpGpbErDokis22Qp/I2UrzOmin0+ZE3PO2T2WhQdB5XPKByLilWlx33cewgj98bVN1sRLJ0uzc6fFIYsM5ti/2YhY39N3oQp/535fHRFfGREXSxkiqQsLVv5GXXfn/AgZLMgQLlgIvTci/qJhdkZEvCIJWhWqNsslEGsuEhFfntrO/7NQp+0s+hBuaD9iI8IFi3QECoSs7oL0ryLiHcl99W0bE7ToY54BkiiQFfSCScRCuGDxu9v/CHftope+p70vT88//95XtihgwYh39copRt/5I+I8SchqRazddv9bR9DhPUEkeF9EEKvvT9JvBK61FfqbOcuV0riAWzfCDKId4gxCHe9Ct/BOIFYxLiDSEYeQtvJsIMS/YeJkIH0MEeZ5vqn70ILY9KKeMZ1xAXd3Yi/ivn6h9FzACbGoW+jrVvR9d0S8KSL+oDn3ZUkQH1qvQ8chKjKO822hLmT75RllLOeb1n2P6S/eY+rDBsS7IuItEfFHaQxf43M5ls9/nq+AVQWjF5GABCQggVNAYCoBi0kJE5VLpUUHkyYmLFgRsBPKRJKFFYtLJpB/WWmidAq67OiauDUBi8UzAtY3Z/bELzULpbtmnrN7OItTxJic8pLmffuBHvGGxQ4LHTIlshimjbsLwfaeUwpYzOFZaCGQ3SAiWvFsn1g1lEFrnYN1we9HxGMi4nURwSJ+beUSzaL6hhFxzTRusqhFrGIBSH+UrHFa6xMskxAzyeD5lCaLJwvVHOukOVnx/fjO9Bx8WbIg4RnILVij0e/vbITA30p9z/NwqGxJwOKZuGlE3DwiLp4YtaJmLieO51ng24zQ9/ZGNH5icnlGDF26MD5drRGkvzcirprEKsQ5rKxKC6IWFlnvb4SeZzVi/a+n96P0eqXnIdA+PAnVQ6/BvOmbThjTEYvukYQxRCKelZzCmMF786eNwPSzadwsGS/pn2skq2Xmg8wDc+tCvdv60O5faATM525MiB/EvmRwH3RhD5KABCQgAQkcGYFaAhaLKxZaLIJvmSYtrYn6EGTslj87Ih6fdn+ZXLL4mKq0wtrunIHd2VeveGEHDyaFTAbZed4t7JqyO7ulsjUBC7aPToupnDnnLzZWAD80smNYzLMjnVOen4QAXEN2CwtDdsN/Ki2GcUXrK1MIWFgEIM6x6EK4KFnk9NW7/TsCxosbMeh+ydKAHf0lhByeHdqJZRVi6G0LrPqGtnn3OMbX30n9ztjLAnENBcHuOqleWFzlvF9D6s8CmHeQ/t/X5rULWLyvWOFhhcnzy/d7yoLgibs0sfsQtuZ+T5hTYEVEW6+eNsCmai/PAyIW4zRu0icJnTXrUPL9+/M0x9od05lzIf7fO4lFNeqJNdSvNFZbP5M2HodckzkKzyZWx9+SrESHnDfkGPrlqY312Y8ly8GjcS2sPdgNgekxEpCABCQggS0SGCtgMcFktw+rAXaCWYSOKezyYZGFhQDWEpiyT7G4ulHajWcXt1twLUCEYwd6rQUrDSyAcBnpFqwMsJ7ZWmyPkgk8ViTfvaDrB7vSxMLKsQD4ybQQG/Nc1RSwsIbEyuk+EXH5DLGgpoAFv8umsQMBZ/d9HMOq71xc7bAy4V16TbI+6Tunxt8R63CFQ4RGiGC8weJtiYLYzaId6yTcx0qsLGrUG+sqXHN5pxDzhgippfelzbT3EcmNrHudNQtYWNIg7mFNydifM/aUsuI8NpJwQX5oEv6wWpq6IGTyPDAmIIAwz5irINphpckchHdiatGu5Pu3K2ChfVymmSv9eOMqfJOJhL4/Ttd/1QnjBPXAnfM70rH7Ntlq9SMuoGx4vKD5fRRuhQpYtR4NryMBCUhAAsdOYIyAxcLzdhFxvWT+zoK4VmFXjQkKk5PHJlP2mjttTJCxQGBB0C1MhH46/Sy1mDuJITvwt0guB7sxM344mdfX6oO5rlMygV9awGLx+32ZO8u3Ts/yGK61BCwsf26fdrFx7c0ptQQsFqUwvFUSXudakHfbyuIUV7onNS5YuHhigTllaUXDe0bE5VIcrynvN+TaCHlvTJYnCHo1x9kh90eYwTXsDpluVEOufegYxnZEGayLXtgRKdYoYPHMEPPpTsltDPfKJQoxpJ7WxC365fS8TCHstC7EPAtsiOWOTbW4tBtpCFm/PbFVc8n3rytg8XxcuxGt7p+ek1oM9l2HjT2SkfzuARHrvMl68ttn2owgdhsbQ4/b4MbdWfgqYE356HptCUhAAhI4JgIlAhYWBCw675YsCaZceLL7SwBizPpZONe0xiJQNYFBdwv/dpt037X1NS4Cj0yT+27diOOBi0Wue9ka2lcygV9SwEL8wWqH+DM5BSsnrAvHlBoCFu8rsbgQUchOlVtqCFjEucK9hIUXcXuWLgjXxHth4Ty2j05qC2sURJJfW0m7u3Ul5g0iHqLOXCIW49nPJSZLCDO4it0rIp6QRKy1CVi8q4gBLNIJWM4GxpIFYQexk7EDN8zamzwIdVh6YZ24G2h8iXZjrff0ZKWKq+0UpeT71xWwiDFFDC3ioE39fCBa4oZ7x2Qh3xUxz5csWrGcOxQ/sTY/7s+mA5t3WMzVfh5r1/fE6ylgzYrbm0lAAhKQwIYJ5ApYLHiJPYCrx6GguohOLAiJVcACgQwyCCsEEWaCxY47C3Hc3QjSzGSHyWqfBRe7bNwXF4Zau7+4KTIB7Bbq/v3JzWSuhdzQR4isZMToIg5KW2DBrjjm9MSr2FopmcAvKWAhviDiUO+hheefIMTsGI8pYwUs3j/c1rAg490rKWMELOboV0j35/faChnZcFt6zoQx+LC8QgDF9XpthfGDeENsGEwdAwh3USy+rr8wBNzGfzDFYMT1iTrllDHvw0n34buImzR9MWVMuJy2tscidlK351V6T2grQcmxtp7TXXBo24ktyaYW43ituUd775LvXytgIf5jFYfgN2chUyXCKol4GNPJlPqM5MY4Zz3ae20h9EMvFwWsXkQeIAEJSEACEvhPAjkCFuLJfVOQ5d2dvnYn7K2NSyExErBiIq4MqZBPKizIycLzdSlYK4F7T7LIeEUSargHri9jCxYg7LDuuuOxgCUY/ZDU62PrkHM+O/H0QbeQ0ZFFN5mUak+uc+pWemzJBH4pAYvnnpgsj2pEGNKfDy24qOEuNzbA/lgBC9GYRAmIKKWldMHO/ByX3f878v6l9R56HtaMxAXDdWgKEYcFOgIi48vUFhND29w9jtT1WCURJ6rGGLuvDiQOgME3llRwgnPIgssYSkD9NQhYbBQhqjHer/EZoQvITkjMJcaDMZkKscJDHKKtOYlfJngMTrwklplY+jC3qbmxVfL9Q8Ai2cWDIuK6c4NI9+P9xZIXyyusKBEg+zYhp6wqSYBgMuZZnLJ+vddWwOpF5AESkIAEJCCB/yQwVMDCWoIsNAQc3i0IKOy+Ifq8Nu3K5eLFVQKBjBTZuGbh3rfPwouJI64+WBvVcGHACoCMcjfeqTCWCN+W4qPktmWq47G6Iqj9buYpYrgQQ4bd0C2Wkgn8UgIWCywyMvGMDp1vYtHHRJ/nbKyLwxgBC8tFFudYYI0ppQIWwblJgU4A87UXdvSxRCLA+RQFsQQWS7jNDWkPgg6LQTYhahcs/8h6iQXPXK5GQ9pAwG6+YVgY55TS9+HQPQjoT6ZEftbgXnsSC8aUByZBv0Q44BuPtfPdR1iE5vTV2GMRjhjLic1Za7Oo5PvH+MRcYEkBmHAOZDxkrsbvQxb5Y5kPPZ+5IQkO2FzaZBk6odhk46y0BCQgAQlIoCKBIQLWxZqUzA9L8Wp2d4PJTINF0OuSi+DYSR3Xx7IF83QWkF+0p61MVFhgfVdypxuDgzkDYgSTnt0MaC9NbR5z/ZrnYsGzOzkj4yA712TFq7krXLPefdcqmcAvJWCxA0+MoByXHkRdJvgskMeWMQIW7xTuSGNj1pUs2BG+Ef62IF61fYT1JS7LuC7XLoy7uOFMmaVrbJ2xdiWu3ljRtVsPBCssixCw1ijOYCGZawVU8j4c6hv4EF8IPrn1GNvfJefzzWEsJnYclnu5hcQWxF2bM/tobh27xzO/wRKLbzHjeo1S8v0jTANzlyUtnmg7FvZ8C9fi9onAeM0Krvo1+jX7GgpY2cg8QQISkIAETimBPgELAQnxit34tjCJY7cV0YTd15oLnG43IJwRXJdsh/sW3aS7ZvfvnSP7DgZYx2CKvzuHYDJE/IulCzHCWFASCLxbsLrCDZKJ21ZLyQR+TgGLZ4LdZTJustjKKbig4TKHS9pYcZf7lgpYiMEEucXdY2zJWbDDDrdgLJmuPPbGSaRl558FHD9dpojfjBOIAJ+RYSF3UrWIiYXwh1Bfo/+698JFkUxrQwv3p82IBvzs1qdtP4vaWmshxCYCRNcqxOp5SROoGyujsYX28yzwjsGF7xACFAtqxkueBZ6DIfEVx9Ql533ou8+1kkt7DfEK90/Y8Lu7ucGz0bLhXRnjokimYCwrCeydU6gD3242iWqIMPR/29bd+QjX744LOfU8dCyxv7AgLBHtdq9Z8v0b2gb6vR0zOKcdI8b0+dB77ztuX33onxrPAPfDch63VuastcfrMe0edG6tQXvQzTxIAhKQgAQksGECJwlYCDdY9/xoZ5LLBIQ4V+wQEztqqhgpLVKssRAAWETuc7dB1LlFM5l898g+YNf7IXusAp4bETdZQXB0Ah2z4N3NGkcwaNwHt1xKJvBzCVgIVyy6YUzMolw3CQLuY+E39vls+7dEwGKRSPBhLBZrZPbKWbBjWUG2QSwtShcpLETY6SeFOwkhYMrCGTeaf+w8+IjtWHhdJgm9CGe4JY9pM/cm0QMWF2RDrVmu16S9Z3w5tG5hbP1gyrKFkEa2LUR7/psfXFPbglDD2IBAyTNy/hRYuTRQf3tdxnqs57jv2IILNK7mxDscUxAqsMDFhYp4RGckAQUmrVDDcwcHngXGl69KQuoUliI578NJ7SbLIM8DSSJKC+0nhhvWnlgIvT49t7w/CDs8a3xHeT4ukRIqwIh751pBcW1cYUuydrIphaDOJtWYwhjAM0pYAazAEdJ4T9psxYw550lM2fwhcQL35D0ZY4kKZ+I+/USFOHkl37+TmDFukDGR8Ypxn29P697JO0j8OcZFfs47Bv7Ac9v68M6S1IcNRxL6ULDC5D0lCDz14fcYcY3x+nfTc4l766aKAtamusvKSkACEpDAggQOCVgs2JlQECS06y6Fpc+d0qKOnb05Cm42TBSp0+5ilMXMryYLlzEB1wneSywpJvPdQrYlrCSIebFUoc1MlllEdyfdtJ2U1Uzet1xKJvBTClgwZoHXJhfAUoB3IXfBg/hws8al4Q8rdk6JgMWigcLCpUbJWbDjWoSlZqm7GDvq9DU/CFcsxobsrDNmXSrF1MN6lBh+uf3XsmIxjOslon3NLJ/UkXf3wp1OQWRAnCNJBQtyFn0s0sle+fcD2854wQIdAQ8LUmKe8dyUFARCNjAeWXLyzjn3TBa7Yy7Fgpznj/H4jTsi3qHrYmWEKIQ7JJsdjDc114o578OhOiIeETSfBBGlBQEPi2WCWfPs8D3se1cQeBjbrpQ2iYipNOQ9QRzDOg832NxyrjQm8F0dcq991+edQKhA8EPAJA5nX1u5DgIOQtY3JKvyMRapuO/zTR7rYlzy/TvEHC48j1g5IvAyf9kt9DnzHeY6N0wbLGSGnqJQH55r4pUiqu5L6sO7iEUm4zUWiGx2lI5XtIFNDqzjpojfNwWj/7pmzUFp0op6cQlIQAISkMDCBA4JWKSzZoLZDRjOZITFEAuHqdwGD+HAugI3v30BqJm4M5HEImzIJPbQPW6f4vR0/85OKxNCRLuai9ecbidzHHXAiqBbsGbAMm2rsa/atpRM4BEzHrpjgZPDdPdYXHaY1LMDDG92plnssLAs2RFGbMBii6DQNfunRMBq75/bDqxuWKCyEOLdx7KD955/f/MA2Fh1vDwiShdH7NQTyPplTeBkdtNLOLJAZgxD/P6REbFaWAiyuC9ZsJ+EinhqZPzD9Y1nhSD7iFqID1gpjBnPuC/CIQtD4hSyaM+1guP+T0vuszzTpQUxjfaNWZhSDzYyEGS71mdD68Tzz7PAt4LxfDfz7NDr7B5XQ8AikDmWxiVCL32EtTSJTVi8lwRThw0iAtZ2P53GwUM8sHhqN7Fy30nug6CMW2quxRf1YfxBnMElmnlI1wIzp/+wxGOT4v7N+3ajwjGe+2HxdYMCF8puXUu+f/vaykYJQcwZNxHXhhSs8bDufnBPnw+51u4xjNtsYOTUB/EdV3M2PdicKynM0xCwnlpy8pLnKGAtSd97S0ACEpDAlgjsE7CYADAx7brsYU1CrIsld7WYdLKARGDYLS9Ku+vsxJYWFncszHfdGnBdIgg37opzFyb8TMZIWd21PmMiz4KUyfzWS60J/Bo4sJjkGcTaBBG4tottiYA1lAt1RajBgoOYVbzrpVaWCEdPTovDofdvj+OePNe8c1ge1SoIULQLt7qStQILxOtU7lME01uleiEQTlUQaBlDsAjMFbGwnKAvSoNWM4Yh1N0txaTKbSMixS9XtIDj2bxNqlOpuNptw1gBCws8XMEZB3ML7yzCHuJsrXelTdqC9d6uhRQxnxDbfie3oul43j02mq5ScD4Wx49PiRVKRLp9t+SbeucUN2nXPX9IFeFPvCUyV5aOlWO/f8wFnpVE+lIrdOZ2WLKPdTmGWY364LaPANW1Th3SH+0xMfn8xwAAIABJREFUCJxkzW5dSXPOXezYko/SYpX1xhKQgAQkIIEFCewTsHarg/XDvdMEh0nkkgVXBybPXcuwdtLEzvrYtPeIRUzkiCnTFsQ83Idwp5x7QsQuNW3C0qpbiP3Cv2F9tvUydgK/pvaz2MeSAvFmindlCgGLRRiuwbjksBjHTWts+abkOpK7KKQuuAtiTYL7XO2CW+gvJJepXIs06kIcMWLRbbGwWEdUvXGmxQmWYAg+CCUlFmFjBBo2U4ihhkXGGAuw3f6i79usnGMzQY4RsBCI+G4RfzEnsyntQTD5tWTBVypcHHqOsUDlm4/LZbuRxSYW7qSISKWF54jva+67R/sQMYnJmWv11VdX4hritoaVIvGycstYgXfM9w8WJJgghieWcWMKzyFJSsbGDMTqFsurIVa6J9UXAZW5Xu43hGviSgsTLFs3UxSwNtNVVlQCEpCABBYm0CdgsZtGsFXSyY+xbqrVTCZXTKJxu9kNqI05P/EtxuzOsgPJpOlqOxUmLg3WF1NaSexjRNBZgnDjztYWhBEW+Ezoa1v41OqnnOuMmcDn3GfKY1los8AnVhDujbUXWW3dawtYCLK4rVFvgjKXWhF02fKsYpWAC3LuQhXLKxYeuVnNhvYt9eF5493ZjXc35Br0LS43+2LLDDl/6WMQkxBXd7OZ9tULMQNhNleUZU1GEgxEixKXsV9J1oxT8cadDVfkMZZYYwQs7otFUq71FUIiVls/XFnY6z4H9BdCBFnd+KZiZYQwUCJicl3GBd4fYm7lFCzwiEGHRU2py2Df/YiThiUkAk5uoH++wVj8ILKWbHCN+f4h7LHphgVWab+0bGBAvCqsNEsLIjPZeplD1fgGIlgiLOYWRDTCTWxqg08BK7ebPV4CEpCABE4rgT4BC9EK83KCCq+lkD3pMSnIdrdOTOBY/LLoKS241zABw0qjK5AxGbt7CqZeeu2S85gU4x7SLexs4tKzpDtnSVsOnTNmAl+zHiXX4plj55tYKgSWrm0JsVun2gIWQjDiFVaWYxdAbV0Jes/iOjebGrG1OJeYKVMWrF6wQnpUgajCAo3Ma4iVWyyMb4yRWDV1rUz72oLlFkG72+xhfce3fyemE8IX98xdn+EuTqbGKbOJMcYzrhNbK4dHt/1jBCza93sF9yYzJlZDxKabsiDmIPIh0CNK5AqY3boRnwlhO+c54LuLRSbPD9kFpywIOHdN8aBy74P4j7CNi2VuGfP9Y/MBAWtMv3Tri7BNPLXS+HAIaQjWJULePm5879jAw9U6p7ABQrbTWm61OfcuPjbnxSi+iSdKQAISkIAEjoBAn4DFjiSTurUVFhz87Jq7M5EkvsaYCR0xtliAk7msW5gMYcEwVzB3JpGkw+5aXyEykPUIc/+SQMZr60fqM2YCv3R7sFAkNhqCAK4cuCxMaRVXS8BigUEgZlyQahZEgHYRmDMfhxkLHxarcxWSQhDcPaeevH8IFlimjBlj5mrjvvuQDII27IsleKheuCwT7HpfFrGT2kJiBOIT5tyL62Fpc+0Jgubvq+sFk5s2C96cZ6G91hgBC7fdb8t8GNhUwhUPsWArhe80guTlMiuM2yLP3Sszzys9HHc1vq/Ey8t9FohJSSbj3FL6/ePbg4U2STZqFeYaPM8l2TARG3lnEcBqlVYAJ+5aTmGcIo7W3BbzOXU8y7G5D9yom3myBCQgAQlIYMMEThKwML9mgrTGSQCZtZ6/JxYWExdimxBwubRgoXGftDO/K5ARiPjnSi+ceR7BZREQuwULEBbdLHyOpZRO4NfUfibvZAB7UlrEYCU3hdBZQ8BCHMBtisDatetIJjNc1MhmNrQgCmHdgWVTzThHffc/V8qSmOvSRDBzLCCJfbPFwiIdC9Z9GV0PtecdjSXE1QssGohZSDayHOsmngeEVSxPx7iD5/QNGwKM6yVZAEsFrC9Ocd66yVL66oxogRsf34YpLdP66pH7d4QNxgWyCeeUuTfQ0BAQr3B5zY2NxtiPtVpuKf3+IQgS069maTcgiPeZ6/5Nshus42u4DrZtoj9w7cSqPic2Fxs0JCMgY+lmigLWZrrKikpAAhKQwMIEThKwiDtBGvs1FiZXBFPejdfAxOWByaVrTL2Z/Lx4j0CGMIHbx9SiHjuhmM4jIHYLboPX3djipa8fSifwfddd4u9M3pnIYx3BpLt2IPKxAhb1e25Kt451X+3CAgZ3Y7LeDS2Izuyw45ZXc/Ez5P6432CJlZOZj3hMCFi4fm2xsE7CNRkRZDfL3KH2lFo0EK8QF8KcgtUNbtzPqejW2nd/xEysZ7DayC2lAhYbEblJR3BRvmVik1vPJY8njhGZWXHTG1pwx8MKemo3yd368O3Frfo7MkUc+obxOTdweOn3j5hkue/WEPaEjOCZzg2ePtV88RqpPhcYUvnOMbgdvjvznEUPV8BaFL83l4AEJCCBDRE4JGDhHnPlZpf+jBW3BSHpeXvqhzUHLhZjrDkQyMgMRZDcbsFihYkjQaCnLLhNYCWxG/iYOCKPmPLGC1y7dAK/QFUH35L3B5GT7JW4pNQSZsYKWAgRLMyIoVMr5lUXClZUuW6JuJwgCC2x2MDKgjHksoN79kxuLMax2JnSXTSjStmHsjGB0D808x3PL652uRYNiHxkpMwpbBzwPEy9SbBbJ6xrGfNzS6mAxXeKcT6nIA6zoK8VYyjn3qXHHsqk23c93LJ34z/2nVPr74yRJYkHblggLpZ+/5ifERS/drlqCqFw0cwL8yyTkKB2wdqekA5XzLywAlYmMA+XgAQkIAEJbIXAIQGLeD5MSNacxQWrCRbkuyJPLRcf3B2woNm9PsG6WWBNFSCUXWpEKu7RNeMn9gn9tdXYO4feidIJ/BbeMRaaBC4mg1aNTGpjBSwWAlh+TFVwb8pxoyHrIQkTCKS9RCGIN+7CZPXM2QDHHQq3szEi+aH2Ug/GAFxm+M04hEXo+ZOFB7HxunHxEJd4thDXEZgYlwhijCUTYwUiW/u7vSdCI9xz3NdKFoSIkjmWEzwPWHJguTV3waXvrzKs0tr6lQhY9CHWvOfLbCSx18YkKcm8XZXDL5ksaHIECJ5Zjn9jlRrkX4T3i3iaucHDGecRt3NKyfcPKy/iyk1hnVYiGCHqcx4JTWoX3hHesWtlXrhkvMq8Rd3Dcz5Ade/s1SQgAQlIQALbInBIwMK6gNTp/7Ty5rDjtxvLhUkd4s9LKtSdLG1kmOvOLRD1yIpEHKpaljXdquI2yIRt1yqElNKk6z62UjKB3xIDRCyyuOFGM1b0HCNgIbawKETcmKqQQTBn0beGrH6HrB1PYjQm69ih6xJ/iXhcWD4QaJ0fFv/nznRlaq9PxkDcWf88xeticYnbKD+0mTF+SgELkSbXnYrjb5/iJU31jJ50XTZuGI9ySomAhWscLpKIZkMLog5JRKZw/R1ah5LjEB4QzhFghxYsvwmKXpLVb+g9+o7DAgtX1pyCZWuu0FLy/WOc5byx35N9bSN7LP1FRtihhbEGAWsKQe2caT50g6GVSccpYGUC83AJSEACEpDAVgjsE7CYKLPTyyRmCjejmmz2uX0guiFgYSUxtjCZI1g8C4duIf4WcXtyF2h99SEmDZNm3CewDmnLB1Jg7Cl2OPvqNPXfSybwWJf86QQuXLhUkTqehT2WL6XiwS4zLGB4HnlmxgSmHiNglSy0c/qeuFdYRA6Nq8S16UeyvyG0LFUQihjrLpNRgdKYUPtuQayZ66TYetSFsYZnsHYheP+7koDJ8w33nJhEuQtCBPhcC5oPJRY1M6vlcGSzguy2OaXkvSLRCPGvdq17T7ovSQNyntGcNkx5LO54vF85z/RvpSypCCNLFbKiPiXz5ghLWEblbPyVfP8QpXElZfysXZgT0l85iThqjoe77UEIpz68Mzkld7zKufYkx2qBNQlWLyoBCUhAAkdIYJ+AxaQIAQjhZu2Fhd9u6mpENwIUE4iVrE1jCm48uARgjdadXyBckZUrd4HWV5c2jffubiNxhYjHNUb86Lv3Un8vmcATt+hOEwiIuGzimsoPGZmwisEijt3o6zfxnc47AhLuUbj/8GyWWu6VCljcm+d1ynT0BMB+QyYfrMGwMqJ+SxX6lAUSY8nQQv9hcfC2oSccOI4+wYXx8sktcK41DPXPzTKWuyAk9lVuoHusi+C61DjHIplkAjmlRMAiliEBuHNFHZIObKnwjOFq+/BMF13eiQcv7C5/nsYakI2jnMLxV8uM51fy/ZtSwPqSNB4SY3RomVLAQmxnfL7x0Mqk43LHq8zL1z98rsG/fs29ogQkIAEJSGBeAvsELKx8ELBI07z2goUUi+Ddbz/Bs3+6UrBbUlWzSCEOTbcQnPvWla3UEAEI1NtNGY2bFUHpCfp7jKVkAv/MZpHAYm7OVPKIWqRYv2tKX461Vu6ck/ryblH/EuvGUgELazWyV2LhMlWBDW5ROaXE5Sbn+kOORURggYSlSE5BfMLlLLfwzGDdhzC+1iyv+9qUuyCEZ64VLBsCJZkAc/vg0PElImyJgIWVFz/dcb6vDTwvxFjaUmETgEDsOfVmXOR7xzu5dCGzYDfeXF99GF8ZZxlvh5aS758CVj/d3PGq/4oTH5E7mZi4Ol5eAhKQgAQksFoC+wSs16RFNkFm114I8MlkcXeSSYBi4lflmPIfais7gLj0EfwaEaMtXJtMQDXdXbDQIQZMt7DI595LZGmbo/9LJvBLCFgtC1wasNTAkgrrrJzC4gyRhz4uiV9SKmDNYcFX4nKDwHGzHIATHYs7F8JizhqC2Hs8hzmF8QNrK2LZYfGV426Zc58pjs1dEGJllJut9Q+Ta9QU9R9yzZL3q0TA+tmIuEtm//MNWIOoM4Rjewxu8MRuJHPv0FIzBMDQex46DgvL3Y2rk65JfMxva9zvXpZx45LvnwJWP+Dc8ar/ihMfkfPxmbgqXl4CEpCABCSwagL7BCwmXyzm3rHqmp9ZuS9tdjxfsSfT1aOTdUMtVxTixWABheVEtzw+WQKNdVXkmrgyIcado3MDAoCze/2ACu6Qa+3Okgn8kgIWHJlrIkQ8KDNWCOfiboFbDUkAcq2wShbYuIthNUZmyxrP6aHnCFEuN0PaWgSsX4oIBJeuQN33vpBt8Ul9B+38nWcGUedKmffKvM0kh+cuCHnm2EjIKc9IAkDOOTWPLXm/5hKwSp63mmxKrlUiYPHNZv6R68pZUr++c7CGZpNqaFHAGkpq+HG6EA5n5ZESkIAEJCCBU0Fg6wIW8Rr+YM8uKRYVLKBqCVi4QiBW7boZES+MHVcmumMLu9QIIt2CS8K1U8r1sddf6/lbFLBalhdvYvY8NQXuzeGLmHT3iCCwdk4pWWDjgsqCkIydUxbu8ZjMG6xFwHpoCrA/pYB1rpQZlSDPW9xsn0PAemka7zIfo2qHl7xfCliH8Stg9T+aJd8/LbD6ueaOV/1XnPiILX4UJkbi5SUgAQlIQAJ7CRyDgIXbCannu6W2BRbXJkMYQbARs9pC8GkC1JINcUwgarJRvXpPOxBHcmPzbO1RL5nAL22B1TJG8LhtRGDBkxPPhqx7ZJHKdSMsWWCTGQtx6Y8mfjAIssvzmlMI8v0tOSdMcCzrBlyziGeXUxCWEVyGFOKlIdYR2Ly0YEn3yRTXj9+I57tuxTyPiPpfnBIQMFbxQ7bB7rhVUofcBWGJoMn4etWSylU6h5iKuZbHJQLWQ9IGS44LKRsyjDNbKghY922e23tkVJrvKO6SxJhcuhBfczcD8Ul1wgKL8Qyr8KGl5PungNVPN3e86r/ixEcoYE0M2MtLQAISkMDRENgnYLGIYPHBJGntBbe716ZFW7euWFT8eGPl8onKDSC99612rknmNXiNyUh485Q18fM71/6XiLhm5mS4cnNnuVzJBH4tAhaAsKhBALlCBi1c+XBNeV3GORxaImCdkdxcxzyfQ6pZEsSdOiEMT+na2Fd3Mk3Sf8TwyinU+/UDTiATG+PDL0YE7jC5hXGAhTTPCkHjuSdj80nWe9wTi6/zR8RFGnfVyyYrVZ4ffhDMc9dLuQtCFvK4BOaUv2yEvks08Qs/lXNSxWMJwP2CzOuVCFglQdzJWpgTSyqzGZMcjmjK5g4JVXIKGXcfNnJTKOd++45FXPxoRBDzcGhhQ4LkDjkiaMn3TwGrv0dyx6v+K058RO6APHF1vLwEJCABCUhgtQT2CVjEYWLBNWRxtnTDCOL+lj0Lw/s3FgcPrJSFsNtGYtg8Py0O238nThU7zFhilSy8mCATF+e7dlLbv6Sx+PqGhRf3c/RvyQR+TQIWVgYESb9Fpihwh4KYUSUCFtYAvM9YfU1ZEB54F3PKXzVB7a9YYImWc4++YxkDESGwqBpaCDSN++h7B5yAiIRF6NdnPh9cGhfiR6XA/4h9iFmlBaEOCyP66foRcdPGZZlnd2jJXRDyXudmafxAssB6z9BKVT6OwOoIjTmlRMD6/ohAkKJPhpbnRsQNhh68kuNYk98uPcM563PEK76ptTegcrBcoCBxyvuTWEz2wqGl5PungNVPN3e86r/ixEfkvCATV8XLS0ACEpCABFZNYJ+AxeLhu1NsqVVXPlm/ILjtfvtxt0AUqm3ZgQUFbhy4OHQLMbC+uQkE/eECYAR0xgLkkp1zcRfC3YhFy7GXkgn8mgQs+gex9Ecz3bR+Llkn5PRviYD1oiRgIRZNWRBDiDmXE0cKCweyEFLHpQqWc4gQl8qoABYWWFoMcQElYyUx+bB6yimIY1iFMb7hMlirMFZi2fmUPUkpTrpH7oKQzYUhAl/3njwPBCt/Ya3GZl7ntxuhF2vYnFIiYPGtwJp3N3vuSfeFDa6htb9pOW0tOZbnn+9bjiUTmXd59kl4sVRB4M1N0sC7SmZavt9DS8n3TwGrn27ueNV/xYmPUMCaGLCXl4AEJCCBoyGwT8BiEYpAkxvPZgkoBFAnm1u3YKWAxckTJqoQ1gssWlhMdAsT7tzMSSz22Y0nW1d34f+atNteIohN1OzJLlsygV+bgIW1ALFecixayGpJ3KicUiJgYTHI+0DMpKnLm3eE2L77IcxgLUmmzdyMjH3XHvp33lsEppwF9vOSxV2fpQWxr3CfQlDPKe9Kgvif5ZyUcSzvHEH9z5lxTsmCEDfHs2Xcg+fhJyPiwRnn1DoUlzEswHC9zCklAtblkqviuXNu1CQB+NrGko8swVsqZPBFwOL5GVpIPIG1M/H7lihoCVhN7m5U9dUFUZLNv5xS8v1TwOonXDJe9V91wiMUsCaE66UlIAEJSOCoCOwTsGgg8aOwEClxiZsTEIsdhINuwSqCSeRUu/gs+h7ZWEbcaMfljxg1TNZzMsudI+3yXqfTAJjfJyJ+fqTL0Jz9MOZeJRP4tQlY92osI+6dGcj9GAUshKDcRd+z0jkEQJ67IDDdL1nP5dybsZH+xpXwpIIYQvuIdza0sHgnbhDCyJjEECfdby4BC/fVqwxteBIx2ZC4TUTAYc5SEsON+pUIWLgO4qK/m3ykr72/0riV3nFBsbevfvv+ThsRsHKD8/MO8J4tUdicIhboBTNvjrskwldOKfn+KWD1E1bA6mfkERKQgAQkIIFNEjgkYLG4XmIRkQsR1yNiy3RLjaDqffUg3tEjGpGpG3QdCxLiWOVYfiF4PWcnFgruSQhwL++rxJH8vWQCvzYBi4XWnSMiJ6vYMQpYuH/lPP88wu9LAtaLF3ievzS5L3bdd/uqgZUQIsJjB7gKsQAmdlVO8PY/SO//lHGg5hKweC8IyJ1Tlhj/sH7lfSzJiFkiYMHj8cmKL4cNQe6J1Tbls5FTnyHHItYhbJNNN8fIhJh9uPd+fMhNKh9DohZCEORYZSI2kzBhNzNoX9VKvn8KWH1Uz7T4y+2L/qtOeETOyzFhNby0BCQgAQlIYPUEDglYuBsxeZw6bs4YQCwKCXK866KCxQMuU1PGz2BSzoL7q3cawK76NTIm3bsxVxDBnpwC3+LKeRpKyQR+TQIWi5zHFLgDHqOAhWDz6szYSsSLYbE4RdbQvvfn+1LyhZy4XWQERGDGuqivXKtx+yIZw9DCIpgMqsRTy4mjM/T67XHE78LS6YsyTixZEBJ0/NkZ9+BQYjz9VHIjJEHGHIUxiPdx1y18yL1LBSxibTH+5xTEUyyOCQC/pUL2RKylc1ys+Rbiesv7MGc5e0qugXt3jqaABTbxLHPf25LvnwJW/xNRMl71X3XCI3Ietgmr4aUlIAEJSEACqydwSMCi4iXm8HM2mODPT9y5IQtA4kndfYaK3LAJ2IqQQsr6tnysCezMonhI8FesP4h185mF58/QxFluUTKBX5OA9VXJReYymbRwNeEdyylrj4FFoHLEPNxrc8rfJUtKFoFzFdx3iTF1nswb/l6yTh3i8oglB3Fxhhbcj7FY+tWhJxQeh6Uc2Q27FqR9lypZEPJ9QdTPjSuFpRFu1YyPUxc2IxBQ6avuWD70vqUCFu6rbMDkWPlQJ1zb2KBBxNhKwY2UMTv3OcCCBivl3GQApVzQELDC4/3LqStiG+9tbgZL6lny/VPA6u/hkvGq/6oTHqGANSFcLy0BCUhAAkdF4CQBqySm01xwPiPtmJOpr1sIqnzrFHdm6rpQB9x9urE9mMiyk4+IRdaok8oDmhhjxE7qljelDGFTWo9NzSX3+iUT+LUIWIiPP9I0GOuCrhA5hAF9T4DvnLJ2AQsXyjs0LnM/mxkPDAZ/nKzY/iYHSOGxiBYI3bkCIjGviE9H+4YU4vg8ZMiB6RiEPMSJZ2Sck3soIg1jD3VjDBtaShaEZNlD0CTZRm75tcaK9k6NZd6UVlhY3iG2IjywoVBSSgUs7gUb+junwIMg9yQ+qJmd8lAdeEaYJ2CNTYKUksI1XpC+bTnnEw+SuF8/MVNMNJ4B3B2vl1PJlCCDAPu4v+aWku+fAlY/5ZLxqv+qEx6hgDUhXC8tAQlIQAJHReAkAQsxBjHocStsMab6uAruunyQBY2JZF92sFpNIiMhghW76W1hok8g65OCyH9JRLy0cRe8xE5FcB0aujiu1Yalr1MygV+LgHW19H7kZNhqeWPBR/yznLJ2AYu24HpM0OZL5zQsHctiFXejKQN4s5hGNEBYyrFAoorE68ItcOhCNVfAot3EHmRMmaow5rNIv27mDUoWhK2gSSysXIEXoQZ+xBrMdcsa2rQLp/d31xV86PkcN0bA4ltFltCcTI3cExd/4rBNKXRyH94VNom411MiAlGxtHx7QZZe7oWgTZZXYoZNmVSGZ5XEKQjwOcIudcRii42MErf/ku+fAlb/U1gyXvVfdcIjFLAmhOulJSABCUjgqAicJGDRUFxsWLB9eEWtZtccy5Uf2jPRLLFqGdM03JBwEUKMaAvCHy4pTLo/ceDiCIMP23EfwWKLBdVc4tuYdtc8t2QCvwYBC5dBFpC5mapgRx+TJj43yOwWBKzPSnFrEGJyYkvBhfcFYelBE1mXsEb4hiSKwDJ3zYAQg3vyUEElV8DChZDrI9pMUWgv1lAIEYxdOaV0QYj7GJZGF8+5WToWoeYHJxL0aD/jCBa0Ja6DbXPGCFjEW0LsLQkej/vhTRurpj8s4Dr0FOJA/VJysyWYOhk7sVYb+vx378O48CcRcbmhN+8cx3OA6IzYN0Wh/7Gi5d2jnjmFuRGWnLgW8+3PLSXfPwWsfsql41X/lSc6IvdjNFE1vKwEJCABCUhg9QT6BCxcFBCLcFeYKqV7LqQrJguC3ZhDuN8gAM3pfsfEl8yDj9zZRWfCjXXOO/c0jpgnWEDcZOdvLNzniN2Vy3vq40sm8EsJWMwxcT/DxYQ+P2chHAJ7k5Wrz8109/JbELCoM5YlT20YnbuAD3HkGG8QcfjvWgULCyxtyB5YYjFHX100c3zJzcqIMIDYg8XLFOMt/YHgkusiRR+ULgixTiXeFuNkiVBE0HwyfJI0owYT6nDeFKew6/5d+pyNEbAYTxgHsODJtQakvlgnkREXV/YabLhmO8bdJQlWXREaF9r7J/fbEvdFxFOSlORaOFEv7s35tLWmWynjOW3FTbFrST3keUCwenpE3D5zXOheu+T7p4DV3zul41X/lSc6QgFrIrBeVgISkIAEjo5An4BFg9+WzOqJUVOy81oTGq4WCGrsyncn1tSLCSgL37kLEyUCcl9zx6LjkCCFsMWuOym320JAaM7H4u20lZIJ/NwCFgubCzRuNJdMcZqwuMsNvtz2KwtNnlViMOXGlNmKgIVIgOUG72lJYXHMO4LwgVswmelKC+sCArV/a1qQl4iOLJgJ0pxrGYVA8rJMS68zkrUJv2sWsrZiQUNmtxIhacyCEFdrXNFzsh52246l4gOTJdYYC1XcGMkSS8ZLRNZcC8F9/TFGwOJ6fIMRw7+xsF8IeE9WQgTjMWyoCyIvG0TEHsPlb5/bJ98qLCR5FxCVcgoWZ63Fcsl6HRdb4n/xLOGqX2Lx1K0vVoGIxVh3lYznWF9xbq4reLcOJd8/Baz+p27MeNV/9QmOKHkhJqiGl5SABCQgAQmsnsAQAQtxiHhOTNSwLFqytO4vuwshMl3xt7myFXUZsBhkUcjOdDeWCRN9FgNdNzF2nnF9JIhydxeadOrfX9niZMl+yrl3yQT+eUkcqR0riTkkqd6xhiAANZYauAiy0OGHmGVk2htTsCjhXXp5wUW2ImDRNEQjxo2SWFgtGhJJPCFZbXygYMHKAhzxBJddXAdzYw219SDeHn2Wa915vsa9+LV7YvWd1PWImogDiJy4FNYoxNxDtCG+T24sqvb+YxaECMAIPVgblRbiCz07WaixmZJrAcR7THINhBn+u9Z6cayART0QV7G8Y8wpKVgHYqHGRgouhbnCOPdEnMdKDnfGi/WIe3zbcKdFOMvZ1OJbiVDH8827UVJ4DmgjIhZue7kiGvfkfeA5wEKSeJolFmFc56EpZl8xetekAAASKklEQVTus9htd8n3TwGr/8kZM171X32CI2oNSBNUzUtKQAISkIAEVkVgn4CFKMAPi/d2hxqrEUzlmfCNsYYY03gm1QQ+380WRdwcBCQWAEvVjTphabHrmkRAdgKztwXrj99Nu//tvxFbhIXVkwoW6GN4ruXckgk8fc4iKmfxNLS9LLJ47rFGYLHP4pu4KDXmlzyfuI/yvJYsvLYkYMGb+HnECSuxbmj7i75+V7IwQegdEkAdgfsGKSA6AhrCQInVEXXADZj3E7fPXIsP4iwhwCGe5RTaTEyenAyGh66P6IrVCnUoFa+49tgFIaIRGw1jBGDed957BCwC/vM9OGnMp8/5btw2iUR878Yw2Md4rIDFNakTsaWwBiotPJtYBL0mjTFYBfUJWYxzX5liOPF8IDoP5YO4StBzntOccZgNgtaKulQ4oq3MUd6S2opF7hBxGdEMkY7YYYQbwH2wtLyxef6uXmHTqeT7p4DV32tjx6v+O1Q+osYEo3KVvJwEJCABCUhglQT2CVhYWeGKhxsBk7xuIX4M/47okruYKwXAIoR6IPxcauciTJxZIDPxJx7IkoUsRCw4u/OQv05iFW4eFNxWiOHRXUwjfJG1EMuc01hKJvBb5YSF4Dc31oIsfkrK1gQsFqtkFcT6Jzc48j4+iBVvSmIx7ra881ifIJCdK40TuO191UjRrL03QhLWklialIjjLNAJ5M41SgQ03K3u3YxvBOzuEyPaOjP+wBomLNaJq4fFydhSY0GIlSlCTalwsdsGBBssj7Bye396HhAlEGIIFs6z8BWF7IfyqiFgcS+E8leketdYyxITEqHv1ckKmGcIV1g2W9icumxEfF1yjR7a1t3jSmNisZHz3GShXHrv7nmIaQh3fEsRu/nuMkehrdwL61m+M4h1NQrWoLiRv6HCxUq+fwpY/eBrjFf9d6l4RI2XvmJ1vJQEJCABCUhgtQQOCVi4y2CBgrXIF3dqzyIKKwh2UBFlphaxWPQx6eR+197j1kB8LsSfV66AMG5nWBhcqFMXXAuI3ULMEBbABLDtBm+HJ64YLFJLFsgraPboKpRM4EffdIELsMgijhIBm0vL1gQs2nn+JOzeKI0ppW2f+zzeR6w6saAc46qKSEA8r5LA8Yyvb09WXK9KQgSiHYvzdrxg3YP4QXwhgrQTq41g9a0rWC1uNRaEWF8R74kxkO/L2goCM89rTqklYHFPxDZc48a43ebUvcaxb03utWQYzCkIjE9Mbtk55y19LO/fPVMyiE9VqEzJ908Bqx98jfGq/y4Vj1DAqgjTS0lAAhKQwFETOEnAekEShxBYum4fiDLEoCDmU0kcnxygZMsiFsyV9yx4CFiL0FaavjqnHkOPxRLslw9YWGF1gKVAN9MRFgS4OrF7fFpLyQR+a6ywVMCNC8vGoZY0+9q4RQGLdhBfh7g3iDlbKFh2Pj5ZT/GOjimMnQTsv9WIoOHUBwsa3BmxkEVQQ8Ti3xHOGVNwm8TyCAGGe9ZeD9VYEFInhAtELMb02nUc00+MzVj5slmSU2oKWIh6CI+4nvOur70gyrNBQ39i8ZVbcDF+WBofcs9d4njay7yH9tbKkFry/VPA6u/9GuNV/10qHrGmwbBis7yUBCQgAQlIoDqBkwSs56eA1liNYCGEO1Bb2lgkZBrjp1aw4fb6uL/gekTsGRZmu992Fm+3a3aqn7YyyyVcFhDUcGFqC25IuM7wb7hfdguxO25cMQV69QdkhguWTOBnqFa1WyD4PjwtfMZY8lChrQpY1B3LIASCy1cjO82FsHrCCobxp1bSCpI5EJMIN8dahTGYupZk0uPcXJfGWgtC6ss7jzUqFmNrKCTaIAkIrmZYBeWUmgIW9yUGFQHGEUnGxAvLaUPpsbwjbNjwjSspPAvXTcHQd8MVlFxv6nPGtndf/Uq+fwpY/T1da7zqv1OlIxSwKoH0MhKQgAQkcPQE+gQsACAmEcPl9jsiFn9jIcTO9X1SrA12JUtd4ZjMYk1AVqCfajJOXeHAIotgrcTUwS2H4PJrKuyg/2DaQe8uLHGvIJgy7WsL7K6TAhGvqQ1z16VkAj93HUvvx/uAyyDPM6Lr2LJlAYu2446MZdM1KsZBGsu0ez4xgp6a3AZriVft9ck+iivx0CDZNdvVXgvB680pThBjT3dTou9+tReE12wsb55yYIOiry61/g4P4iXRN7+TXBuXFrDathFo/FETWdON5UcmQMa0GkkGqAvxpLDEWqPVGc8I4zhzHLIO1i4l3z8FrP5eqD1e9d9x5BEKWCMBeroEJCABCZwaAkMELGCQxYu4D4hY+3aFcYsiODkB1f80xcciVkRfdiKsAAgwzMT1MmkXnEDnh9Ldvy8tAtn1Lt31nbpzidmFuIarzEkFUYsgw32Mpq7v0tcvmcAvXee++yPiEmScTGk8C2PSrHfvtXUBi7awsGAsIaPpmCxgfX2Q+3fGK2Je4b41JKNZ7vUZ61jwYzk6Jitj7n27x/NMElQeKzgW5EsKWNQLEQ2XPcbMEkuyMSw4l2DcuKgT15Fv2M1WYIHVbROZAXFZg88aYoYh5hD7EndorBQRfGsV4rbhjsj3YEmRt9sevs3E+EJ4Rmwd4/59iFPJ908Bq/+pU8DqZ+QREpCABCQggU0SGCpg0TgWO8RxIatVN1B5t+Es3HHHIPAw2YCY7P5VSu/dTnYRp8gMRLwWrkN6dX6zOD8pOxWCD5P5F000kazVgWQAu1/a1T80EWdifPPkRlPrvlu9TskEfs1tJVbRE9Ki+HWVK3oMAhZIsMQiqDsB0nn/lyyMWQRIJzvesyovynfbhfh/j+RS3LXGnKP9L02iFZnucIW67woELEQrLG0RNK8/s1Ue8cToC9y4W2FibQIWfMgWSIZbAt8vLewQ85JvMDEwa4ny3WcfN+MfSLE3CR2wZOEb/fTGavrnU4zKGgHb97Wn5PungNX/ZChg9TPyCAlIQAISkMAmCeQIWDSQXWB2SrEk6AvCywSQSS6LAyZ/bcZCLBEQqvhBFOuLxUIAbCyu2PUlS9TUmQ9rdCSLjheeEOPljWnBhvvKaS8lE/g1MuM5x/0INxMWGLXjwtHmYxGw2rEE4RpXJOIPnSReT9XfjE9YyRHH7z0zWUNifUVsv5+cyQKN5/KxiTMWrBSEmzUIWNSF8R+x4s7JNXwOS6yXJVfvN+30+doELPjgWYTwieCLJVDNOGpD3yu+wSRh4LtPUoMprYaxysQKG0vISw2tYOXj2HTDMg9xk2QxU5aS758CVn+PKGD1M/IICUhAAhKQwCYJ5ApYbSPP0YhS92qsrG6d3AunWHQwaWZRiTUT8Umm2gGdquMeHRG32XNxJv8s2lmM1HTBmKodU1+3ZAI/dZ36ro+IyvOIGysiJIH7iVeD9eGU5ZgErJYTwhUCFokiWHRgoTllOBAsrojhc0ayAFsqAygxoLD6ushOZtJazw/CFc8m8Qt33b3WJGB124s1FllvSXhR+zngnUWMIPEH4uG+zYM1ClhdPrjbYwH1rY3oevYZ3C4R4XlPEDsJEVAa37LkmcbajAQyd0hhBrBsnrIQTxPXYawwcWWceixv21Ly/VPA6n8SFLD6GXmEBCQgAQlIYJMESgWstrEEXEekYRLGQmysFQWLDCaRxNFCFCA2yd9ukmwEWZVemdwlu01AlPueiPj9jbardrVLJvC169B3PcQAMgjyLPLDDv3bUv/iflYrpXpfPY5RwGrbjGUSgauv18TS+4pkbVZTGMfa6i+SOxCWFWRZnSKmTV8fdv+O5RGbAN+U4hzVyDqHOEesK1ytsbx6x54KrVXAoqoIMwia35JidZHZtc9K9yTmiC68rwiVxKPDMvbQZsjaBSzaibCD9TPvCtbQF60cUw0hB14IV89ObnRTxIQb8p4gZONiTFsRfC+drJprCdzMNxjXGctxrSUzJklpprQw2213yfdPAav/6VHA6mfkERKQgAQkIIFNEmCxwG7053Zqz2L819MiaEij2ClnYsmkmknmVQommSwu35J2eXHvIHbQ+2eeSA5pa+4xr08L0/Y8JsxYAOBCNLVrQm5dlzoe4fN7U1ykpeqwe18WvbwHWAEiWLGA+7vkPoMLDdYb/G3uQuw4XGlzCmIGwclZqK29sDAlYQQJHQhczVhyxab+5y8MYs1inCDMCMkIjQjjLFancO8sZYtIR/uwPsJ1igUtGUtzAqwjyBB3kEX4H6eMsAhXhyxmvjEJRDmBwYmbNedmAs86web5rlw9PQc5Ah/vJ6IVGwXEbnr1gHeADRnG5pzCtXm/5i70Hc8J7wlCFj+43JXGyWJMgxHPECLOG1b0jWJcYLMN13zeE8YFfpfGyWIsJBsncw3ayrhw0vsyZd+WfP/IkPp/BzzPJfXmHeN7zJxuaEE0Zx45xZwGyzs2SbHKzClzj1c5ddt7bC1VdnRFvIAEJCABCUhg5QT4ZhJzovvtRGRBUGLxl1NYiBGYGFGMiTULDyacxLnB9QG3Q3bScZsj4xfxWJhEIvIQoJ0JdCsabCHOVR8brEhoV3dBwUTvrkkg7Dv/tPyd52ZILLQ5efD8sfhnJ573YE7XmZPayfuTm7mP+vM+b+2d4rlAWOeH4M68Twga7Kwj+DCe8EOhja3QSJw8LBQQwVmEf7QJgv3x5O45p2VF7vPKGMxmAJZoBLlngc4iEgsb4h4xhsIEqzHaxHiJmxPx9Ggri9qh7WRMynXJQvRbgh915bvCc8D3hGfgkknQgMtnp/5HWCaBAn1PvyPGsKDmmzLUVbuNy5jTd4iHUwQ0H1oHxgQY8NzwPrDQ59nhueE9OXfHzZ/+gwliPFZWBLLnGwwrLINhxTdqze76PA+0lecB8QfREeGOcYFxon1W4Me7wjPB2IBAxbPBfANRHxGL92XpsbHk+0c/4r4+xZjOOMT3OEfcph6MD2upD32/1Hg19L09y3EKWMXoPFECEpCABCQggQoEmJTirnLLnWuRlfGqScCrcBsvIQEJSEACEpCABCSwZQIKWFvuPesuAQlIQAIS2D6BqzUWI8/YE//qPikI7/ZbaAskIAEJSEACEpCABEYTUMAajdALSEACEpCABCRQSAD3BlKAE0eia4aPyw/uL7j6WCQgAQlIQAISkIAEJDBp6l3xSkACEpCABCQggZMIXDu5D55v56C7N/GLHiI6CUhAAhKQgAQkIAEJtAS0wPJZkIAEJCABCUhgCQIEsH94Eyz2O3duPmXa6yXa6T0lIAEJSEACEpCABCoQUMCqANFLSEACEpCABCSQTeCOTcanX9zJPEg69/tFxC+krEjZF/UECUhAAhKQgAQkIIHjJKCAdZz9aqskIAEJSEACayZwnYh4bEp3363ny1M8rLevufLWTQISkIAEJCABCUhgfgIKWPMz944SkIAEJCCB00zga1PcqwvtQPh4RNwlIn4rIv79NAOy7RKQgAQkIAEJSEACZyWggOVTIQEJSEACEpDAUAKflbIFfiIi/mPoSek4sgxeJSIeFhGX2zmXaz0xIm4dEf+aeV0Pl4AEJCABCUhAAhI4BQQUsE5BJ9tECUhAAhKQQAUC/ysiviUirhcRL46IN0bEeyLikz3X5rwLpvPuHBEX3nP8H0XETSPigxXq6SUkIAEJSEACEpCABI6QgALWEXaqTZKABCQgAQlMQOALIuLREXHjiPhYRLylySBIxsC3RsQ7k/j0953g6xyPcHWFiLhS+v2/99TrVRHx/Y049oYJ6uwlJSABCUhAAhKQgASOhIAC1pF0pM2QgAQkIAEJTEzgYhHx2oj43M59iFX1LxHxzxHxqYj4t078KlwGPzMiPie5He6rHlZciFeIWMa9mrgDvbwEJCABCUhAAhLYMgEFrC33nnWXgAQkIAEJzEfggY1Ydc9Kt0PownLr9hHxykrX9DISkIAEJCABCUhAAkdMQAHriDvXpklAAhKQgAQqEnhcRFw/Is4REaXzB4K1v79xKXxuRDy4Cdr+ror181ISkIAEJCABCUhAAkdMoHQCesRIbJoEJCABCUhAAnsIfFlEXD4irh4R14yIS0fEp2WQIkD7MyPiGRFB0HYyGVokIAEJSEACEpCABCQwiIAC1iBMHiQBCUhAAhKQQLK8+uyI+LyI+NIkZhGk/SIRcb6I+MKIOFsi9b7GRfADEXFGRPx+RLwsIv4uCVdYYlkkIAEJSEACEpCABCQwmMD/BwDEwVCFNE25AAAAAElFTkSuQmCC;" parent="1" vertex="1">
          <mxGeometry x="20" y="10" width="152.11" height="45" as="geometry" />
        </mxCell>
        <mxCell id="Jd2u9fooEGjb59J4GpjM-2" value="&lt;font color=&quot;#000000&quot;&gt;&lt;b&gt;Customer&lt;br&gt;Logo&lt;br&gt;Here&lt;/b&gt;&lt;/font&gt;" style="whiteSpace=wrap;html=1;aspect=fixed;fillColor=none;strokeColor=#000000;strokeWidth=3;" parent="1" vertex="1">
          <mxGeometry x="1600" y="10" width="80" height="80" as="geometry" />
        </mxCell>
      </root>
    </mxGraphModel>
  </diagram>
</mxfile>
